<?xml version="1.0" encoding="utf-8" standalone="no"?>
<!DOCTYPE svg PUBLIC "-//W3C//DTD SVG 1.1//EN"
  "http://www.w3.org/Graphics/SVG/1.1/DTD/svg11.dtd">
<svg height="288pt" version="1.1" viewBox="0 0 432 288" width="432pt" xmlns="http://www.w3.org/2000/svg" xmlns:xlink="http://www.w3.org/1999/xlink">
 <metadata>
  <rdf:RDF xmlns:cc="http://creativecommons.org/ns#" xmlns:dc="http://purl.org/dc/elements/1.1/" xmlns:rdf="http://www.w3.org/1999/02/22-rdf-syntax-ns#">
   <cc:Work>
    <dc:type rdf:resource="http://purl.org/dc/dcmitype/StillImage"/>
    <dc:date>2022-04-09T15:22:27.503355</dc:date>
    <dc:format>image/svg+xml</dc:format>
    <dc:creator>
     <cc:Agent>
      <dc:title>Matplotlib v3.4.3, https://matplotlib.org/</dc:title>
     </cc:Agent>
    </dc:creator>
   </cc:Work>
  </rdf:RDF>
 </metadata>
 <defs>
  <style type="text/css">*{stroke-linecap:butt;stroke-linejoin:round;}</style>
 </defs>
 <g id="figure_1">
  <g id="patch_1">
   <path d="M 0 288 
L 432 288 
L 432 0 
L 0 0 
z
"/>
  </g>
  <g id="axes_1">
   <g id="patch_2">
    <path d="M 54 252 
L 388.8 252 
L 388.8 34.56 
L 54 34.56 
z
"/>
   </g>
   <g id="matplotlib.axis_1">
    <g id="xtick_1">
     <g id="line2d_1">
      <defs>
       <path d="M 0 0 
L 0 3.5 
" id="mf8efebcca5" style="stroke:#ffffff;stroke-width:0.8;"/>
      </defs>
      <g>
       <use style="fill:#ffffff;stroke:#ffffff;stroke-width:0.8;" x="90.958442" xlink:href="#mf8efebcca5" y="252"/>
      </g>
     </g>
     <g id="text_1">
      <!-- $\mathdefault{10^{-1}}$ -->
      <g style="fill:#ffffff;" transform="translate(79.208442 266.598437)scale(0.1 -0.1)">
       <defs>
        <path d="M 794 531 
L 1825 531 
L 1825 4091 
L 703 3866 
L 703 4441 
L 1819 4666 
L 2450 4666 
L 2450 531 
L 3481 531 
L 3481 0 
L 794 0 
L 794 531 
z
" id="DejaVuSans-31" transform="scale(0.015625)"/>
        <path d="M 2034 4250 
Q 1547 4250 1301 3770 
Q 1056 3291 1056 2328 
Q 1056 1369 1301 889 
Q 1547 409 2034 409 
Q 2525 409 2770 889 
Q 3016 1369 3016 2328 
Q 3016 3291 2770 3770 
Q 2525 4250 2034 4250 
z
M 2034 4750 
Q 2819 4750 3233 4129 
Q 3647 3509 3647 2328 
Q 3647 1150 3233 529 
Q 2819 -91 2034 -91 
Q 1250 -91 836 529 
Q 422 1150 422 2328 
Q 422 3509 836 4129 
Q 1250 4750 2034 4750 
z
" id="DejaVuSans-30" transform="scale(0.015625)"/>
        <path d="M 678 2272 
L 4684 2272 
L 4684 1741 
L 678 1741 
L 678 2272 
z
" id="DejaVuSans-2212" transform="scale(0.015625)"/>
       </defs>
       <use transform="translate(0 0.684375)" xlink:href="#DejaVuSans-31"/>
       <use transform="translate(63.623047 0.684375)" xlink:href="#DejaVuSans-30"/>
       <use transform="translate(128.203125 38.965625)scale(0.7)" xlink:href="#DejaVuSans-2212"/>
       <use transform="translate(186.855469 38.965625)scale(0.7)" xlink:href="#DejaVuSans-31"/>
      </g>
     </g>
    </g>
    <g id="xtick_2">
     <g id="line2d_2">
      <g>
       <use style="fill:#ffffff;stroke:#ffffff;stroke-width:0.8;" x="134.438961" xlink:href="#mf8efebcca5" y="252"/>
      </g>
     </g>
     <g id="text_2">
      <!-- $\mathdefault{10^{1}}$ -->
      <g style="fill:#ffffff;" transform="translate(125.638961 266.598437)scale(0.1 -0.1)">
       <use transform="translate(0 0.684375)" xlink:href="#DejaVuSans-31"/>
       <use transform="translate(63.623047 0.684375)" xlink:href="#DejaVuSans-30"/>
       <use transform="translate(128.203125 38.965625)scale(0.7)" xlink:href="#DejaVuSans-31"/>
      </g>
     </g>
    </g>
    <g id="xtick_3">
     <g id="line2d_3">
      <g>
       <use style="fill:#ffffff;stroke:#ffffff;stroke-width:0.8;" x="177.919481" xlink:href="#mf8efebcca5" y="252"/>
      </g>
     </g>
     <g id="text_3">
      <!-- $\mathdefault{10^{3}}$ -->
      <g style="fill:#ffffff;" transform="translate(169.119481 266.598437)scale(0.1 -0.1)">
       <defs>
        <path d="M 2597 2516 
Q 3050 2419 3304 2112 
Q 3559 1806 3559 1356 
Q 3559 666 3084 287 
Q 2609 -91 1734 -91 
Q 1441 -91 1130 -33 
Q 819 25 488 141 
L 488 750 
Q 750 597 1062 519 
Q 1375 441 1716 441 
Q 2309 441 2620 675 
Q 2931 909 2931 1356 
Q 2931 1769 2642 2001 
Q 2353 2234 1838 2234 
L 1294 2234 
L 1294 2753 
L 1863 2753 
Q 2328 2753 2575 2939 
Q 2822 3125 2822 3475 
Q 2822 3834 2567 4026 
Q 2313 4219 1838 4219 
Q 1578 4219 1281 4162 
Q 984 4106 628 3988 
L 628 4550 
Q 988 4650 1302 4700 
Q 1616 4750 1894 4750 
Q 2613 4750 3031 4423 
Q 3450 4097 3450 3541 
Q 3450 3153 3228 2886 
Q 3006 2619 2597 2516 
z
" id="DejaVuSans-33" transform="scale(0.015625)"/>
       </defs>
       <use transform="translate(0 0.765625)" xlink:href="#DejaVuSans-31"/>
       <use transform="translate(63.623047 0.765625)" xlink:href="#DejaVuSans-30"/>
       <use transform="translate(128.203125 39.046875)scale(0.7)" xlink:href="#DejaVuSans-33"/>
      </g>
     </g>
    </g>
    <g id="xtick_4">
     <g id="line2d_4">
      <g>
       <use style="fill:#ffffff;stroke:#ffffff;stroke-width:0.8;" x="221.4" xlink:href="#mf8efebcca5" y="252"/>
      </g>
     </g>
     <g id="text_4">
      <!-- $\mathdefault{10^{5}}$ -->
      <g style="fill:#ffffff;" transform="translate(212.6 266.598437)scale(0.1 -0.1)">
       <defs>
        <path d="M 691 4666 
L 3169 4666 
L 3169 4134 
L 1269 4134 
L 1269 2991 
Q 1406 3038 1543 3061 
Q 1681 3084 1819 3084 
Q 2600 3084 3056 2656 
Q 3513 2228 3513 1497 
Q 3513 744 3044 326 
Q 2575 -91 1722 -91 
Q 1428 -91 1123 -41 
Q 819 9 494 109 
L 494 744 
Q 775 591 1075 516 
Q 1375 441 1709 441 
Q 2250 441 2565 725 
Q 2881 1009 2881 1497 
Q 2881 1984 2565 2268 
Q 2250 2553 1709 2553 
Q 1456 2553 1204 2497 
Q 953 2441 691 2322 
L 691 4666 
z
" id="DejaVuSans-35" transform="scale(0.015625)"/>
       </defs>
       <use transform="translate(0 0.684375)" xlink:href="#DejaVuSans-31"/>
       <use transform="translate(63.623047 0.684375)" xlink:href="#DejaVuSans-30"/>
       <use transform="translate(128.203125 38.965625)scale(0.7)" xlink:href="#DejaVuSans-35"/>
      </g>
     </g>
    </g>
    <g id="xtick_5">
     <g id="line2d_5">
      <g>
       <use style="fill:#ffffff;stroke:#ffffff;stroke-width:0.8;" x="264.880519" xlink:href="#mf8efebcca5" y="252"/>
      </g>
     </g>
     <g id="text_5">
      <!-- $\mathdefault{10^{7}}$ -->
      <g style="fill:#ffffff;" transform="translate(256.080519 266.598437)scale(0.1 -0.1)">
       <defs>
        <path d="M 525 4666 
L 3525 4666 
L 3525 4397 
L 1831 0 
L 1172 0 
L 2766 4134 
L 525 4134 
L 525 4666 
z
" id="DejaVuSans-37" transform="scale(0.015625)"/>
       </defs>
       <use transform="translate(0 0.684375)" xlink:href="#DejaVuSans-31"/>
       <use transform="translate(63.623047 0.684375)" xlink:href="#DejaVuSans-30"/>
       <use transform="translate(128.203125 38.965625)scale(0.7)" xlink:href="#DejaVuSans-37"/>
      </g>
     </g>
    </g>
    <g id="xtick_6">
     <g id="line2d_6">
      <g>
       <use style="fill:#ffffff;stroke:#ffffff;stroke-width:0.8;" x="308.361039" xlink:href="#mf8efebcca5" y="252"/>
      </g>
     </g>
     <g id="text_6">
      <!-- $\mathdefault{10^{9}}$ -->
      <g style="fill:#ffffff;" transform="translate(299.561039 266.598437)scale(0.1 -0.1)">
       <defs>
        <path d="M 703 97 
L 703 672 
Q 941 559 1184 500 
Q 1428 441 1663 441 
Q 2288 441 2617 861 
Q 2947 1281 2994 2138 
Q 2813 1869 2534 1725 
Q 2256 1581 1919 1581 
Q 1219 1581 811 2004 
Q 403 2428 403 3163 
Q 403 3881 828 4315 
Q 1253 4750 1959 4750 
Q 2769 4750 3195 4129 
Q 3622 3509 3622 2328 
Q 3622 1225 3098 567 
Q 2575 -91 1691 -91 
Q 1453 -91 1209 -44 
Q 966 3 703 97 
z
M 1959 2075 
Q 2384 2075 2632 2365 
Q 2881 2656 2881 3163 
Q 2881 3666 2632 3958 
Q 2384 4250 1959 4250 
Q 1534 4250 1286 3958 
Q 1038 3666 1038 3163 
Q 1038 2656 1286 2365 
Q 1534 2075 1959 2075 
z
" id="DejaVuSans-39" transform="scale(0.015625)"/>
       </defs>
       <use transform="translate(0 0.765625)" xlink:href="#DejaVuSans-31"/>
       <use transform="translate(63.623047 0.765625)" xlink:href="#DejaVuSans-30"/>
       <use transform="translate(128.203125 39.046875)scale(0.7)" xlink:href="#DejaVuSans-39"/>
      </g>
     </g>
    </g>
    <g id="xtick_7">
     <g id="line2d_7">
      <g>
       <use style="fill:#ffffff;stroke:#ffffff;stroke-width:0.8;" x="351.841558" xlink:href="#mf8efebcca5" y="252"/>
      </g>
     </g>
     <g id="text_7">
      <!-- $\mathdefault{10^{11}}$ -->
      <g style="fill:#ffffff;" transform="translate(340.791558 266.598437)scale(0.1 -0.1)">
       <use transform="translate(0 0.684375)" xlink:href="#DejaVuSans-31"/>
       <use transform="translate(63.623047 0.684375)" xlink:href="#DejaVuSans-30"/>
       <use transform="translate(128.203125 38.965625)scale(0.7)" xlink:href="#DejaVuSans-31"/>
       <use transform="translate(172.739258 38.965625)scale(0.7)" xlink:href="#DejaVuSans-31"/>
      </g>
     </g>
    </g>
    <g id="text_8">
     <!-- $k$ [m$^{-1}$] -->
     <g style="fill:#ffffff;" transform="translate(202.75 280.998438)scale(0.1 -0.1)">
      <defs>
       <path d="M 1172 4863 
L 1747 4863 
L 1197 2028 
L 3169 3500 
L 3916 3500 
L 1716 1825 
L 3322 0 
L 2625 0 
L 1131 1709 
L 800 0 
L 225 0 
L 1172 4863 
z
" id="DejaVuSans-Oblique-6b" transform="scale(0.015625)"/>
       <path id="DejaVuSans-20" transform="scale(0.015625)"/>
       <path d="M 550 4863 
L 1875 4863 
L 1875 4416 
L 1125 4416 
L 1125 -397 
L 1875 -397 
L 1875 -844 
L 550 -844 
L 550 4863 
z
" id="DejaVuSans-5b" transform="scale(0.015625)"/>
       <path d="M 3328 2828 
Q 3544 3216 3844 3400 
Q 4144 3584 4550 3584 
Q 5097 3584 5394 3201 
Q 5691 2819 5691 2113 
L 5691 0 
L 5113 0 
L 5113 2094 
Q 5113 2597 4934 2840 
Q 4756 3084 4391 3084 
Q 3944 3084 3684 2787 
Q 3425 2491 3425 1978 
L 3425 0 
L 2847 0 
L 2847 2094 
Q 2847 2600 2669 2842 
Q 2491 3084 2119 3084 
Q 1678 3084 1418 2786 
Q 1159 2488 1159 1978 
L 1159 0 
L 581 0 
L 581 3500 
L 1159 3500 
L 1159 2956 
Q 1356 3278 1631 3431 
Q 1906 3584 2284 3584 
Q 2666 3584 2933 3390 
Q 3200 3197 3328 2828 
z
" id="DejaVuSans-6d" transform="scale(0.015625)"/>
       <path d="M 1947 4863 
L 1947 -844 
L 622 -844 
L 622 -397 
L 1369 -397 
L 1369 4416 
L 622 4416 
L 622 4863 
L 1947 4863 
z
" id="DejaVuSans-5d" transform="scale(0.015625)"/>
      </defs>
      <use transform="translate(0 0.684375)" xlink:href="#DejaVuSans-Oblique-6b"/>
      <use transform="translate(57.910156 0.684375)" xlink:href="#DejaVuSans-20"/>
      <use transform="translate(89.697266 0.684375)" xlink:href="#DejaVuSans-5b"/>
      <use transform="translate(128.710938 0.684375)" xlink:href="#DejaVuSans-6d"/>
      <use transform="translate(227.080078 38.965625)scale(0.7)" xlink:href="#DejaVuSans-2212"/>
      <use transform="translate(285.732422 38.965625)scale(0.7)" xlink:href="#DejaVuSans-31"/>
      <use transform="translate(333.00293 0.684375)" xlink:href="#DejaVuSans-5d"/>
     </g>
    </g>
   </g>
   <g id="matplotlib.axis_2">
    <g id="ytick_1">
     <g id="line2d_8">
      <defs>
       <path d="M 0 0 
L -3.5 0 
" id="m7718354f37" style="stroke:#ffffff;stroke-width:0.8;"/>
      </defs>
      <g>
       <use style="fill:#ffffff;stroke:#ffffff;stroke-width:0.8;" x="54" xlink:href="#m7718354f37" y="242.116364"/>
      </g>
     </g>
     <g id="text_9">
      <!-- 0.0 -->
      <g style="fill:#ffffff;" transform="translate(31.096875 245.915582)scale(0.1 -0.1)">
       <defs>
        <path d="M 684 794 
L 1344 794 
L 1344 0 
L 684 0 
L 684 794 
z
" id="DejaVuSans-2e" transform="scale(0.015625)"/>
       </defs>
       <use xlink:href="#DejaVuSans-30"/>
       <use x="63.623047" xlink:href="#DejaVuSans-2e"/>
       <use x="95.410156" xlink:href="#DejaVuSans-30"/>
      </g>
     </g>
    </g>
    <g id="ytick_2">
     <g id="line2d_9">
      <g>
       <use style="fill:#ffffff;stroke:#ffffff;stroke-width:0.8;" x="54" xlink:href="#m7718354f37" y="202.581818"/>
      </g>
     </g>
     <g id="text_10">
      <!-- 0.2 -->
      <g style="fill:#ffffff;" transform="translate(31.096875 206.381037)scale(0.1 -0.1)">
       <defs>
        <path d="M 1228 531 
L 3431 531 
L 3431 0 
L 469 0 
L 469 531 
Q 828 903 1448 1529 
Q 2069 2156 2228 2338 
Q 2531 2678 2651 2914 
Q 2772 3150 2772 3378 
Q 2772 3750 2511 3984 
Q 2250 4219 1831 4219 
Q 1534 4219 1204 4116 
Q 875 4013 500 3803 
L 500 4441 
Q 881 4594 1212 4672 
Q 1544 4750 1819 4750 
Q 2544 4750 2975 4387 
Q 3406 4025 3406 3419 
Q 3406 3131 3298 2873 
Q 3191 2616 2906 2266 
Q 2828 2175 2409 1742 
Q 1991 1309 1228 531 
z
" id="DejaVuSans-32" transform="scale(0.015625)"/>
       </defs>
       <use xlink:href="#DejaVuSans-30"/>
       <use x="63.623047" xlink:href="#DejaVuSans-2e"/>
       <use x="95.410156" xlink:href="#DejaVuSans-32"/>
      </g>
     </g>
    </g>
    <g id="ytick_3">
     <g id="line2d_10">
      <g>
       <use style="fill:#ffffff;stroke:#ffffff;stroke-width:0.8;" x="54" xlink:href="#m7718354f37" y="163.047273"/>
      </g>
     </g>
     <g id="text_11">
      <!-- 0.4 -->
      <g style="fill:#ffffff;" transform="translate(31.096875 166.846491)scale(0.1 -0.1)">
       <defs>
        <path d="M 2419 4116 
L 825 1625 
L 2419 1625 
L 2419 4116 
z
M 2253 4666 
L 3047 4666 
L 3047 1625 
L 3713 1625 
L 3713 1100 
L 3047 1100 
L 3047 0 
L 2419 0 
L 2419 1100 
L 313 1100 
L 313 1709 
L 2253 4666 
z
" id="DejaVuSans-34" transform="scale(0.015625)"/>
       </defs>
       <use xlink:href="#DejaVuSans-30"/>
       <use x="63.623047" xlink:href="#DejaVuSans-2e"/>
       <use x="95.410156" xlink:href="#DejaVuSans-34"/>
      </g>
     </g>
    </g>
    <g id="ytick_4">
     <g id="line2d_11">
      <g>
       <use style="fill:#ffffff;stroke:#ffffff;stroke-width:0.8;" x="54" xlink:href="#m7718354f37" y="123.512727"/>
      </g>
     </g>
     <g id="text_12">
      <!-- 0.6 -->
      <g style="fill:#ffffff;" transform="translate(31.096875 127.311946)scale(0.1 -0.1)">
       <defs>
        <path d="M 2113 2584 
Q 1688 2584 1439 2293 
Q 1191 2003 1191 1497 
Q 1191 994 1439 701 
Q 1688 409 2113 409 
Q 2538 409 2786 701 
Q 3034 994 3034 1497 
Q 3034 2003 2786 2293 
Q 2538 2584 2113 2584 
z
M 3366 4563 
L 3366 3988 
Q 3128 4100 2886 4159 
Q 2644 4219 2406 4219 
Q 1781 4219 1451 3797 
Q 1122 3375 1075 2522 
Q 1259 2794 1537 2939 
Q 1816 3084 2150 3084 
Q 2853 3084 3261 2657 
Q 3669 2231 3669 1497 
Q 3669 778 3244 343 
Q 2819 -91 2113 -91 
Q 1303 -91 875 529 
Q 447 1150 447 2328 
Q 447 3434 972 4092 
Q 1497 4750 2381 4750 
Q 2619 4750 2861 4703 
Q 3103 4656 3366 4563 
z
" id="DejaVuSans-36" transform="scale(0.015625)"/>
       </defs>
       <use xlink:href="#DejaVuSans-30"/>
       <use x="63.623047" xlink:href="#DejaVuSans-2e"/>
       <use x="95.410156" xlink:href="#DejaVuSans-36"/>
      </g>
     </g>
    </g>
    <g id="ytick_5">
     <g id="line2d_12">
      <g>
       <use style="fill:#ffffff;stroke:#ffffff;stroke-width:0.8;" x="54" xlink:href="#m7718354f37" y="83.978182"/>
      </g>
     </g>
     <g id="text_13">
      <!-- 0.8 -->
      <g style="fill:#ffffff;" transform="translate(31.096875 87.777401)scale(0.1 -0.1)">
       <defs>
        <path d="M 2034 2216 
Q 1584 2216 1326 1975 
Q 1069 1734 1069 1313 
Q 1069 891 1326 650 
Q 1584 409 2034 409 
Q 2484 409 2743 651 
Q 3003 894 3003 1313 
Q 3003 1734 2745 1975 
Q 2488 2216 2034 2216 
z
M 1403 2484 
Q 997 2584 770 2862 
Q 544 3141 544 3541 
Q 544 4100 942 4425 
Q 1341 4750 2034 4750 
Q 2731 4750 3128 4425 
Q 3525 4100 3525 3541 
Q 3525 3141 3298 2862 
Q 3072 2584 2669 2484 
Q 3125 2378 3379 2068 
Q 3634 1759 3634 1313 
Q 3634 634 3220 271 
Q 2806 -91 2034 -91 
Q 1263 -91 848 271 
Q 434 634 434 1313 
Q 434 1759 690 2068 
Q 947 2378 1403 2484 
z
M 1172 3481 
Q 1172 3119 1398 2916 
Q 1625 2713 2034 2713 
Q 2441 2713 2670 2916 
Q 2900 3119 2900 3481 
Q 2900 3844 2670 4047 
Q 2441 4250 2034 4250 
Q 1625 4250 1398 4047 
Q 1172 3844 1172 3481 
z
" id="DejaVuSans-38" transform="scale(0.015625)"/>
       </defs>
       <use xlink:href="#DejaVuSans-30"/>
       <use x="63.623047" xlink:href="#DejaVuSans-2e"/>
       <use x="95.410156" xlink:href="#DejaVuSans-38"/>
      </g>
     </g>
    </g>
    <g id="ytick_6">
     <g id="line2d_13">
      <g>
       <use style="fill:#ffffff;stroke:#ffffff;stroke-width:0.8;" x="54" xlink:href="#m7718354f37" y="44.443636"/>
      </g>
     </g>
     <g id="text_14">
      <!-- 1.0 -->
      <g style="fill:#ffffff;" transform="translate(31.096875 48.242855)scale(0.1 -0.1)">
       <use xlink:href="#DejaVuSans-31"/>
       <use x="63.623047" xlink:href="#DejaVuSans-2e"/>
       <use x="95.410156" xlink:href="#DejaVuSans-30"/>
      </g>
     </g>
    </g>
    <g id="text_15">
     <!-- $R_{NL}(k)/R_{xx}$ -->
     <g style="fill:#ffffff;" transform="translate(25.017187 167.73)rotate(-90)scale(0.1 -0.1)">
      <defs>
       <path d="M 1613 4147 
L 1294 2491 
L 2106 2491 
Q 2584 2491 2879 2755 
Q 3175 3019 3175 3444 
Q 3175 3784 2976 3965 
Q 2778 4147 2406 4147 
L 1613 4147 
z
M 2772 2241 
Q 2972 2194 3105 2009 
Q 3238 1825 3413 1275 
L 3809 0 
L 3144 0 
L 2778 1197 
Q 2638 1659 2453 1815 
Q 2269 1972 1888 1972 
L 1191 1972 
L 806 0 
L 172 0 
L 1081 4666 
L 2503 4666 
Q 3150 4666 3495 4373 
Q 3841 4081 3841 3531 
Q 3841 3044 3547 2687 
Q 3253 2331 2772 2241 
z
" id="DejaVuSans-Oblique-52" transform="scale(0.015625)"/>
       <path d="M 1081 4666 
L 1931 4666 
L 3219 666 
L 4000 4666 
L 4616 4666 
L 3706 0 
L 2853 0 
L 1569 4025 
L 788 0 
L 172 0 
L 1081 4666 
z
" id="DejaVuSans-Oblique-4e" transform="scale(0.015625)"/>
       <path d="M 1075 4666 
L 1709 4666 
L 909 525 
L 3181 525 
L 3078 0 
L 172 0 
L 1075 4666 
z
" id="DejaVuSans-Oblique-4c" transform="scale(0.015625)"/>
       <path d="M 1984 4856 
Q 1566 4138 1362 3434 
Q 1159 2731 1159 2009 
Q 1159 1288 1364 580 
Q 1569 -128 1984 -844 
L 1484 -844 
Q 1016 -109 783 600 
Q 550 1309 550 2009 
Q 550 2706 781 3412 
Q 1013 4119 1484 4856 
L 1984 4856 
z
" id="DejaVuSans-28" transform="scale(0.015625)"/>
       <path d="M 513 4856 
L 1013 4856 
Q 1481 4119 1714 3412 
Q 1947 2706 1947 2009 
Q 1947 1309 1714 600 
Q 1481 -109 1013 -844 
L 513 -844 
Q 928 -128 1133 580 
Q 1338 1288 1338 2009 
Q 1338 2731 1133 3434 
Q 928 4138 513 4856 
z
" id="DejaVuSans-29" transform="scale(0.015625)"/>
       <path d="M 1625 4666 
L 2156 4666 
L 531 -594 
L 0 -594 
L 1625 4666 
z
" id="DejaVuSans-2f" transform="scale(0.015625)"/>
       <path d="M 3841 3500 
L 2234 1784 
L 3219 0 
L 2559 0 
L 1819 1388 
L 531 0 
L -166 0 
L 1556 1844 
L 641 3500 
L 1300 3500 
L 1972 2234 
L 3144 3500 
L 3841 3500 
z
" id="DejaVuSans-Oblique-78" transform="scale(0.015625)"/>
      </defs>
      <use transform="translate(0 0.015625)" xlink:href="#DejaVuSans-Oblique-52"/>
      <use transform="translate(69.482422 -16.390625)scale(0.7)" xlink:href="#DejaVuSans-Oblique-4e"/>
      <use transform="translate(121.845703 -16.390625)scale(0.7)" xlink:href="#DejaVuSans-Oblique-4c"/>
      <use transform="translate(163.579102 0.015625)" xlink:href="#DejaVuSans-28"/>
      <use transform="translate(202.592773 0.015625)" xlink:href="#DejaVuSans-Oblique-6b"/>
      <use transform="translate(260.50293 0.015625)" xlink:href="#DejaVuSans-29"/>
      <use transform="translate(299.516602 0.015625)" xlink:href="#DejaVuSans-2f"/>
      <use transform="translate(333.208008 0.015625)" xlink:href="#DejaVuSans-Oblique-52"/>
      <use transform="translate(402.69043 -16.390625)scale(0.7)" xlink:href="#DejaVuSans-Oblique-78"/>
      <use transform="translate(444.116211 -16.390625)scale(0.7)" xlink:href="#DejaVuSans-Oblique-78"/>
     </g>
    </g>
   </g>
   <g id="line2d_14">
    <path clip-path="url(#p3ddeadd92b)" d="M 69.218182 44.443636 
L 73.070886 44.443636 
L 76.92359 44.443636 
L 80.776295 44.443637 
L 84.628999 44.443637 
L 88.481703 44.443638 
L 92.334407 44.443639 
L 96.187112 44.443642 
L 100.039816 44.44365 
L 103.89252 44.443667 
L 107.745224 44.443706 
L 111.597929 44.443793 
L 115.450633 44.44399 
L 119.303337 44.444437 
L 123.156041 44.445448 
L 127.008746 44.447733 
L 130.86145 44.4529 
L 134.714154 44.464586 
L 138.566858 44.491004 
L 142.419563 44.550703 
L 146.272267 44.685455 
L 150.124971 44.98887 
L 153.977675 45.668254 
L 157.83038 47.170693 
L 161.683084 50.403869 
L 165.535788 56.970645 
L 169.388493 68.869676 
L 173.241197 86.556416 
L 177.093901 106.388587 
L 180.946605 122.678858 
L 184.79931 132.97271 
L 188.652014 138.441125 
L 192.504718 141.080419 
L 196.357422 142.295233 
L 200.210127 142.842159 
L 204.062831 143.085946 
L 207.915535 143.194143 
L 211.768239 143.242106 
L 215.620944 143.263436 
L 219.473648 143.273116 
L 223.326352 143.281239 
L 227.179056 143.282801 
L 231.031761 143.286335 
L 234.884465 143.294327 
L 238.737169 143.312397 
L 242.589873 143.353235 
L 246.442578 143.445447 
L 250.295282 143.653242 
L 254.147986 144.119355 
L 258.00069 145.154261 
L 261.853395 147.400767 
L 265.706099 152.047518 
L 269.558803 160.770719 
L 273.411507 174.543342 
L 277.264212 191.404908 
L 281.116916 206.97303 
L 284.96962 218.582137 
L 288.822325 226.460462 
L 292.675029 231.706004 
L 296.527733 235.194061 
L 300.380437 237.513423 
L 304.233142 239.055668 
L 308.085846 240.081174 
L 311.93855 240.763077 
L 315.791254 241.216504 
L 319.643959 241.518008 
L 323.496663 241.718491 
L 327.349367 241.851801 
L 331.202071 241.940444 
L 335.054776 241.999387 
L 338.90748 242.038581 
L 342.760184 242.064642 
L 346.612888 242.081972 
L 350.465593 242.093495 
L 354.318297 242.101157 
L 358.171001 242.106252 
L 362.023705 242.10964 
L 365.87641 242.111893 
L 369.729114 242.113391 
L 373.581818 242.114387 
" style="fill:none;stroke:#355f8d;stroke-linecap:square;stroke-width:1.5;"/>
   </g>
   <g id="line2d_15">
    <path clip-path="url(#p3ddeadd92b)" d="M 69.218182 44.443636 
L 73.070886 44.443636 
L 76.92359 44.443636 
L 80.776295 44.443637 
L 84.628999 44.443637 
L 88.481703 44.443638 
L 92.334407 44.443639 
L 96.187112 44.443642 
L 100.039816 44.44365 
L 103.89252 44.443667 
L 107.745224 44.443706 
L 111.597929 44.443793 
L 115.450633 44.44399 
L 119.303337 44.444437 
L 123.156041 44.445448 
L 127.008746 44.447733 
L 130.86145 44.4529 
L 134.714154 44.464586 
L 138.566858 44.491004 
L 142.419563 44.550703 
L 146.272267 44.685455 
L 150.124971 44.98887 
L 153.977675 45.668254 
L 157.83038 47.170693 
L 161.683084 50.403869 
L 165.535788 56.970645 
L 169.388493 68.869676 
L 173.241197 86.556416 
L 177.093901 106.388587 
L 180.946605 122.678858 
L 184.79931 132.97271 
L 188.652014 138.441125 
L 192.504718 141.080419 
L 196.357422 142.295233 
L 200.210127 142.842159 
L 204.062831 143.085946 
L 207.915535 143.194143 
L 211.768239 143.242106 
L 215.620944 143.263436 
L 219.473648 143.273116 
L 223.326352 143.277953 
L 227.179056 143.281348 
L 231.031761 143.285693 
L 234.884465 143.294043 
L 238.737169 143.312271 
L 242.589873 143.353179 
L 246.442578 143.445423 
L 250.295282 143.653231 
L 254.147986 144.11935 
L 258.00069 145.154258 
L 261.853395 147.400766 
L 265.706099 152.047518 
L 269.558803 160.770718 
L 273.411507 174.543342 
L 277.264212 191.404907 
L 281.116916 206.97303 
L 284.96962 218.582137 
L 288.822325 226.460462 
L 292.675029 231.706004 
L 296.527733 235.194061 
L 300.380437 237.513423 
L 304.233142 239.055668 
L 308.085846 240.081174 
L 311.93855 240.763077 
L 315.791254 241.216504 
L 319.643959 241.518008 
L 323.496663 241.718491 
L 327.349367 241.851801 
L 331.202071 241.940444 
L 335.054776 241.999387 
L 338.90748 242.038581 
L 342.760184 242.064642 
L 346.612888 242.081972 
L 350.465593 242.093495 
L 354.318297 242.101157 
L 358.171001 242.106252 
L 362.023705 242.10964 
L 365.87641 242.111893 
L 369.729114 242.113391 
L 373.581818 242.114387 
" style="fill:none;stroke:#355f8d;stroke-dasharray:3,9;stroke-dashoffset:0;stroke-width:3;"/>
   </g>
   <g id="line2d_16">
    <path clip-path="url(#p3ddeadd92b)" d="M 69.218182 44.443636 
L 73.070886 44.443636 
L 76.92359 44.443636 
L 80.776295 44.443637 
L 84.628999 44.443637 
L 88.481703 44.443638 
L 92.334407 44.443639 
L 96.187112 44.443642 
L 100.039816 44.44365 
L 103.89252 44.443667 
L 107.745224 44.443706 
L 111.597929 44.443793 
L 115.450633 44.44399 
L 119.303337 44.444437 
L 123.156041 44.445448 
L 127.008746 44.447733 
L 130.86145 44.4529 
L 134.714154 44.464586 
L 138.566858 44.491004 
L 142.419563 44.550703 
L 146.272267 44.685455 
L 150.124971 44.98887 
L 153.977675 45.668254 
L 157.83038 47.170694 
L 161.683084 50.40387 
L 165.535788 56.970647 
L 169.388493 68.86968 
L 173.241197 86.556424 
L 177.093901 106.3886 
L 180.946605 122.67888 
L 184.79931 132.972752 
L 188.652014 138.441212 
L 192.504718 141.080606 
L 196.357422 142.295646 
L 200.210127 142.843083 
L 204.062831 143.088026 
L 207.915535 143.198838 
L 211.768239 143.252713 
L 215.620944 143.287411 
L 219.473648 143.327308 
L 223.326352 143.40368 
L 227.179056 143.559194 
L 231.031761 143.908758 
L 234.884465 144.688485 
L 238.737169 146.398303 
L 242.589873 150.011531 
L 246.442578 157.085745 
L 250.295282 169.086801 
L 254.147986 185.296576 
L 258.00069 201.804381 
L 261.853395 214.915998 
L 265.706099 224.004787 
L 269.558803 230.07275 
L 273.411507 234.108039 
L 277.264212 236.791279 
L 281.116916 238.575483 
L 284.96962 239.761878 
L 288.822325 240.550763 
L 292.675029 241.075328 
L 296.527733 241.424133 
L 300.380437 241.65607 
L 304.233142 241.810294 
L 308.085846 241.912845 
L 311.93855 241.981035 
L 315.791254 242.026378 
L 319.643959 242.056528 
L 323.496663 242.076576 
L 327.349367 242.089907 
L 331.202071 242.098772 
L 335.054776 242.104666 
L 338.90748 242.108585 
L 342.760184 242.111192 
L 346.612888 242.112924 
L 350.465593 242.114077 
L 354.318297 242.114843 
L 358.171001 242.115353 
L 362.023705 242.115691 
L 365.87641 242.115917 
L 369.729114 242.116066 
L 373.581818 242.116166 
" style="fill:none;stroke:#2a788e;stroke-linecap:square;stroke-width:1.5;"/>
   </g>
   <g id="line2d_17">
    <path clip-path="url(#p3ddeadd92b)" d="M 69.218182 44.443636 
L 73.070886 44.443636 
L 76.92359 44.443636 
L 80.776295 44.443637 
L 84.628999 44.443637 
L 88.481703 44.443638 
L 92.334407 44.443639 
L 96.187112 44.443642 
L 100.039816 44.44365 
L 103.89252 44.443667 
L 107.745224 44.443706 
L 111.597929 44.443793 
L 115.450633 44.44399 
L 119.303337 44.444437 
L 123.156041 44.445448 
L 127.008746 44.447733 
L 130.86145 44.4529 
L 134.714154 44.464586 
L 138.566858 44.491004 
L 142.419563 44.550703 
L 146.272267 44.685455 
L 150.124971 44.98887 
L 153.977675 45.668254 
L 157.83038 47.170694 
L 161.683084 50.40387 
L 165.535788 56.970647 
L 169.388493 68.86968 
L 173.241197 86.556422 
L 177.093901 106.388597 
L 180.946605 122.678875 
L 184.79931 132.972746 
L 188.652014 138.441205 
L 192.504718 141.080598 
L 196.357422 142.295638 
L 200.210127 142.843075 
L 204.062831 143.088018 
L 207.915535 143.198829 
L 211.768239 143.252704 
L 215.620944 143.287402 
L 219.473648 143.327299 
L 223.326352 143.400394 
L 227.179056 143.557741 
L 231.031761 143.908116 
L 234.884465 144.688201 
L 238.737169 146.398178 
L 242.589873 150.011475 
L 246.442578 157.085721 
L 250.295282 169.086791 
L 254.147986 185.296571 
L 258.00069 201.804378 
L 261.853395 214.915997 
L 265.706099 224.004787 
L 269.558803 230.07275 
L 273.411507 234.108039 
L 277.264212 236.791279 
L 281.116916 238.575483 
L 284.96962 239.761878 
L 288.822325 240.550763 
L 292.675029 241.075328 
L 296.527733 241.424133 
L 300.380437 241.65607 
L 304.233142 241.810294 
L 308.085846 241.912845 
L 311.93855 241.981035 
L 315.791254 242.026378 
L 319.643959 242.056528 
L 323.496663 242.076576 
L 327.349367 242.089907 
L 331.202071 242.098772 
L 335.054776 242.104666 
L 338.90748 242.108585 
L 342.760184 242.111192 
L 346.612888 242.112924 
L 350.465593 242.114077 
L 354.318297 242.114843 
L 358.171001 242.115353 
L 362.023705 242.115691 
L 365.87641 242.115917 
L 369.729114 242.116066 
L 373.581818 242.116166 
" style="fill:none;stroke:#2a788e;stroke-dasharray:3,9;stroke-dashoffset:0;stroke-width:3;"/>
   </g>
   <g id="line2d_18">
    <path clip-path="url(#p3ddeadd92b)" d="M 69.218182 44.443636 
L 73.070886 44.443636 
L 76.92359 44.443636 
L 80.776295 44.443637 
L 84.628999 44.443637 
L 88.481703 44.443638 
L 92.334407 44.443639 
L 96.187112 44.443642 
L 100.039816 44.44365 
L 103.89252 44.443667 
L 107.745224 44.443706 
L 111.597929 44.443793 
L 115.450633 44.44399 
L 119.303337 44.444437 
L 123.156041 44.445448 
L 127.008746 44.447733 
L 130.86145 44.4529 
L 134.714154 44.464586 
L 138.566858 44.491005 
L 142.419563 44.550705 
L 146.272267 44.685459 
L 150.124971 44.988879 
L 153.977675 45.668274 
L 157.83038 47.170739 
L 161.683084 50.403969 
L 165.535788 56.970854 
L 169.388493 68.870092 
L 173.241197 86.557174 
L 177.093901 106.389891 
L 180.946605 122.681141 
L 184.79931 132.977022 
L 188.652014 138.449926 
L 192.504718 141.09932 
L 196.357422 142.336948 
L 200.210127 142.935415 
L 204.062831 143.295528 
L 207.915535 143.665608 
L 211.768239 144.299749 
L 215.620944 145.616376 
L 219.473648 148.40882 
L 223.326352 154.049762 
L 227.179056 164.204945 
L 231.031761 179.223095 
L 234.884465 196.166318 
L 238.737169 210.722874 
L 242.589873 221.165895 
L 246.442578 228.183274 
L 250.295282 232.851632 
L 254.147986 235.95584 
L 258.00069 238.019963 
L 261.853395 239.392488 
L 265.706099 240.30514 
L 269.558803 240.912002 
L 273.411507 241.315531 
L 277.264212 241.583855 
L 281.116916 241.762276 
L 284.96962 241.880915 
L 288.822325 241.959804 
L 292.675029 242.01226 
L 296.527733 242.047141 
L 300.380437 242.070334 
L 304.233142 242.085757 
L 308.085846 242.096012 
L 311.93855 242.102831 
L 315.791254 242.107365 
L 319.643959 242.11038 
L 323.496663 242.112385 
L 327.349367 242.113718 
L 331.202071 242.114604 
L 335.054776 242.115194 
L 338.90748 242.115586 
L 342.760184 242.115846 
L 346.612888 242.11602 
L 350.465593 242.116135 
L 354.318297 242.116212 
L 358.171001 242.116263 
L 362.023705 242.116296 
L 365.87641 242.116319 
L 369.729114 242.116334 
L 373.581818 242.116344 
" style="fill:none;stroke:#21918c;stroke-linecap:square;stroke-width:1.5;"/>
   </g>
   <g id="line2d_19">
    <path clip-path="url(#p3ddeadd92b)" d="M 69.218182 44.443636 
L 73.070886 44.443636 
L 76.92359 44.443636 
L 80.776295 44.443637 
L 84.628999 44.443637 
L 88.481703 44.443638 
L 92.334407 44.443639 
L 96.187112 44.443642 
L 100.039816 44.44365 
L 103.89252 44.443667 
L 107.745224 44.443706 
L 111.597929 44.443793 
L 115.450633 44.44399 
L 119.303337 44.444437 
L 123.156041 44.445448 
L 127.008746 44.447733 
L 130.86145 44.4529 
L 134.714154 44.464586 
L 138.566858 44.491005 
L 142.419563 44.550705 
L 146.272267 44.685459 
L 150.124971 44.988879 
L 153.977675 45.668274 
L 157.83038 47.170738 
L 161.683084 50.403966 
L 165.535788 56.970841 
L 169.388493 68.870041 
L 173.241197 86.557024 
L 177.093901 106.389568 
L 180.946605 122.680625 
L 184.79931 132.976362 
L 188.652014 138.449181 
L 192.504718 141.098533 
L 196.357422 142.336141 
L 200.210127 142.9346 
L 204.062831 143.294711 
L 207.915535 143.664792 
L 211.768239 144.298942 
L 215.620944 145.615588 
L 219.473648 148.408072 
L 223.326352 154.046476 
L 227.179056 164.203492 
L 231.031761 179.222452 
L 234.884465 196.166034 
L 238.737169 210.722749 
L 242.589873 221.16584 
L 246.442578 228.18325 
L 250.295282 232.851621 
L 254.147986 235.955835 
L 258.00069 238.019961 
L 261.853395 239.392487 
L 265.706099 240.30514 
L 269.558803 240.912002 
L 273.411507 241.315531 
L 277.264212 241.583855 
L 281.116916 241.762276 
L 284.96962 241.880915 
L 288.822325 241.959804 
L 292.675029 242.01226 
L 296.527733 242.047141 
L 300.380437 242.070334 
L 304.233142 242.085757 
L 308.085846 242.096012 
L 311.93855 242.102831 
L 315.791254 242.107365 
L 319.643959 242.11038 
L 323.496663 242.112385 
L 327.349367 242.113718 
L 331.202071 242.114604 
L 335.054776 242.115194 
L 338.90748 242.115586 
L 342.760184 242.115846 
L 346.612888 242.11602 
L 350.465593 242.116135 
L 354.318297 242.116212 
L 358.171001 242.116263 
L 362.023705 242.116296 
L 365.87641 242.116319 
L 369.729114 242.116334 
L 373.581818 242.116344 
" style="fill:none;stroke:#21918c;stroke-dasharray:3,9;stroke-dashoffset:0;stroke-width:3;"/>
   </g>
   <g id="line2d_20">
    <path clip-path="url(#p3ddeadd92b)" d="M 69.218182 44.443636 
L 73.070886 44.443636 
L 76.92359 44.443636 
L 80.776295 44.443637 
L 84.628999 44.443637 
L 88.481703 44.443638 
L 92.334407 44.443639 
L 96.187112 44.443642 
L 100.039816 44.44365 
L 103.89252 44.443667 
L 107.745224 44.443706 
L 111.597929 44.443793 
L 115.450633 44.443991 
L 119.303337 44.444439 
L 123.156041 44.445451 
L 127.008746 44.447739 
L 130.86145 44.452916 
L 134.714154 44.464621 
L 138.566858 44.491083 
L 142.419563 44.550881 
L 146.272267 44.685858 
L 150.124971 44.989778 
L 153.977675 45.670295 
L 157.83038 47.175239 
L 161.683084 50.413811 
L 165.535788 56.991615 
L 169.388493 68.911197 
L 173.241197 86.632107 
L 177.093901 106.518837 
L 180.946605 122.906714 
L 184.79931 133.402 
L 188.652014 139.31247 
L 192.504718 142.929614 
L 196.357422 146.269878 
L 200.210127 151.233355 
L 204.062831 159.844834 
L 207.915535 173.369387 
L 211.768239 190.179566 
L 215.620944 205.97776 
L 219.473648 217.888168 
L 223.326352 225.997476 
L 227.179056 231.398112 
L 231.031761 234.98933 
L 234.884465 237.377289 
L 238.737169 238.965146 
L 242.589873 240.020982 
L 246.442578 240.723053 
L 250.295282 241.189891 
L 254.147986 241.500311 
L 258.00069 241.706724 
L 261.853395 241.843976 
L 265.706099 241.935241 
L 269.558803 241.995927 
L 273.411507 242.03628 
L 277.264212 242.063113 
L 281.116916 242.080955 
L 284.96962 242.092819 
L 288.822325 242.100708 
L 292.675029 242.105953 
L 296.527733 242.109441 
L 300.380437 242.111761 
L 304.233142 242.113303 
L 308.085846 242.114328 
L 311.93855 242.11501 
L 315.791254 242.115464 
L 319.643959 242.115765 
L 323.496663 242.115966 
L 327.349367 242.116099 
L 331.202071 242.116188 
L 335.054776 242.116247 
L 338.90748 242.116286 
L 342.760184 242.116312 
L 346.612888 242.116329 
L 350.465593 242.116341 
L 354.318297 242.116348 
L 358.171001 242.116354 
L 362.023705 242.116357 
L 365.87641 242.116359 
L 369.729114 242.116361 
L 373.581818 242.116362 
" style="fill:none;stroke:#22a884;stroke-linecap:square;stroke-width:1.5;"/>
   </g>
   <g id="line2d_21">
    <path clip-path="url(#p3ddeadd92b)" d="M 69.218182 44.443636 
L 73.070886 44.443636 
L 76.92359 44.443636 
L 80.776295 44.443637 
L 84.628999 44.443637 
L 88.481703 44.443638 
L 92.334407 44.443639 
L 96.187112 44.443642 
L 100.039816 44.44365 
L 103.89252 44.443667 
L 107.745224 44.443706 
L 111.597929 44.443793 
L 115.450633 44.443991 
L 119.303337 44.444439 
L 123.156041 44.445451 
L 127.008746 44.447739 
L 130.86145 44.452916 
L 134.714154 44.464621 
L 138.566858 44.491083 
L 142.419563 44.550881 
L 146.272267 44.685858 
L 150.124971 44.989776 
L 153.977675 45.670282 
L 157.83038 47.175176 
L 161.683084 50.413512 
L 165.535788 56.990292 
L 169.388493 68.90617 
L 173.241197 86.617171 
L 177.093901 106.486554 
L 180.946605 122.855315 
L 184.79931 133.336433 
L 188.652014 139.239151 
L 192.504718 142.853509 
L 196.357422 146.194898 
L 200.210127 151.163758 
L 204.062831 159.786063 
L 207.915535 173.326568 
L 211.768239 190.153551 
L 215.620944 205.964195 
L 219.473648 217.881661 
L 223.326352 225.994195 
L 227.179056 231.396661 
L 231.031761 234.988689 
L 234.884465 237.377005 
L 238.737169 238.965021 
L 242.589873 240.020926 
L 246.442578 240.723028 
L 250.295282 241.18988 
L 254.147986 241.500306 
L 258.00069 241.706721 
L 261.853395 241.843975 
L 265.706099 241.935241 
L 269.558803 241.995927 
L 273.411507 242.03628 
L 277.264212 242.063113 
L 281.116916 242.080955 
L 284.96962 242.092819 
L 288.822325 242.100708 
L 292.675029 242.105953 
L 296.527733 242.109441 
L 300.380437 242.111761 
L 304.233142 242.113303 
L 308.085846 242.114328 
L 311.93855 242.11501 
L 315.791254 242.115464 
L 319.643959 242.115765 
L 323.496663 242.115966 
L 327.349367 242.116099 
L 331.202071 242.116188 
L 335.054776 242.116247 
L 338.90748 242.116286 
L 342.760184 242.116312 
L 346.612888 242.116329 
L 350.465593 242.116341 
L 354.318297 242.116348 
L 358.171001 242.116354 
L 362.023705 242.116357 
L 365.87641 242.116359 
L 369.729114 242.116361 
L 373.581818 242.116362 
" style="fill:none;stroke:#22a884;stroke-dasharray:3,9;stroke-dashoffset:0;stroke-width:3;"/>
   </g>
   <g id="line2d_22">
    <path clip-path="url(#p3ddeadd92b)" d="M 69.218182 44.443636 
L 73.070886 44.443636 
L 76.92359 44.443636 
L 80.776295 44.443637 
L 84.628999 44.443637 
L 88.481703 44.443638 
L 92.334407 44.443639 
L 96.187112 44.443643 
L 100.039816 44.443652 
L 103.89252 44.443672 
L 107.745224 44.443717 
L 111.597929 44.443819 
L 115.450633 44.444049 
L 119.303337 44.44457 
L 123.156041 44.445747 
L 127.008746 44.44841 
L 130.86145 44.454432 
L 134.714154 44.468049 
L 138.566858 44.498834 
L 142.419563 44.5684 
L 146.272267 44.725422 
L 150.124971 45.078957 
L 153.977675 45.870474 
L 157.83038 47.620446 
L 161.683084 51.384547 
L 165.535788 59.025473 
L 169.388493 72.883196 
L 173.241197 93.681259 
L 177.093901 118.051576 
L 180.946605 141.239992 
L 184.79931 162.266653 
L 188.652014 182.276934 
L 192.504718 200.212043 
L 196.357422 213.979555 
L 200.210127 223.428052 
L 204.062831 229.70438 
L 207.915535 233.867605 
L 211.768239 236.632733 
L 215.620944 238.470449 
L 219.473648 239.692151 
L 223.326352 240.50446 
L 227.179056 241.044538 
L 231.031761 241.40366 
L 234.884465 241.642456 
L 238.737169 241.801242 
L 242.589873 241.906825 
L 246.442578 241.977033 
L 250.295282 242.023716 
L 254.147986 242.054758 
L 258.00069 242.0754 
L 261.853395 242.089125 
L 265.706099 242.098251 
L 269.558803 242.10432 
L 273.411507 242.108355 
L 277.264212 242.111039 
L 281.116916 242.112823 
L 284.96962 242.114009 
L 288.822325 242.114798 
L 292.675029 242.115323 
L 296.527733 242.115671 
L 300.380437 242.115903 
L 304.233142 242.116058 
L 308.085846 242.11616 
L 311.93855 242.116228 
L 315.791254 242.116274 
L 319.643959 242.116304 
L 323.496663 242.116324 
L 327.349367 242.116337 
L 331.202071 242.116346 
L 335.054776 242.116352 
L 338.90748 242.116356 
L 342.760184 242.116358 
L 346.612888 242.11636 
L 350.465593 242.116361 
L 354.318297 242.116362 
L 358.171001 242.116363 
L 362.023705 242.116363 
L 365.87641 242.116363 
L 369.729114 242.116363 
L 373.581818 242.116363 
" style="fill:none;stroke:#44bf70;stroke-linecap:square;stroke-width:1.5;"/>
   </g>
   <g id="line2d_23">
    <path clip-path="url(#p3ddeadd92b)" d="M 69.218182 44.443636 
L 73.070886 44.443636 
L 76.92359 44.443636 
L 80.776295 44.443637 
L 84.628999 44.443637 
L 88.481703 44.443638 
L 92.334407 44.443639 
L 96.187112 44.443643 
L 100.039816 44.443652 
L 103.89252 44.443672 
L 107.745224 44.443717 
L 111.597929 44.443819 
L 115.450633 44.444049 
L 119.303337 44.44457 
L 123.156041 44.445747 
L 127.008746 44.44841 
L 130.86145 44.454432 
L 134.714154 44.468048 
L 138.566858 44.498833 
L 142.419563 44.56839 
L 146.272267 44.725372 
L 150.124971 45.078704 
L 153.977675 45.869198 
L 157.83038 47.614143 
L 161.683084 51.354682 
L 165.535788 58.895754 
L 169.388493 72.406011 
L 173.241197 92.343251 
L 177.093901 115.421606 
L 180.946605 137.663587 
L 184.79931 158.781227 
L 188.652014 179.741894 
L 192.504718 198.748682 
L 196.357422 213.243315 
L 200.210127 223.079517 
L 204.062831 229.543798 
L 207.915535 233.794729 
L 211.768239 236.599966 
L 215.620944 238.455802 
L 219.473648 239.685629 
L 223.326352 240.501535 
L 227.179056 241.043245 
L 231.031761 241.403089 
L 234.884465 241.642203 
L 238.737169 241.80113 
L 242.589873 241.906776 
L 246.442578 241.977011 
L 250.295282 242.023707 
L 254.147986 242.054754 
L 258.00069 242.075398 
L 261.853395 242.089124 
L 265.706099 242.098251 
L 269.558803 242.10432 
L 273.411507 242.108355 
L 277.264212 242.111039 
L 281.116916 242.112823 
L 284.96962 242.114009 
L 288.822325 242.114798 
L 292.675029 242.115323 
L 296.527733 242.115671 
L 300.380437 242.115903 
L 304.233142 242.116058 
L 308.085846 242.11616 
L 311.93855 242.116228 
L 315.791254 242.116274 
L 319.643959 242.116304 
L 323.496663 242.116324 
L 327.349367 242.116337 
L 331.202071 242.116346 
L 335.054776 242.116352 
L 338.90748 242.116356 
L 342.760184 242.116358 
L 346.612888 242.11636 
L 350.465593 242.116361 
L 354.318297 242.116362 
L 358.171001 242.116363 
L 362.023705 242.116363 
L 365.87641 242.116363 
L 369.729114 242.116363 
L 373.581818 242.116363 
" style="fill:none;stroke:#44bf70;stroke-dasharray:3,9;stroke-dashoffset:0;stroke-width:3;"/>
   </g>
   <g id="line2d_24">
    <path clip-path="url(#p3ddeadd92b)" d="M 69.218182 44.443637 
L 73.070886 44.443637 
L 76.92359 44.443638 
L 80.776295 44.443639 
L 84.628999 44.443643 
L 88.481703 44.443652 
L 92.334407 44.443672 
L 96.187112 44.443716 
L 100.039816 44.443817 
L 103.89252 44.444044 
L 107.745224 44.444559 
L 111.597929 44.445724 
L 115.450633 44.448358 
L 119.303337 44.454314 
L 123.156041 44.467784 
L 127.008746 44.49824 
L 130.86145 44.567086 
L 134.714154 44.722599 
L 138.566858 45.073336 
L 142.419563 45.861589 
L 146.272267 47.6192 
L 150.124971 51.470232 
L 153.977675 59.593916 
L 157.83038 75.439988 
L 161.683084 102.125185 
L 165.535788 137.676405 
L 169.388493 172.952338 
L 173.241197 199.56224 
L 177.093901 216.368882 
L 180.946605 226.25956 
L 184.79931 232.078882 
L 188.652014 235.618281 
L 192.504718 237.851873 
L 196.357422 239.297956 
L 200.210127 240.247441 
L 204.062831 240.875165 
L 207.915535 241.291488 
L 211.768239 241.568001 
L 215.620944 241.751772 
L 219.473648 241.873942 
L 223.326352 241.955173 
L 227.179056 242.009181 
L 231.031761 242.045093 
L 234.884465 242.068973 
L 238.737169 242.084851 
L 242.589873 242.09541 
L 246.442578 242.102431 
L 250.295282 242.107099 
L 254.147986 242.110203 
L 258.00069 242.112267 
L 261.853395 242.11364 
L 265.706099 242.114552 
L 269.558803 242.115159 
L 273.411507 242.115563 
L 277.264212 242.115831 
L 281.116916 242.11601 
L 284.96962 242.116128 
L 288.822325 242.116207 
L 292.675029 242.11626 
L 296.527733 242.116294 
L 300.380437 242.116318 
L 304.233142 242.116333 
L 308.085846 242.116343 
L 311.93855 242.11635 
L 315.791254 242.116355 
L 319.643959 242.116358 
L 323.496663 242.11636 
L 327.349367 242.116361 
L 331.202071 242.116362 
L 335.054776 242.116362 
L 338.90748 242.116363 
L 342.760184 242.116363 
L 346.612888 242.116363 
L 350.465593 242.116363 
L 354.318297 242.116363 
L 358.171001 242.116364 
L 362.023705 242.116364 
L 365.87641 242.116364 
L 369.729114 242.116364 
L 373.581818 242.116364 
" style="fill:none;stroke:#7ad151;stroke-linecap:square;stroke-width:1.5;"/>
   </g>
   <g id="line2d_25">
    <path clip-path="url(#p3ddeadd92b)" d="M 69.218182 44.443637 
L 73.070886 44.443637 
L 76.92359 44.443638 
L 80.776295 44.443639 
L 84.628999 44.443643 
L 88.481703 44.443652 
L 92.334407 44.443672 
L 96.187112 44.443716 
L 100.039816 44.443817 
L 103.89252 44.444044 
L 107.745224 44.444559 
L 111.597929 44.445724 
L 115.450633 44.448358 
L 119.303337 44.454314 
L 123.156041 44.467783 
L 127.008746 44.498239 
L 130.86145 44.567079 
L 134.714154 44.722565 
L 138.566858 45.073161 
L 142.419563 45.860705 
L 146.272267 47.614808 
L 150.124971 51.44915 
L 153.977675 59.500062 
L 157.83038 75.080897 
L 161.683084 101.077857 
L 165.535788 135.623454 
L 169.388493 170.340591 
L 173.241197 197.156656 
L 177.093901 214.51804 
L 180.946605 225.011431 
L 184.79931 231.33808 
L 188.652014 235.221714 
L 192.504718 237.654013 
L 196.357422 239.203542 
L 200.210127 240.20362 
L 204.062831 240.855175 
L 207.915535 241.282468 
L 211.768239 241.563959 
L 215.620944 241.74997 
L 219.473648 241.873141 
L 223.326352 241.954815 
L 227.179056 242.009023 
L 231.031761 242.045023 
L 234.884465 242.068942 
L 238.737169 242.084838 
L 242.589873 242.095404 
L 246.442578 242.102428 
L 250.295282 242.107098 
L 254.147986 242.110203 
L 258.00069 242.112267 
L 261.853395 242.11364 
L 265.706099 242.114552 
L 269.558803 242.115159 
L 273.411507 242.115563 
L 277.264212 242.115831 
L 281.116916 242.11601 
L 284.96962 242.116128 
L 288.822325 242.116207 
L 292.675029 242.11626 
L 296.527733 242.116294 
L 300.380437 242.116318 
L 304.233142 242.116333 
L 308.085846 242.116343 
L 311.93855 242.11635 
L 315.791254 242.116355 
L 319.643959 242.116358 
L 323.496663 242.11636 
L 327.349367 242.116361 
L 331.202071 242.116362 
L 335.054776 242.116362 
L 338.90748 242.116363 
L 342.760184 242.116363 
L 346.612888 242.116363 
L 350.465593 242.116363 
L 354.318297 242.116363 
L 358.171001 242.116364 
L 362.023705 242.116364 
L 365.87641 242.116364 
L 369.729114 242.116364 
L 373.581818 242.116364 
" style="fill:none;stroke:#7ad151;stroke-dasharray:3,9;stroke-dashoffset:0;stroke-width:3;"/>
   </g>
   <g id="line2d_26">
    <path clip-path="url(#p3ddeadd92b)" d="M 69.218182 44.443654 
L 73.070886 44.443676 
L 76.92359 44.443726 
L 80.776295 44.443838 
L 84.628999 44.444093 
L 88.481703 44.44467 
L 92.334407 44.445973 
L 96.187112 44.448922 
L 100.039816 44.45559 
L 103.89252 44.470668 
L 107.745224 44.504761 
L 111.597929 44.581817 
L 115.450633 44.755832 
L 119.303337 45.148069 
L 123.156041 46.028442 
L 127.008746 47.985759 
L 130.86145 52.247111 
L 134.714154 61.116125 
L 138.566858 77.966216 
L 142.419563 105.106679 
L 146.272267 139.218451 
L 150.124971 171.494826 
L 153.977675 195.883906 
L 157.83038 212.435685 
L 161.683084 223.354068 
L 165.535788 230.470103 
L 169.388493 235.021802 
L 173.241197 237.848251 
L 177.093901 239.54129 
L 180.946605 240.530681 
L 184.79931 241.112616 
L 188.652014 241.466555 
L 192.504718 241.689915 
L 196.357422 241.834523 
L 200.210127 241.929471 
L 204.062831 241.992244 
L 207.915535 242.033876 
L 211.768239 242.061527 
L 215.620944 242.079904 
L 219.473648 242.092122 
L 223.326352 242.100245 
L 227.179056 242.105645 
L 231.031761 242.109237 
L 234.884465 242.111625 
L 238.737169 242.113212 
L 242.589873 242.114268 
L 246.442578 242.11497 
L 250.295282 242.115437 
L 254.147986 242.115748 
L 258.00069 242.115954 
L 261.853395 242.116091 
L 265.706099 242.116183 
L 269.558803 242.116243 
L 273.411507 242.116284 
L 277.264212 242.11631 
L 281.116916 242.116328 
L 284.96962 242.11634 
L 288.822325 242.116348 
L 292.675029 242.116353 
L 296.527733 242.116357 
L 300.380437 242.116359 
L 304.233142 242.116361 
L 308.085846 242.116362 
L 311.93855 242.116362 
L 315.791254 242.116363 
L 319.643959 242.116363 
L 323.496663 242.116363 
L 327.349367 242.116363 
L 331.202071 242.116363 
L 335.054776 242.116364 
L 338.90748 242.116364 
L 342.760184 242.116364 
L 346.612888 242.116364 
L 350.465593 242.116364 
L 354.318297 242.116364 
L 358.171001 242.116364 
L 362.023705 242.116364 
L 365.87641 242.116364 
L 369.729114 242.116364 
L 373.581818 242.116364 
" style="fill:none;stroke:#bddf26;stroke-linecap:square;stroke-width:1.5;"/>
   </g>
   <g id="line2d_27">
    <path clip-path="url(#p3ddeadd92b)" d="M 69.218182 44.443654 
L 73.070886 44.443676 
L 76.92359 44.443726 
L 80.776295 44.443838 
L 84.628999 44.444093 
L 88.481703 44.44467 
L 92.334407 44.445973 
L 96.187112 44.448922 
L 100.039816 44.45559 
L 103.89252 44.470668 
L 107.745224 44.504763 
L 111.597929 44.581825 
L 115.450633 44.755875 
L 119.303337 45.148284 
L 123.156041 46.029532 
L 127.008746 47.991206 
L 130.86145 52.273541 
L 134.714154 61.236665 
L 138.566858 78.451714 
L 142.419563 106.674778 
L 146.272267 142.8855 
L 150.124971 177.426301 
L 153.977675 202.757574 
L 157.83038 218.580768 
L 161.683084 227.887473 
L 165.535788 233.340556 
L 169.388493 236.596118 
L 173.241197 238.587496 
L 177.093901 239.833037 
L 180.946605 240.626106 
L 184.79931 241.137837 
L 188.652014 241.47119 
L 192.504718 241.689788 
L 196.357422 241.833789 
L 200.210127 241.928942 
L 204.062831 241.991949 
L 207.915535 242.033728 
L 211.768239 242.061456 
L 215.620944 242.079872 
L 219.473648 242.092106 
L 223.326352 242.100238 
L 227.179056 242.105642 
L 231.031761 242.109235 
L 234.884465 242.111624 
L 238.737169 242.113212 
L 242.589873 242.114268 
L 246.442578 242.11497 
L 250.295282 242.115437 
L 254.147986 242.115748 
L 258.00069 242.115954 
L 261.853395 242.116091 
L 265.706099 242.116183 
L 269.558803 242.116243 
L 273.411507 242.116284 
L 277.264212 242.11631 
L 281.116916 242.116328 
L 284.96962 242.11634 
L 288.822325 242.116348 
L 292.675029 242.116353 
L 296.527733 242.116357 
L 300.380437 242.116359 
L 304.233142 242.116361 
L 308.085846 242.116362 
L 311.93855 242.116362 
L 315.791254 242.116363 
L 319.643959 242.116363 
L 323.496663 242.116363 
L 327.349367 242.116363 
L 331.202071 242.116363 
L 335.054776 242.116364 
L 338.90748 242.116364 
L 342.760184 242.116364 
L 346.612888 242.116364 
L 350.465593 242.116364 
L 354.318297 242.116364 
L 358.171001 242.116364 
L 362.023705 242.116364 
L 365.87641 242.116364 
L 369.729114 242.116364 
L 373.581818 242.116364 
" style="fill:none;stroke:#bddf26;stroke-dasharray:3,9;stroke-dashoffset:0;stroke-width:3;"/>
   </g>
   <g id="line2d_28">
    <path clip-path="url(#p3ddeadd92b)" d="M 69.218182 44.445293 
L 73.070886 44.447384 
L 76.92359 44.452113 
L 80.776295 44.462806 
L 84.628999 44.486985 
L 88.481703 44.541643 
L 92.334407 44.665131 
L 96.187112 44.943738 
L 100.039816 45.570397 
L 103.89252 46.970249 
L 107.745224 50.049806 
L 111.597929 56.602624 
L 115.450633 69.611229 
L 119.303337 92.232048 
L 123.156041 123.908273 
L 127.008746 157.46005 
L 130.86145 184.882491 
L 134.714154 204.111324 
L 138.566858 216.972557 
L 142.419563 225.524547 
L 146.272267 231.208652 
L 150.124971 234.984586 
L 153.977675 237.490003 
L 157.83038 239.14826 
L 161.683084 240.240134 
L 165.535788 240.951738 
L 169.388493 241.406907 
L 173.241197 241.689552 
L 177.093901 241.858856 
L 180.946605 241.957795 
L 184.79931 242.015989 
L 188.652014 242.051383 
L 192.504718 242.073719 
L 196.357422 242.08818 
L 200.210127 242.097674 
L 204.062831 242.103952 
L 207.915535 242.108115 
L 211.768239 242.11088 
L 215.620944 242.112718 
L 219.473648 242.113939 
L 223.326352 242.114752 
L 227.179056 242.115292 
L 231.031761 242.115651 
L 234.884465 242.11589 
L 238.737169 242.116049 
L 242.589873 242.116154 
L 246.442578 242.116224 
L 250.295282 242.116271 
L 254.147986 242.116302 
L 258.00069 242.116323 
L 261.853395 242.116336 
L 265.706099 242.116346 
L 269.558803 242.116352 
L 273.411507 242.116356 
L 277.264212 242.116358 
L 281.116916 242.11636 
L 284.96962 242.116361 
L 288.822325 242.116362 
L 292.675029 242.116363 
L 296.527733 242.116363 
L 300.380437 242.116363 
L 304.233142 242.116363 
L 308.085846 242.116363 
L 311.93855 242.116364 
L 315.791254 242.116364 
L 319.643959 242.116364 
L 323.496663 242.116364 
L 327.349367 242.116364 
L 331.202071 242.116364 
L 335.054776 242.116364 
L 338.90748 242.116364 
L 342.760184 242.116364 
L 346.612888 242.116364 
L 350.465593 242.116364 
L 354.318297 242.116364 
L 358.171001 242.116364 
L 362.023705 242.116364 
L 365.87641 242.116364 
L 369.729114 242.116364 
L 373.581818 242.116364 
" style="fill:none;stroke:#fde725;stroke-linecap:square;stroke-width:1.5;"/>
   </g>
   <g id="line2d_29">
    <path clip-path="url(#p3ddeadd92b)" d="M 69.218182 44.445293 
L 73.070886 44.447384 
L 76.92359 44.452113 
L 80.776295 44.462806 
L 84.628999 44.486985 
L 88.481703 44.541648 
L 92.334407 44.665155 
L 96.187112 44.943863 
L 100.039816 45.571032 
L 103.89252 46.973443 
L 107.745224 50.065554 
L 111.597929 56.676923 
L 115.450633 69.931181 
L 119.303337 93.391704 
L 123.156041 127.096011 
L 127.008746 163.628332 
L 130.86145 193.347565 
L 134.714154 212.974477 
L 138.566858 224.691768 
L 142.419563 231.512163 
L 146.272267 235.525114 
L 150.124971 237.942186 
L 153.977675 239.434069 
L 157.83038 240.374248 
L 161.683084 240.976327 
L 165.535788 241.366435 
L 169.388493 241.6213 
L 173.241197 241.788765 
L 177.093901 241.899232 
L 180.946605 241.972295 
L 184.79931 242.020703 
L 188.652014 242.052816 
L 192.504718 242.074135 
L 196.357422 242.088296 
L 200.210127 242.097705 
L 204.062831 242.103959 
L 207.915535 242.108116 
L 211.768239 242.11088 
L 215.620944 242.112718 
L 219.473648 242.113939 
L 223.326352 242.114752 
L 227.179056 242.115292 
L 231.031761 242.115651 
L 234.884465 242.11589 
L 238.737169 242.116049 
L 242.589873 242.116154 
L 246.442578 242.116224 
L 250.295282 242.116271 
L 254.147986 242.116302 
L 258.00069 242.116323 
L 261.853395 242.116336 
L 265.706099 242.116346 
L 269.558803 242.116352 
L 273.411507 242.116356 
L 277.264212 242.116358 
L 281.116916 242.11636 
L 284.96962 242.116361 
L 288.822325 242.116362 
L 292.675029 242.116363 
L 296.527733 242.116363 
L 300.380437 242.116363 
L 304.233142 242.116363 
L 308.085846 242.116363 
L 311.93855 242.116364 
L 315.791254 242.116364 
L 319.643959 242.116364 
L 323.496663 242.116364 
L 327.349367 242.116364 
L 331.202071 242.116364 
L 335.054776 242.116364 
L 338.90748 242.116364 
L 342.760184 242.116364 
L 346.612888 242.116364 
L 350.465593 242.116364 
L 354.318297 242.116364 
L 358.171001 242.116364 
L 362.023705 242.116364 
L 365.87641 242.116364 
L 369.729114 242.116364 
L 373.581818 242.116364 
" style="fill:none;stroke:#fde725;stroke-dasharray:3,9;stroke-dashoffset:0;stroke-width:3;"/>
   </g>
   <g id="patch_3">
    <path d="M 54 252 
L 54 34.56 
" style="fill:none;stroke:#ffffff;stroke-linecap:square;stroke-linejoin:miter;stroke-width:0.8;"/>
   </g>
   <g id="patch_4">
    <path d="M 388.8 252 
L 388.8 34.56 
" style="fill:none;stroke:#ffffff;stroke-linecap:square;stroke-linejoin:miter;stroke-width:0.8;"/>
   </g>
   <g id="patch_5">
    <path d="M 54 252 
L 388.8 252 
" style="fill:none;stroke:#ffffff;stroke-linecap:square;stroke-linejoin:miter;stroke-width:0.8;"/>
   </g>
   <g id="patch_6">
    <path d="M 54 34.56 
L 388.8 34.56 
" style="fill:none;stroke:#ffffff;stroke-linecap:square;stroke-linejoin:miter;stroke-width:0.8;"/>
   </g>
   <g id="text_16">
    <!-- $\theta_{VH}$=0.25$\pi$, $l_v=$$1.00 \times 10^{6}$nm -->
    <g style="fill:#ffffff;" transform="translate(133.44 28.56)scale(0.12 -0.12)">
     <defs>
      <path d="M 2913 2219 
L 925 2219 
Q 791 1284 928 888 
Q 1100 400 1566 400 
Q 2034 400 2391 891 
Q 2703 1322 2913 2219 
z
M 3009 2750 
Q 3094 3638 2984 3950 
Q 2813 4444 2353 4444 
Q 1875 4444 1525 3956 
Q 1250 3563 1034 2750 
L 3009 2750 
z
M 2444 4913 
Q 3194 4913 3494 4250 
Q 3794 3591 3566 2422 
Q 3341 1256 2781 594 
Q 2225 -72 1475 -72 
Q 722 -72 425 594 
Q 128 1256 353 2422 
Q 581 3591 1134 4250 
Q 1691 4913 2444 4913 
z
" id="DejaVuSans-Oblique-3b8" transform="scale(0.015625)"/>
      <path d="M 1319 0 
L 500 4666 
L 1119 4666 
L 1797 653 
L 4063 4666 
L 4750 4666 
L 2053 0 
L 1319 0 
z
" id="DejaVuSans-Oblique-56" transform="scale(0.015625)"/>
      <path d="M 1081 4666 
L 1716 4666 
L 1344 2753 
L 3634 2753 
L 4006 4666 
L 4641 4666 
L 3731 0 
L 3097 0 
L 3531 2222 
L 1241 2222 
L 806 0 
L 172 0 
L 1081 4666 
z
" id="DejaVuSans-Oblique-48" transform="scale(0.015625)"/>
      <path d="M 678 2906 
L 4684 2906 
L 4684 2381 
L 678 2381 
L 678 2906 
z
M 678 1631 
L 4684 1631 
L 4684 1100 
L 678 1100 
L 678 1631 
z
" id="DejaVuSans-3d" transform="scale(0.015625)"/>
      <path d="M 584 3500 
L 3938 3500 
L 3825 2925 
L 3384 2925 
L 2966 775 
Q 2922 550 2981 450 
Q 3038 353 3209 353 
Q 3256 353 3325 363 
Q 3397 369 3419 372 
L 3338 -44 
Q 3222 -84 3103 -103 
Q 2981 -122 2866 -122 
Q 2491 -122 2388 81 
Q 2284 288 2391 838 
L 2797 2925 
L 1506 2925 
L 938 0 
L 350 0 
L 919 2925 
L 472 2925 
L 584 3500 
z
" id="DejaVuSans-Oblique-3c0" transform="scale(0.015625)"/>
      <path d="M 750 794 
L 1409 794 
L 1409 256 
L 897 -744 
L 494 -744 
L 750 256 
L 750 794 
z
" id="DejaVuSans-2c" transform="scale(0.015625)"/>
      <path d="M 1172 4863 
L 1747 4863 
L 800 0 
L 225 0 
L 1172 4863 
z
" id="DejaVuSans-Oblique-6c" transform="scale(0.015625)"/>
      <path d="M 459 3500 
L 1069 3500 
L 1581 525 
L 3256 3500 
L 3866 3500 
L 1875 0 
L 1100 0 
L 459 3500 
z
" id="DejaVuSans-Oblique-76" transform="scale(0.015625)"/>
      <path d="M 4488 3438 
L 3059 2003 
L 4488 575 
L 4116 197 
L 2681 1631 
L 1247 197 
L 878 575 
L 2303 2003 
L 878 3438 
L 1247 3816 
L 2681 2381 
L 4116 3816 
L 4488 3438 
z
" id="DejaVuSans-d7" transform="scale(0.015625)"/>
      <path d="M 3513 2113 
L 3513 0 
L 2938 0 
L 2938 2094 
Q 2938 2591 2744 2837 
Q 2550 3084 2163 3084 
Q 1697 3084 1428 2787 
Q 1159 2491 1159 1978 
L 1159 0 
L 581 0 
L 581 3500 
L 1159 3500 
L 1159 2956 
Q 1366 3272 1645 3428 
Q 1925 3584 2291 3584 
Q 2894 3584 3203 3211 
Q 3513 2838 3513 2113 
z
" id="DejaVuSans-6e" transform="scale(0.015625)"/>
     </defs>
     <use transform="translate(0 0.765625)" xlink:href="#DejaVuSans-Oblique-3b8"/>
     <use transform="translate(61.181641 -15.640625)scale(0.7)" xlink:href="#DejaVuSans-Oblique-56"/>
     <use transform="translate(109.067383 -15.640625)scale(0.7)" xlink:href="#DejaVuSans-Oblique-48"/>
     <use transform="translate(164.438477 0.765625)" xlink:href="#DejaVuSans-3d"/>
     <use transform="translate(248.227539 0.765625)" xlink:href="#DejaVuSans-30"/>
     <use transform="translate(311.850586 0.765625)" xlink:href="#DejaVuSans-2e"/>
     <use transform="translate(338.137695 0.765625)" xlink:href="#DejaVuSans-32"/>
     <use transform="translate(401.760742 0.765625)" xlink:href="#DejaVuSans-35"/>
     <use transform="translate(465.383789 0.765625)" xlink:href="#DejaVuSans-Oblique-3c0"/>
     <use transform="translate(525.588867 0.765625)" xlink:href="#DejaVuSans-2c"/>
     <use transform="translate(557.375977 0.765625)" xlink:href="#DejaVuSans-20"/>
     <use transform="translate(589.163086 0.765625)" xlink:href="#DejaVuSans-Oblique-6c"/>
     <use transform="translate(616.946289 -15.640625)scale(0.7)" xlink:href="#DejaVuSans-Oblique-76"/>
     <use transform="translate(680.588867 0.765625)" xlink:href="#DejaVuSans-3d"/>
     <use transform="translate(783.860352 0.765625)" xlink:href="#DejaVuSans-31"/>
     <use transform="translate(847.483398 0.765625)" xlink:href="#DejaVuSans-2e"/>
     <use transform="translate(879.270508 0.765625)" xlink:href="#DejaVuSans-30"/>
     <use transform="translate(942.893555 0.765625)" xlink:href="#DejaVuSans-30"/>
     <use transform="translate(1025.999023 0.765625)" xlink:href="#DejaVuSans-d7"/>
     <use transform="translate(1129.270508 0.765625)" xlink:href="#DejaVuSans-31"/>
     <use transform="translate(1192.893555 0.765625)" xlink:href="#DejaVuSans-30"/>
     <use transform="translate(1257.473633 39.046875)scale(0.7)" xlink:href="#DejaVuSans-36"/>
     <use transform="translate(1304.744141 0.765625)" xlink:href="#DejaVuSans-6e"/>
     <use transform="translate(1368.123047 0.765625)" xlink:href="#DejaVuSans-6d"/>
    </g>
   </g>
   <g id="legend_1">
    <g id="patch_7">
     <path d="M 349.92 212.831563 
L 434.02 212.831563 
Q 436.02 212.831563 436.02 210.831563 
L 436.02 79.728438 
Q 436.02 77.728438 434.02 77.728438 
L 349.92 77.728438 
Q 347.92 77.728438 347.92 79.728438 
L 347.92 210.831563 
Q 347.92 212.831563 349.92 212.831563 
z
" style="opacity:0.5;stroke:#000000;stroke-linejoin:miter;"/>
    </g>
    <g id="patch_8">
     <path d="M 347.92 210.831563 
L 432.02 210.831563 
Q 434.02 210.831563 434.02 208.831563 
L 434.02 77.728438 
Q 434.02 75.728438 432.02 75.728438 
L 347.92 75.728438 
Q 345.92 75.728438 345.92 77.728438 
L 345.92 208.831563 
Q 345.92 210.831563 347.92 210.831563 
z
" style="stroke:#cccccc;stroke-linejoin:miter;"/>
    </g>
    <g id="text_17">
     <!-- width [nm] -->
     <g style="fill:#ffffff;" transform="translate(362.659062 87.326875)scale(0.1 -0.1)">
      <defs>
       <path d="M 269 3500 
L 844 3500 
L 1563 769 
L 2278 3500 
L 2956 3500 
L 3675 769 
L 4391 3500 
L 4966 3500 
L 4050 0 
L 3372 0 
L 2619 2869 
L 1863 0 
L 1184 0 
L 269 3500 
z
" id="DejaVuSans-77" transform="scale(0.015625)"/>
       <path d="M 603 3500 
L 1178 3500 
L 1178 0 
L 603 0 
L 603 3500 
z
M 603 4863 
L 1178 4863 
L 1178 4134 
L 603 4134 
L 603 4863 
z
" id="DejaVuSans-69" transform="scale(0.015625)"/>
       <path d="M 2906 2969 
L 2906 4863 
L 3481 4863 
L 3481 0 
L 2906 0 
L 2906 525 
Q 2725 213 2448 61 
Q 2172 -91 1784 -91 
Q 1150 -91 751 415 
Q 353 922 353 1747 
Q 353 2572 751 3078 
Q 1150 3584 1784 3584 
Q 2172 3584 2448 3432 
Q 2725 3281 2906 2969 
z
M 947 1747 
Q 947 1113 1208 752 
Q 1469 391 1925 391 
Q 2381 391 2643 752 
Q 2906 1113 2906 1747 
Q 2906 2381 2643 2742 
Q 2381 3103 1925 3103 
Q 1469 3103 1208 2742 
Q 947 2381 947 1747 
z
" id="DejaVuSans-64" transform="scale(0.015625)"/>
       <path d="M 1172 4494 
L 1172 3500 
L 2356 3500 
L 2356 3053 
L 1172 3053 
L 1172 1153 
Q 1172 725 1289 603 
Q 1406 481 1766 481 
L 2356 481 
L 2356 0 
L 1766 0 
Q 1100 0 847 248 
Q 594 497 594 1153 
L 594 3053 
L 172 3053 
L 172 3500 
L 594 3500 
L 594 4494 
L 1172 4494 
z
" id="DejaVuSans-74" transform="scale(0.015625)"/>
       <path d="M 3513 2113 
L 3513 0 
L 2938 0 
L 2938 2094 
Q 2938 2591 2744 2837 
Q 2550 3084 2163 3084 
Q 1697 3084 1428 2787 
Q 1159 2491 1159 1978 
L 1159 0 
L 581 0 
L 581 4863 
L 1159 4863 
L 1159 2956 
Q 1366 3272 1645 3428 
Q 1925 3584 2291 3584 
Q 2894 3584 3203 3211 
Q 3513 2838 3513 2113 
z
" id="DejaVuSans-68" transform="scale(0.015625)"/>
      </defs>
      <use xlink:href="#DejaVuSans-77"/>
      <use x="81.787109" xlink:href="#DejaVuSans-69"/>
      <use x="109.570312" xlink:href="#DejaVuSans-64"/>
      <use x="173.046875" xlink:href="#DejaVuSans-74"/>
      <use x="212.255859" xlink:href="#DejaVuSans-68"/>
      <use x="275.634766" xlink:href="#DejaVuSans-20"/>
      <use x="307.421875" xlink:href="#DejaVuSans-5b"/>
      <use x="346.435547" xlink:href="#DejaVuSans-6e"/>
      <use x="409.814453" xlink:href="#DejaVuSans-6d"/>
      <use x="507.226562" xlink:href="#DejaVuSans-5d"/>
     </g>
    </g>
    <g id="line2d_30">
     <path d="M 349.92 98.505 
L 369.92 98.505 
" style="fill:none;stroke:#355f8d;stroke-linecap:square;stroke-width:1.5;"/>
    </g>
    <g id="line2d_31"/>
    <g id="text_18">
     <!-- $1.00 \times 10^{2}$ -->
     <g style="fill:#ffffff;" transform="translate(377.92 102.005)scale(0.1 -0.1)">
      <use transform="translate(0 0.765625)" xlink:href="#DejaVuSans-31"/>
      <use transform="translate(63.623047 0.765625)" xlink:href="#DejaVuSans-2e"/>
      <use transform="translate(95.410156 0.765625)" xlink:href="#DejaVuSans-30"/>
      <use transform="translate(159.033203 0.765625)" xlink:href="#DejaVuSans-30"/>
      <use transform="translate(242.138672 0.765625)" xlink:href="#DejaVuSans-d7"/>
      <use transform="translate(345.410156 0.765625)" xlink:href="#DejaVuSans-31"/>
      <use transform="translate(409.033203 0.765625)" xlink:href="#DejaVuSans-30"/>
      <use transform="translate(473.613281 39.046875)scale(0.7)" xlink:href="#DejaVuSans-32"/>
     </g>
    </g>
    <g id="line2d_32">
     <path d="M 349.92 113.183125 
L 369.92 113.183125 
" style="fill:none;stroke:#2a788e;stroke-linecap:square;stroke-width:1.5;"/>
    </g>
    <g id="line2d_33"/>
    <g id="text_19">
     <!-- $1.00 \times 10^{3}$ -->
     <g style="fill:#ffffff;" transform="translate(377.92 116.683125)scale(0.1 -0.1)">
      <use transform="translate(0 0.765625)" xlink:href="#DejaVuSans-31"/>
      <use transform="translate(63.623047 0.765625)" xlink:href="#DejaVuSans-2e"/>
      <use transform="translate(95.410156 0.765625)" xlink:href="#DejaVuSans-30"/>
      <use transform="translate(159.033203 0.765625)" xlink:href="#DejaVuSans-30"/>
      <use transform="translate(242.138672 0.765625)" xlink:href="#DejaVuSans-d7"/>
      <use transform="translate(345.410156 0.765625)" xlink:href="#DejaVuSans-31"/>
      <use transform="translate(409.033203 0.765625)" xlink:href="#DejaVuSans-30"/>
      <use transform="translate(473.613281 39.046875)scale(0.7)" xlink:href="#DejaVuSans-33"/>
     </g>
    </g>
    <g id="line2d_34">
     <path d="M 349.92 127.86125 
L 369.92 127.86125 
" style="fill:none;stroke:#21918c;stroke-linecap:square;stroke-width:1.5;"/>
    </g>
    <g id="line2d_35"/>
    <g id="text_20">
     <!-- $1.00 \times 10^{4}$ -->
     <g style="fill:#ffffff;" transform="translate(377.92 131.36125)scale(0.1 -0.1)">
      <use transform="translate(0 0.684375)" xlink:href="#DejaVuSans-31"/>
      <use transform="translate(63.623047 0.684375)" xlink:href="#DejaVuSans-2e"/>
      <use transform="translate(95.410156 0.684375)" xlink:href="#DejaVuSans-30"/>
      <use transform="translate(159.033203 0.684375)" xlink:href="#DejaVuSans-30"/>
      <use transform="translate(242.138672 0.684375)" xlink:href="#DejaVuSans-d7"/>
      <use transform="translate(345.410156 0.684375)" xlink:href="#DejaVuSans-31"/>
      <use transform="translate(409.033203 0.684375)" xlink:href="#DejaVuSans-30"/>
      <use transform="translate(473.613281 38.965625)scale(0.7)" xlink:href="#DejaVuSans-34"/>
     </g>
    </g>
    <g id="line2d_36">
     <path d="M 349.92 142.539375 
L 369.92 142.539375 
" style="fill:none;stroke:#22a884;stroke-linecap:square;stroke-width:1.5;"/>
    </g>
    <g id="line2d_37"/>
    <g id="text_21">
     <!-- $1.00 \times 10^{5}$ -->
     <g style="fill:#ffffff;" transform="translate(377.92 146.039375)scale(0.1 -0.1)">
      <use transform="translate(0 0.684375)" xlink:href="#DejaVuSans-31"/>
      <use transform="translate(63.623047 0.684375)" xlink:href="#DejaVuSans-2e"/>
      <use transform="translate(95.410156 0.684375)" xlink:href="#DejaVuSans-30"/>
      <use transform="translate(159.033203 0.684375)" xlink:href="#DejaVuSans-30"/>
      <use transform="translate(242.138672 0.684375)" xlink:href="#DejaVuSans-d7"/>
      <use transform="translate(345.410156 0.684375)" xlink:href="#DejaVuSans-31"/>
      <use transform="translate(409.033203 0.684375)" xlink:href="#DejaVuSans-30"/>
      <use transform="translate(473.613281 38.965625)scale(0.7)" xlink:href="#DejaVuSans-35"/>
     </g>
    </g>
    <g id="line2d_38">
     <path d="M 349.92 157.2175 
L 369.92 157.2175 
" style="fill:none;stroke:#44bf70;stroke-linecap:square;stroke-width:1.5;"/>
    </g>
    <g id="line2d_39"/>
    <g id="text_22">
     <!-- $1.00 \times 10^{6}$ -->
     <g style="fill:#ffffff;" transform="translate(377.92 160.7175)scale(0.1 -0.1)">
      <use transform="translate(0 0.765625)" xlink:href="#DejaVuSans-31"/>
      <use transform="translate(63.623047 0.765625)" xlink:href="#DejaVuSans-2e"/>
      <use transform="translate(95.410156 0.765625)" xlink:href="#DejaVuSans-30"/>
      <use transform="translate(159.033203 0.765625)" xlink:href="#DejaVuSans-30"/>
      <use transform="translate(242.138672 0.765625)" xlink:href="#DejaVuSans-d7"/>
      <use transform="translate(345.410156 0.765625)" xlink:href="#DejaVuSans-31"/>
      <use transform="translate(409.033203 0.765625)" xlink:href="#DejaVuSans-30"/>
      <use transform="translate(473.613281 39.046875)scale(0.7)" xlink:href="#DejaVuSans-36"/>
     </g>
    </g>
    <g id="line2d_40">
     <path d="M 349.92 171.895625 
L 369.92 171.895625 
" style="fill:none;stroke:#7ad151;stroke-linecap:square;stroke-width:1.5;"/>
    </g>
    <g id="line2d_41"/>
    <g id="text_23">
     <!-- $1.00 \times 10^{7}$ -->
     <g style="fill:#ffffff;" transform="translate(377.92 175.395625)scale(0.1 -0.1)">
      <use transform="translate(0 0.684375)" xlink:href="#DejaVuSans-31"/>
      <use transform="translate(63.623047 0.684375)" xlink:href="#DejaVuSans-2e"/>
      <use transform="translate(95.410156 0.684375)" xlink:href="#DejaVuSans-30"/>
      <use transform="translate(159.033203 0.684375)" xlink:href="#DejaVuSans-30"/>
      <use transform="translate(242.138672 0.684375)" xlink:href="#DejaVuSans-d7"/>
      <use transform="translate(345.410156 0.684375)" xlink:href="#DejaVuSans-31"/>
      <use transform="translate(409.033203 0.684375)" xlink:href="#DejaVuSans-30"/>
      <use transform="translate(473.613281 38.965625)scale(0.7)" xlink:href="#DejaVuSans-37"/>
     </g>
    </g>
    <g id="line2d_42">
     <path d="M 349.92 186.57375 
L 369.92 186.57375 
" style="fill:none;stroke:#bddf26;stroke-linecap:square;stroke-width:1.5;"/>
    </g>
    <g id="line2d_43"/>
    <g id="text_24">
     <!-- $1.00 \times 10^{8}$ -->
     <g style="fill:#ffffff;" transform="translate(377.92 190.07375)scale(0.1 -0.1)">
      <use transform="translate(0 0.765625)" xlink:href="#DejaVuSans-31"/>
      <use transform="translate(63.623047 0.765625)" xlink:href="#DejaVuSans-2e"/>
      <use transform="translate(95.410156 0.765625)" xlink:href="#DejaVuSans-30"/>
      <use transform="translate(159.033203 0.765625)" xlink:href="#DejaVuSans-30"/>
      <use transform="translate(242.138672 0.765625)" xlink:href="#DejaVuSans-d7"/>
      <use transform="translate(345.410156 0.765625)" xlink:href="#DejaVuSans-31"/>
      <use transform="translate(409.033203 0.765625)" xlink:href="#DejaVuSans-30"/>
      <use transform="translate(473.613281 39.046875)scale(0.7)" xlink:href="#DejaVuSans-38"/>
     </g>
    </g>
    <g id="line2d_44">
     <path d="M 349.92 201.251875 
L 369.92 201.251875 
" style="fill:none;stroke:#fde725;stroke-linecap:square;stroke-width:1.5;"/>
    </g>
    <g id="line2d_45"/>
    <g id="text_25">
     <!-- $1.00 \times 10^{9}$ -->
     <g style="fill:#ffffff;" transform="translate(377.92 204.751875)scale(0.1 -0.1)">
      <use transform="translate(0 0.765625)" xlink:href="#DejaVuSans-31"/>
      <use transform="translate(63.623047 0.765625)" xlink:href="#DejaVuSans-2e"/>
      <use transform="translate(95.410156 0.765625)" xlink:href="#DejaVuSans-30"/>
      <use transform="translate(159.033203 0.765625)" xlink:href="#DejaVuSans-30"/>
      <use transform="translate(242.138672 0.765625)" xlink:href="#DejaVuSans-d7"/>
      <use transform="translate(345.410156 0.765625)" xlink:href="#DejaVuSans-31"/>
      <use transform="translate(409.033203 0.765625)" xlink:href="#DejaVuSans-30"/>
      <use transform="translate(473.613281 39.046875)scale(0.7)" xlink:href="#DejaVuSans-39"/>
     </g>
    </g>
   </g>
  </g>
 </g>
 <defs>
  <clipPath id="p3ddeadd92b">
   <rect height="217.44" width="334.8" x="54" y="34.56"/>
  </clipPath>
 </defs>
</svg>
