<?xml version="1.0" encoding="utf-8" standalone="no"?>
<!DOCTYPE svg PUBLIC "-//W3C//DTD SVG 1.1//EN"
  "http://www.w3.org/Graphics/SVG/1.1/DTD/svg11.dtd">
<svg height="267.035312pt" version="1.1" viewBox="0 0 441.656812 267.035312" width="441.656812pt" xmlns="http://www.w3.org/2000/svg" xmlns:xlink="http://www.w3.org/1999/xlink">
 <metadata>
  <rdf:RDF xmlns:cc="http://creativecommons.org/ns#" xmlns:dc="http://purl.org/dc/elements/1.1/" xmlns:rdf="http://www.w3.org/1999/02/22-rdf-syntax-ns#">
   <cc:Work>
    <dc:type rdf:resource="http://purl.org/dc/dcmitype/StillImage"/>
    <dc:date>2022-04-22T22:20:19.627964</dc:date>
    <dc:format>image/svg+xml</dc:format>
    <dc:creator>
     <cc:Agent>
      <dc:title>Matplotlib v3.4.3, https://matplotlib.org/</dc:title>
     </cc:Agent>
    </dc:creator>
   </cc:Work>
  </rdf:RDF>
 </metadata>
 <defs>
  <style type="text/css">*{stroke-linecap:butt;stroke-linejoin:round;}</style>
 </defs>
 <g id="figure_1">
  <g id="patch_1">
   <path d="M 0 267.035312 
L 441.656812 267.035312 
L 441.656812 0 
L 0 0 
z
" style="fill:none;"/>
  </g>
  <g id="axes_1">
   <g id="patch_2">
    <path d="M 27.652813 224.64 
L 362.452812 224.64 
L 362.452812 7.2 
L 27.652813 7.2 
z
" style="fill:#ffffff;"/>
   </g>
   <g id="matplotlib.axis_1">
    <g id="xtick_1">
     <g id="line2d_1">
      <defs>
       <path d="M 0 0 
L 0 3.5 
" id="m8a43d89b8a" style="stroke:#000000;stroke-width:0.8;"/>
      </defs>
      <g>
       <use style="stroke:#000000;stroke-width:0.8;" x="27.652813" xlink:href="#m8a43d89b8a" y="224.64"/>
      </g>
     </g>
     <g id="text_1">
      <!-- −4 -->
      <g transform="translate(20.281719 239.238437)scale(0.1 -0.1)">
       <defs>
        <path d="M 678 2272 
L 4684 2272 
L 4684 1741 
L 678 1741 
L 678 2272 
z
" id="DejaVuSans-2212" transform="scale(0.015625)"/>
        <path d="M 2419 4116 
L 825 1625 
L 2419 1625 
L 2419 4116 
z
M 2253 4666 
L 3047 4666 
L 3047 1625 
L 3713 1625 
L 3713 1100 
L 3047 1100 
L 3047 0 
L 2419 0 
L 2419 1100 
L 313 1100 
L 313 1709 
L 2253 4666 
z
" id="DejaVuSans-34" transform="scale(0.015625)"/>
       </defs>
       <use xlink:href="#DejaVuSans-2212"/>
       <use x="83.789062" xlink:href="#DejaVuSans-34"/>
      </g>
     </g>
    </g>
    <g id="xtick_2">
     <g id="line2d_2">
      <g>
       <use style="stroke:#000000;stroke-width:0.8;" x="69.502813" xlink:href="#m8a43d89b8a" y="224.64"/>
      </g>
     </g>
     <g id="text_2">
      <!-- −3 -->
      <g transform="translate(62.131719 239.238437)scale(0.1 -0.1)">
       <defs>
        <path d="M 2597 2516 
Q 3050 2419 3304 2112 
Q 3559 1806 3559 1356 
Q 3559 666 3084 287 
Q 2609 -91 1734 -91 
Q 1441 -91 1130 -33 
Q 819 25 488 141 
L 488 750 
Q 750 597 1062 519 
Q 1375 441 1716 441 
Q 2309 441 2620 675 
Q 2931 909 2931 1356 
Q 2931 1769 2642 2001 
Q 2353 2234 1838 2234 
L 1294 2234 
L 1294 2753 
L 1863 2753 
Q 2328 2753 2575 2939 
Q 2822 3125 2822 3475 
Q 2822 3834 2567 4026 
Q 2313 4219 1838 4219 
Q 1578 4219 1281 4162 
Q 984 4106 628 3988 
L 628 4550 
Q 988 4650 1302 4700 
Q 1616 4750 1894 4750 
Q 2613 4750 3031 4423 
Q 3450 4097 3450 3541 
Q 3450 3153 3228 2886 
Q 3006 2619 2597 2516 
z
" id="DejaVuSans-33" transform="scale(0.015625)"/>
       </defs>
       <use xlink:href="#DejaVuSans-2212"/>
       <use x="83.789062" xlink:href="#DejaVuSans-33"/>
      </g>
     </g>
    </g>
    <g id="xtick_3">
     <g id="line2d_3">
      <g>
       <use style="stroke:#000000;stroke-width:0.8;" x="111.352813" xlink:href="#m8a43d89b8a" y="224.64"/>
      </g>
     </g>
     <g id="text_3">
      <!-- −2 -->
      <g transform="translate(103.981719 239.238437)scale(0.1 -0.1)">
       <defs>
        <path d="M 1228 531 
L 3431 531 
L 3431 0 
L 469 0 
L 469 531 
Q 828 903 1448 1529 
Q 2069 2156 2228 2338 
Q 2531 2678 2651 2914 
Q 2772 3150 2772 3378 
Q 2772 3750 2511 3984 
Q 2250 4219 1831 4219 
Q 1534 4219 1204 4116 
Q 875 4013 500 3803 
L 500 4441 
Q 881 4594 1212 4672 
Q 1544 4750 1819 4750 
Q 2544 4750 2975 4387 
Q 3406 4025 3406 3419 
Q 3406 3131 3298 2873 
Q 3191 2616 2906 2266 
Q 2828 2175 2409 1742 
Q 1991 1309 1228 531 
z
" id="DejaVuSans-32" transform="scale(0.015625)"/>
       </defs>
       <use xlink:href="#DejaVuSans-2212"/>
       <use x="83.789062" xlink:href="#DejaVuSans-32"/>
      </g>
     </g>
    </g>
    <g id="xtick_4">
     <g id="line2d_4">
      <g>
       <use style="stroke:#000000;stroke-width:0.8;" x="153.202813" xlink:href="#m8a43d89b8a" y="224.64"/>
      </g>
     </g>
     <g id="text_4">
      <!-- −1 -->
      <g transform="translate(145.831719 239.238437)scale(0.1 -0.1)">
       <defs>
        <path d="M 794 531 
L 1825 531 
L 1825 4091 
L 703 3866 
L 703 4441 
L 1819 4666 
L 2450 4666 
L 2450 531 
L 3481 531 
L 3481 0 
L 794 0 
L 794 531 
z
" id="DejaVuSans-31" transform="scale(0.015625)"/>
       </defs>
       <use xlink:href="#DejaVuSans-2212"/>
       <use x="83.789062" xlink:href="#DejaVuSans-31"/>
      </g>
     </g>
    </g>
    <g id="xtick_5">
     <g id="line2d_5">
      <g>
       <use style="stroke:#000000;stroke-width:0.8;" x="195.052813" xlink:href="#m8a43d89b8a" y="224.64"/>
      </g>
     </g>
     <g id="text_5">
      <!-- 0 -->
      <g transform="translate(191.871563 239.238437)scale(0.1 -0.1)">
       <defs>
        <path d="M 2034 4250 
Q 1547 4250 1301 3770 
Q 1056 3291 1056 2328 
Q 1056 1369 1301 889 
Q 1547 409 2034 409 
Q 2525 409 2770 889 
Q 3016 1369 3016 2328 
Q 3016 3291 2770 3770 
Q 2525 4250 2034 4250 
z
M 2034 4750 
Q 2819 4750 3233 4129 
Q 3647 3509 3647 2328 
Q 3647 1150 3233 529 
Q 2819 -91 2034 -91 
Q 1250 -91 836 529 
Q 422 1150 422 2328 
Q 422 3509 836 4129 
Q 1250 4750 2034 4750 
z
" id="DejaVuSans-30" transform="scale(0.015625)"/>
       </defs>
       <use xlink:href="#DejaVuSans-30"/>
      </g>
     </g>
    </g>
    <g id="xtick_6">
     <g id="line2d_6">
      <g>
       <use style="stroke:#000000;stroke-width:0.8;" x="236.902813" xlink:href="#m8a43d89b8a" y="224.64"/>
      </g>
     </g>
     <g id="text_6">
      <!-- 1 -->
      <g transform="translate(233.721563 239.238437)scale(0.1 -0.1)">
       <use xlink:href="#DejaVuSans-31"/>
      </g>
     </g>
    </g>
    <g id="xtick_7">
     <g id="line2d_7">
      <g>
       <use style="stroke:#000000;stroke-width:0.8;" x="278.752813" xlink:href="#m8a43d89b8a" y="224.64"/>
      </g>
     </g>
     <g id="text_7">
      <!-- 2 -->
      <g transform="translate(275.571563 239.238437)scale(0.1 -0.1)">
       <use xlink:href="#DejaVuSans-32"/>
      </g>
     </g>
    </g>
    <g id="xtick_8">
     <g id="line2d_8">
      <g>
       <use style="stroke:#000000;stroke-width:0.8;" x="320.602813" xlink:href="#m8a43d89b8a" y="224.64"/>
      </g>
     </g>
     <g id="text_8">
      <!-- 3 -->
      <g transform="translate(317.421563 239.238437)scale(0.1 -0.1)">
       <use xlink:href="#DejaVuSans-33"/>
      </g>
     </g>
    </g>
    <g id="xtick_9">
     <g id="line2d_9">
      <g>
       <use style="stroke:#000000;stroke-width:0.8;" x="362.452813" xlink:href="#m8a43d89b8a" y="224.64"/>
      </g>
     </g>
     <g id="text_9">
      <!-- 4 -->
      <g transform="translate(359.271563 239.238437)scale(0.1 -0.1)">
       <use xlink:href="#DejaVuSans-34"/>
      </g>
     </g>
    </g>
    <g id="text_10">
     <!-- $\Phi/\Phi_0$ -->
     <g transform="translate(177.052813 256.715781)scale(0.15 -0.15)">
      <defs>
       <path d="M 2206 3644 
Q 1738 3578 1431 3306 
Q 1025 2947 1025 2328 
Q 1025 1713 1431 1353 
Q 1738 1081 2206 1016 
L 2206 3644 
z
M 2838 1016 
Q 3306 1081 3613 1353 
Q 4013 1713 4013 2328 
Q 4013 2947 3613 3306 
Q 3306 3578 2838 3644 
L 2838 1016 
z
M 2206 494 
Q 1444 563 950 981 
Q 359 1481 359 2328 
Q 359 3175 950 3678 
Q 1441 4100 2206 4169 
L 2206 4666 
L 2838 4666 
L 2838 4169 
Q 3600 4097 4091 3678 
Q 4678 3175 4678 2328 
Q 4678 1484 4091 981 
Q 3600 563 2838 491 
L 2838 0 
L 2206 0 
L 2206 494 
z
" id="DejaVuSans-3a6" transform="scale(0.015625)"/>
       <path d="M 1625 4666 
L 2156 4666 
L 531 -594 
L 0 -594 
L 1625 4666 
z
" id="DejaVuSans-2f" transform="scale(0.015625)"/>
      </defs>
      <use transform="translate(0 0.09375)" xlink:href="#DejaVuSans-3a6"/>
      <use transform="translate(78.710938 0.09375)" xlink:href="#DejaVuSans-2f"/>
      <use transform="translate(112.402344 0.09375)" xlink:href="#DejaVuSans-3a6"/>
      <use transform="translate(192.070312 -16.3125)scale(0.7)" xlink:href="#DejaVuSans-30"/>
     </g>
    </g>
   </g>
   <g id="matplotlib.axis_2">
    <g id="text_11">
     <!-- $E_n$ -->
     <g transform="translate(20.117344 125.355)rotate(-90)scale(0.17 -0.17)">
      <defs>
       <path d="M 1081 4666 
L 4031 4666 
L 3928 4134 
L 1606 4134 
L 1338 2753 
L 3566 2753 
L 3463 2222 
L 1234 2222 
L 909 531 
L 3284 531 
L 3181 0 
L 172 0 
L 1081 4666 
z
" id="DejaVuSans-Oblique-45" transform="scale(0.015625)"/>
       <path d="M 3566 2113 
L 3156 0 
L 2578 0 
L 2988 2091 
Q 3016 2238 3031 2350 
Q 3047 2463 3047 2528 
Q 3047 2791 2881 2937 
Q 2716 3084 2419 3084 
Q 1956 3084 1622 2776 
Q 1288 2469 1184 1941 
L 800 0 
L 225 0 
L 903 3500 
L 1478 3500 
L 1363 2950 
Q 1603 3253 1940 3418 
Q 2278 3584 2650 3584 
Q 3113 3584 3367 3334 
Q 3622 3084 3622 2631 
Q 3622 2519 3608 2391 
Q 3594 2263 3566 2113 
z
" id="DejaVuSans-Oblique-6e" transform="scale(0.015625)"/>
      </defs>
      <use transform="translate(0 0.09375)" xlink:href="#DejaVuSans-Oblique-45"/>
      <use transform="translate(63.183594 -16.3125)scale(0.7)" xlink:href="#DejaVuSans-Oblique-6e"/>
     </g>
    </g>
   </g>
   <g id="line2d_10">
    <path clip-path="url(#pf9f4823a73)" d="M 277.200281 -1 
L 277.907358 2.785087 
L 281.289176 20.178512 
L 284.670994 36.862002 
L 288.052813 52.835556 
L 291.434631 68.099174 
L 294.816449 82.652856 
L 298.198267 96.496602 
L 301.580085 109.630413 
L 304.961903 122.054288 
L 308.343722 133.768228 
L 311.72554 144.772231 
L 315.107358 155.066299 
L 318.489176 164.650432 
L 321.870994 173.524628 
L 325.252813 181.688889 
L 328.634631 189.143214 
L 332.016449 195.887603 
L 335.398267 201.922057 
L 338.780085 207.246575 
L 342.161903 211.861157 
L 345.543722 215.765803 
L 348.92554 218.960514 
L 352.307358 221.445289 
L 355.689176 223.220129 
L 359.070994 224.285032 
L 362.452813 224.64 
" style="fill:none;stroke:#440154;stroke-linecap:square;stroke-width:2.5;"/>
   </g>
   <g id="line2d_11">
    <path clip-path="url(#pf9f4823a73)" d="M 235.355501 -1 
L 237.32554 9.390817 
L 240.707358 26.518017 
L 244.089176 42.93528 
L 247.470994 58.642608 
L 250.852813 73.64 
L 254.234631 87.927456 
L 257.616449 101.504977 
L 260.998267 114.372562 
L 264.380085 126.530211 
L 267.761903 137.977925 
L 271.143722 148.715702 
L 274.52554 158.743545 
L 277.907358 168.061451 
L 281.289176 176.669421 
L 284.670994 184.567456 
L 288.052813 191.755556 
L 291.434631 198.233719 
L 294.816449 204.001947 
L 298.198267 209.060239 
L 301.580085 213.408595 
L 304.961903 217.047016 
L 308.343722 219.9755 
L 311.72554 222.19405 
L 315.107358 223.702663 
L 318.489176 224.501341 
L 321.870994 224.590083 
L 325.252813 223.968889 
L 328.634631 222.637759 
L 332.016449 220.596694 
L 335.398267 217.845693 
L 338.780085 214.384757 
L 342.161903 210.213884 
L 345.543722 205.333076 
L 348.92554 199.742332 
L 352.307358 193.441653 
L 355.689176 186.431038 
L 359.070994 178.710487 
L 362.452813 170.28 
" style="fill:none;stroke:#482878;stroke-linecap:square;stroke-width:2.5;"/>
   </g>
   <g id="line2d_12">
    <path clip-path="url(#pf9f4823a73)" d="M 193.491664 -1 
L 196.743722 15.896713 
L 200.12554 32.757686 
L 203.507358 48.908724 
L 206.889176 64.349826 
L 210.270994 79.080992 
L 213.652813 93.102222 
L 217.034631 106.413517 
L 220.416449 119.014876 
L 223.798267 130.906299 
L 227.180085 142.087787 
L 230.561903 152.559339 
L 233.943722 162.320955 
L 237.32554 171.372635 
L 240.707358 179.71438 
L 244.089176 187.346189 
L 247.470994 194.268062 
L 250.852813 200.48 
L 254.234631 205.982002 
L 257.616449 210.774068 
L 260.998267 214.856198 
L 264.380085 218.228393 
L 267.761903 220.890652 
L 271.143722 222.842975 
L 274.52554 224.085363 
L 277.907358 224.617815 
L 281.289176 224.440331 
L 284.670994 223.552911 
L 288.052813 221.955556 
L 291.434631 219.648264 
L 294.816449 216.631038 
L 298.198267 212.903875 
L 301.580085 208.466777 
L 304.961903 203.319743 
L 308.343722 197.462773 
L 311.72554 190.895868 
L 315.107358 183.619027 
L 318.489176 175.63225 
L 321.870994 166.935537 
L 325.252813 157.528889 
L 328.634631 147.412305 
L 332.016449 136.585785 
L 335.398267 125.04933 
L 338.780085 112.802938 
L 342.161903 99.846612 
L 345.543722 86.180349 
L 348.92554 71.804151 
L 352.307358 56.718017 
L 355.689176 40.921947 
L 359.070994 24.415941 
L 362.452813 7.2 
" style="fill:none;stroke:#3e4989;stroke-linecap:square;stroke-width:2.5;"/>
   </g>
   <g id="line2d_13">
    <path clip-path="url(#pf9f4823a73)" d="M 151.654086 -1 
L 152.780085 4.99809 
L 156.161903 22.302773 
L 159.543722 38.897521 
L 162.92554 54.782332 
L 166.307358 69.957208 
L 169.689176 84.422149 
L 173.070994 98.177153 
L 176.452813 111.222222 
L 179.834631 123.557355 
L 183.216449 135.182553 
L 186.598267 146.097815 
L 189.980085 156.30314 
L 193.361903 165.798531 
L 196.743722 174.583985 
L 200.12554 182.659504 
L 203.507358 190.025087 
L 206.889176 196.680735 
L 210.270994 202.626446 
L 213.652813 207.862222 
L 217.034631 212.388062 
L 220.416449 216.203967 
L 223.798267 219.309936 
L 227.180085 221.705969 
L 230.561903 223.392066 
L 233.943722 224.368228 
L 237.32554 224.634454 
L 240.707358 224.190744 
L 244.089176 223.037098 
L 247.470994 221.173517 
L 250.852813 218.6 
L 254.234631 215.316547 
L 257.616449 211.323159 
L 260.998267 206.619835 
L 264.380085 201.206575 
L 267.761903 195.083379 
L 271.143722 188.250248 
L 274.52554 180.707181 
L 277.907358 172.454178 
L 281.289176 163.49124 
L 284.670994 153.818365 
L 288.052813 143.435556 
L 291.434631 132.34281 
L 294.816449 120.540129 
L 298.198267 108.027511 
L 301.580085 94.804959 
L 304.961903 80.87247 
L 308.343722 66.230046 
L 311.72554 50.877686 
L 315.107358 34.81539 
L 318.489176 18.043159 
L 321.870994 0.560992 
L 322.161175 -1 
" style="fill:none;stroke:#31688e;stroke-linecap:square;stroke-width:2.5;"/>
   </g>
   <g id="line2d_14">
    <path clip-path="url(#pf9f4823a73)" d="M 109.803048 -1 
L 112.198267 11.570542 
L 115.580085 28.608999 
L 118.961903 44.937521 
L 122.343722 60.556107 
L 125.72554 75.464757 
L 129.107358 89.663471 
L 132.489176 103.15225 
L 135.870994 115.931093 
L 139.252813 128 
L 142.634631 139.358972 
L 146.016449 150.008007 
L 149.398267 159.947107 
L 152.780085 169.176272 
L 156.161903 177.6955 
L 159.543722 185.504793 
L 162.92554 192.604151 
L 166.307358 198.993572 
L 169.689176 204.673058 
L 173.070994 209.642608 
L 176.452813 213.902222 
L 179.834631 217.451901 
L 183.216449 220.291644 
L 186.598267 222.421451 
L 189.980085 223.841322 
L 193.361903 224.551258 
L 196.743722 224.551258 
L 200.12554 223.841322 
L 203.507358 222.421451 
L 206.889176 220.291644 
L 210.270994 217.451901 
L 213.652813 213.902222 
L 217.034631 209.642608 
L 220.416449 204.673058 
L 223.798267 198.993572 
L 227.180085 192.604151 
L 230.561903 185.504793 
L 233.943722 177.6955 
L 237.32554 169.176272 
L 240.707358 159.947107 
L 244.089176 150.008007 
L 247.470994 139.358972 
L 250.852813 128 
L 254.234631 115.931093 
L 257.616449 103.15225 
L 260.998267 89.663471 
L 264.380085 75.464757 
L 267.761903 60.556107 
L 271.143722 44.937521 
L 274.52554 28.608999 
L 277.907358 11.570542 
L 280.302577 -1 
" style="fill:none;stroke:#26828e;stroke-linecap:square;stroke-width:2.5;"/>
   </g>
   <g id="line2d_15">
    <path clip-path="url(#pf9f4823a73)" d="M 67.94445 -1 
L 68.234631 0.560992 
L 71.616449 18.043159 
L 74.998267 34.81539 
L 78.380085 50.877686 
L 81.761903 66.230046 
L 85.143722 80.87247 
L 88.52554 94.804959 
L 91.907358 108.027511 
L 95.289176 120.540129 
L 98.670994 132.34281 
L 102.052813 143.435556 
L 105.434631 153.818365 
L 108.816449 163.49124 
L 112.198267 172.454178 
L 115.580085 180.707181 
L 118.961903 188.250248 
L 122.343722 195.083379 
L 125.72554 201.206575 
L 129.107358 206.619835 
L 132.489176 211.323159 
L 135.870994 215.316547 
L 139.252813 218.6 
L 142.634631 221.173517 
L 146.016449 223.037098 
L 149.398267 224.190744 
L 152.780085 224.634454 
L 156.161903 224.368228 
L 159.543722 223.392066 
L 162.92554 221.705969 
L 166.307358 219.309936 
L 169.689176 216.203967 
L 173.070994 212.388062 
L 176.452813 207.862222 
L 179.834631 202.626446 
L 183.216449 196.680735 
L 186.598267 190.025087 
L 189.980085 182.659504 
L 193.361903 174.583985 
L 196.743722 165.798531 
L 200.12554 156.30314 
L 203.507358 146.097815 
L 206.889176 135.182553 
L 210.270994 123.557355 
L 213.652813 111.222222 
L 217.034631 98.177153 
L 220.416449 84.422149 
L 223.798267 69.957208 
L 227.180085 54.782332 
L 230.561903 38.897521 
L 233.943722 22.302773 
L 237.32554 4.99809 
L 238.451539 -1 
" style="fill:none;stroke:#1f9e89;stroke-linecap:square;stroke-width:2.5;"/>
   </g>
   <g id="line2d_16">
    <path clip-path="url(#pf9f4823a73)" d="M 27.652813 7.2 
L 31.034631 24.415941 
L 34.416449 40.921947 
L 37.798267 56.718017 
L 41.180085 71.804151 
L 44.561903 86.180349 
L 47.943722 99.846612 
L 51.32554 112.802938 
L 54.707358 125.04933 
L 58.089176 136.585785 
L 61.470994 147.412305 
L 64.852812 157.528889 
L 68.234631 166.935537 
L 71.616449 175.63225 
L 74.998267 183.619027 
L 78.380085 190.895868 
L 81.761903 197.462773 
L 85.143722 203.319743 
L 88.52554 208.466777 
L 91.907358 212.903875 
L 95.289176 216.631038 
L 98.670994 219.648264 
L 102.052813 221.955556 
L 105.434631 223.552911 
L 108.816449 224.440331 
L 112.198267 224.617815 
L 115.580085 224.085363 
L 118.961903 222.842975 
L 122.343722 220.890652 
L 125.72554 218.228393 
L 129.107358 214.856198 
L 132.489176 210.774068 
L 135.870994 205.982002 
L 139.252813 200.48 
L 142.634631 194.268062 
L 146.016449 187.346189 
L 149.398267 179.71438 
L 152.780085 171.372635 
L 156.161903 162.320955 
L 159.543722 152.559339 
L 162.92554 142.087787 
L 166.307358 130.906299 
L 169.689176 119.014876 
L 173.070994 106.413517 
L 176.452813 93.102222 
L 179.834631 79.080992 
L 183.216449 64.349826 
L 186.598267 48.908724 
L 189.980085 32.757686 
L 193.361903 15.896713 
L 196.613961 -1 
" style="fill:none;stroke:#35b779;stroke-linecap:square;stroke-width:2.5;"/>
   </g>
   <g id="line2d_17">
    <path clip-path="url(#pf9f4823a73)" d="M 27.652813 170.28 
L 31.034631 178.710487 
L 34.416449 186.431038 
L 37.798267 193.441653 
L 41.180085 199.742332 
L 44.561903 205.333076 
L 47.943722 210.213884 
L 51.32554 214.384757 
L 54.707358 217.845693 
L 58.089176 220.596694 
L 61.470994 222.637759 
L 64.852812 223.968889 
L 68.234631 224.590083 
L 71.616449 224.501341 
L 74.998267 223.702663 
L 78.380085 222.19405 
L 81.761903 219.9755 
L 85.143722 217.047016 
L 88.52554 213.408595 
L 91.907358 209.060239 
L 95.289176 204.001947 
L 98.670994 198.233719 
L 102.052813 191.755556 
L 105.434631 184.567456 
L 108.816449 176.669421 
L 112.198267 168.061451 
L 115.580085 158.743545 
L 118.961903 148.715702 
L 122.343722 137.977925 
L 125.72554 126.530211 
L 129.107358 114.372562 
L 132.489176 101.504977 
L 135.870994 87.927456 
L 139.252813 73.64 
L 142.634631 58.642608 
L 146.016449 42.93528 
L 149.398267 26.518017 
L 152.780085 9.390817 
L 154.750124 -1 
" style="fill:none;stroke:#6ece58;stroke-linecap:square;stroke-width:2.5;"/>
   </g>
   <g id="line2d_18">
    <path clip-path="url(#pf9f4823a73)" d="M 27.652813 224.64 
L 31.034631 224.285032 
L 34.416449 223.220129 
L 37.798267 221.445289 
L 41.180085 218.960514 
L 44.561903 215.765803 
L 47.943722 211.861157 
L 51.32554 207.246575 
L 54.707358 201.922057 
L 58.089176 195.887603 
L 61.470994 189.143214 
L 64.852812 181.688889 
L 68.234631 173.524628 
L 71.616449 164.650432 
L 74.998267 155.066299 
L 78.380085 144.772231 
L 81.761903 133.768228 
L 85.143722 122.054288 
L 88.52554 109.630413 
L 91.907358 96.496602 
L 95.289176 82.652856 
L 98.670994 68.099174 
L 102.052813 52.835556 
L 105.434631 36.862002 
L 108.816449 20.178512 
L 112.198267 2.785087 
L 112.905344 -1 
" style="fill:none;stroke:#b5de2b;stroke-linecap:square;stroke-width:2.5;"/>
   </g>
   <g id="patch_3">
    <path d="M 27.652813 224.64 
L 27.652813 7.2 
" style="fill:none;stroke:#000000;stroke-linecap:square;stroke-linejoin:miter;stroke-width:0.8;"/>
   </g>
   <g id="patch_4">
    <path d="M 362.452812 224.64 
L 362.452812 7.2 
" style="fill:none;stroke:#000000;stroke-linecap:square;stroke-linejoin:miter;stroke-width:0.8;"/>
   </g>
   <g id="patch_5">
    <path d="M 27.652813 224.64 
L 362.452813 224.64 
" style="fill:none;stroke:#000000;stroke-linecap:square;stroke-linejoin:miter;stroke-width:0.8;"/>
   </g>
   <g id="patch_6">
    <path d="M 27.652813 7.2 
L 362.452813 7.2 
" style="fill:none;stroke:#000000;stroke-linecap:square;stroke-linejoin:miter;stroke-width:0.8;"/>
   </g>
   <g id="legend_1">
    <g id="patch_7">
     <path d="M 392.4865 192.810625 
L 434.456813 192.810625 
Q 436.456813 192.810625 436.456813 190.810625 
L 436.456813 45.029375 
Q 436.456813 43.029375 434.456813 43.029375 
L 392.4865 43.029375 
Q 390.4865 43.029375 390.4865 45.029375 
L 390.4865 190.810625 
Q 390.4865 192.810625 392.4865 192.810625 
z
" style="fill:#4c4c4c;opacity:0.5;stroke:#4c4c4c;stroke-linejoin:miter;"/>
    </g>
    <g id="patch_8">
     <path d="M 390.4865 190.810625 
L 432.456813 190.810625 
Q 434.456813 190.810625 434.456813 188.810625 
L 434.456813 43.029375 
Q 434.456813 41.029375 432.456813 41.029375 
L 390.4865 41.029375 
Q 388.4865 41.029375 388.4865 43.029375 
L 388.4865 188.810625 
Q 388.4865 190.810625 390.4865 190.810625 
z
" style="fill:#ffffff;stroke:#cccccc;stroke-linejoin:miter;"/>
    </g>
    <g id="text_12">
     <!-- n -->
     <g transform="translate(408.302906 52.627812)scale(0.1 -0.1)">
      <defs>
       <path d="M 3513 2113 
L 3513 0 
L 2938 0 
L 2938 2094 
Q 2938 2591 2744 2837 
Q 2550 3084 2163 3084 
Q 1697 3084 1428 2787 
Q 1159 2491 1159 1978 
L 1159 0 
L 581 0 
L 581 3500 
L 1159 3500 
L 1159 2956 
Q 1366 3272 1645 3428 
Q 1925 3584 2291 3584 
Q 2894 3584 3203 3211 
Q 3513 2838 3513 2113 
z
" id="DejaVuSans-6e" transform="scale(0.015625)"/>
      </defs>
      <use xlink:href="#DejaVuSans-6e"/>
     </g>
    </g>
    <g id="line2d_19">
     <path d="M 392.4865 63.805937 
L 412.4865 63.805937 
" style="fill:none;stroke:#440154;stroke-linecap:square;stroke-width:2.5;"/>
    </g>
    <g id="line2d_20"/>
    <g id="text_13">
     <!-- -4 -->
     <g transform="translate(420.4865 67.305937)scale(0.1 -0.1)">
      <defs>
       <path d="M 313 2009 
L 1997 2009 
L 1997 1497 
L 313 1497 
L 313 2009 
z
" id="DejaVuSans-2d" transform="scale(0.015625)"/>
      </defs>
      <use xlink:href="#DejaVuSans-2d"/>
      <use x="36.083984" xlink:href="#DejaVuSans-34"/>
     </g>
    </g>
    <g id="line2d_21">
     <path d="M 392.4865 78.484062 
L 412.4865 78.484062 
" style="fill:none;stroke:#482878;stroke-linecap:square;stroke-width:2.5;"/>
    </g>
    <g id="line2d_22"/>
    <g id="text_14">
     <!-- -3 -->
     <g transform="translate(420.4865 81.984062)scale(0.1 -0.1)">
      <use xlink:href="#DejaVuSans-2d"/>
      <use x="36.083984" xlink:href="#DejaVuSans-33"/>
     </g>
    </g>
    <g id="line2d_23">
     <path d="M 392.4865 93.162187 
L 412.4865 93.162187 
" style="fill:none;stroke:#3e4989;stroke-linecap:square;stroke-width:2.5;"/>
    </g>
    <g id="line2d_24"/>
    <g id="text_15">
     <!-- -2 -->
     <g transform="translate(420.4865 96.662187)scale(0.1 -0.1)">
      <use xlink:href="#DejaVuSans-2d"/>
      <use x="36.083984" xlink:href="#DejaVuSans-32"/>
     </g>
    </g>
    <g id="line2d_25">
     <path d="M 392.4865 107.840312 
L 412.4865 107.840312 
" style="fill:none;stroke:#31688e;stroke-linecap:square;stroke-width:2.5;"/>
    </g>
    <g id="line2d_26"/>
    <g id="text_16">
     <!-- -1 -->
     <g transform="translate(420.4865 111.340312)scale(0.1 -0.1)">
      <use xlink:href="#DejaVuSans-2d"/>
      <use x="36.083984" xlink:href="#DejaVuSans-31"/>
     </g>
    </g>
    <g id="line2d_27">
     <path d="M 392.4865 122.518437 
L 412.4865 122.518437 
" style="fill:none;stroke:#26828e;stroke-linecap:square;stroke-width:2.5;"/>
    </g>
    <g id="line2d_28"/>
    <g id="text_17">
     <!-- 0 -->
     <g transform="translate(420.4865 126.018437)scale(0.1 -0.1)">
      <use xlink:href="#DejaVuSans-30"/>
     </g>
    </g>
    <g id="line2d_29">
     <path d="M 392.4865 137.196562 
L 412.4865 137.196562 
" style="fill:none;stroke:#1f9e89;stroke-linecap:square;stroke-width:2.5;"/>
    </g>
    <g id="line2d_30"/>
    <g id="text_18">
     <!-- 1 -->
     <g transform="translate(420.4865 140.696562)scale(0.1 -0.1)">
      <use xlink:href="#DejaVuSans-31"/>
     </g>
    </g>
    <g id="line2d_31">
     <path d="M 392.4865 151.874687 
L 412.4865 151.874687 
" style="fill:none;stroke:#35b779;stroke-linecap:square;stroke-width:2.5;"/>
    </g>
    <g id="line2d_32"/>
    <g id="text_19">
     <!-- 2 -->
     <g transform="translate(420.4865 155.374687)scale(0.1 -0.1)">
      <use xlink:href="#DejaVuSans-32"/>
     </g>
    </g>
    <g id="line2d_33">
     <path d="M 392.4865 166.552812 
L 412.4865 166.552812 
" style="fill:none;stroke:#6ece58;stroke-linecap:square;stroke-width:2.5;"/>
    </g>
    <g id="line2d_34"/>
    <g id="text_20">
     <!-- 3 -->
     <g transform="translate(420.4865 170.052812)scale(0.1 -0.1)">
      <use xlink:href="#DejaVuSans-33"/>
     </g>
    </g>
    <g id="line2d_35">
     <path d="M 392.4865 181.230937 
L 412.4865 181.230937 
" style="fill:none;stroke:#b5de2b;stroke-linecap:square;stroke-width:2.5;"/>
    </g>
    <g id="line2d_36"/>
    <g id="text_21">
     <!-- 4 -->
     <g transform="translate(420.4865 184.730937)scale(0.1 -0.1)">
      <use xlink:href="#DejaVuSans-34"/>
     </g>
    </g>
   </g>
  </g>
 </g>
 <defs>
  <clipPath id="pf9f4823a73">
   <rect height="217.44" width="334.8" x="27.652813" y="7.2"/>
  </clipPath>
 </defs>
</svg>
