<?xml version="1.0" encoding="utf-8" standalone="no"?>
<!DOCTYPE svg PUBLIC "-//W3C//DTD SVG 1.1//EN"
  "http://www.w3.org/Graphics/SVG/1.1/DTD/svg11.dtd">
<!-- Created with matplotlib (https://matplotlib.org/) -->
<svg height="363.44pt" version="1.1" viewBox="0 0 376.13 363.44" width="376.13pt" xmlns="http://www.w3.org/2000/svg" xmlns:xlink="http://www.w3.org/1999/xlink">
 <metadata>
  <rdf:RDF xmlns:cc="http://creativecommons.org/ns#" xmlns:dc="http://purl.org/dc/elements/1.1/" xmlns:rdf="http://www.w3.org/1999/02/22-rdf-syntax-ns#">
   <cc:Work>
    <dc:type rdf:resource="http://purl.org/dc/dcmitype/StillImage"/>
    <dc:date>2022-06-26T10:16:00.241376</dc:date>
    <dc:format>image/svg+xml</dc:format>
    <dc:creator>
     <cc:Agent>
      <dc:title>Matplotlib v3.3.4, https://matplotlib.org/</dc:title>
     </cc:Agent>
    </dc:creator>
   </cc:Work>
  </rdf:RDF>
 </metadata>
 <defs>
  <style type="text/css">*{stroke-linecap:butt;stroke-linejoin:round;}</style>
 </defs>
 <g id="figure_1">
  <g id="patch_1">
   <path d="M 0 363.44 
L 376.13 363.44 
L 376.13 0 
L 0 0 
z
" style="fill:#ffffff;"/>
  </g>
  <g id="axes_1">
   <g id="patch_2">
    <path d="M 55.37 315 
L 357.77 315 
L 357.77 12.6 
L 55.37 12.6 
z
" style="fill:#ffffff;"/>
   </g>
   <g id="LineCollection_1">
    <path clip-path="url(#p52ad01315b)" d="M 0 0 
" style="fill:none;stroke:#000000;stroke-width:1.2;"/>
    <path clip-path="url(#p52ad01315b)" d="M 0 0 
" style="fill:none;stroke:#000000;stroke-width:1.2;"/>
    <path clip-path="url(#p52ad01315b)" d="M 0 0 
" style="fill:none;stroke:#000000;stroke-width:1.2;"/>
    <path clip-path="url(#p52ad01315b)" d="M 129.847788 364.44 
L 135.586216 361.951587 
L 141.337568 359.689852 
L 147.088919 357.657472 
L 152.84027 355.85911 
L 158.288919 354.382849 
L 163.434865 353.206416 
L 168.580811 352.256903 
L 173.424054 351.582781 
L 178.267297 351.129533 
L 183.110541 350.899059 
L 187.953784 350.885196 
L 193.09973 351.089641 
L 198.851081 351.544883 
L 206.115946 352.359861 
L 224.883514 354.587205 
L 232.753784 355.216345 
L 245.164595 355.931408 
L 254.245676 356.561524 
L 260.602432 357.227208 
L 266.051081 358.024901 
L 270.894324 358.959985 
L 275.132162 359.990612 
L 279.067297 361.158771 
L 283.002432 362.564326 
L 286.634865 364.099339 
L 287.371002 364.44 
L 287.371002 364.44 
" style="fill:none;stroke:#000000;stroke-width:1.2;"/>
    <path clip-path="url(#p52ad01315b)" d="M 69.401541 364.44 
L 76.861892 360.282263 
L 84.732162 356.151887 
L 92.905135 352.117124 
L 102.288919 347.743702 
L 114.69973 342.224783 
L 133.467297 334.131346 
L 142.851081 330.299037 
L 149.510541 327.806007 
L 155.261892 325.886106 
L 160.407838 324.398606 
L 165.251081 323.222916 
L 170.094324 322.275356 
L 174.937568 321.554243 
L 180.083514 321.024021 
L 185.229459 320.718806 
L 190.678108 320.621214 
L 196.126757 320.742002 
L 201.575405 321.077783 
L 207.024054 321.635798 
L 212.17 322.380299 
L 217.315946 323.351579 
L 222.159189 324.485346 
L 227.002432 325.840164 
L 231.845676 327.418681 
L 236.991622 329.33736 
L 242.137568 331.494431 
L 247.586216 334.019863 
L 253.337568 336.927526 
L 259.694324 340.387901 
L 267.261892 344.765924 
L 288.451081 357.209848 
L 294.807838 360.54135 
L 302.658523 364.44 
L 302.658523 364.44 
" style="fill:none;stroke:#000000;stroke-width:1.2;"/>
    <path clip-path="url(#p52ad01315b)" d="M 55.37 322.077241 
L 62.332162 320.170204 
L 70.807838 318.093853 
L 85.64027 314.744592 
L 99.867297 311.433588 
L 111.672703 308.447071 
L 127.413243 304.209984 
L 153.748378 296.894306 
L 167.37 292.849122 
L 180.083514 289.113314 
L 186.742973 287.399063 
L 192.494324 286.156135 
L 197.942973 285.215486 
L 203.391622 284.503671 
L 209.445676 283.94475 
L 216.710541 283.507349 
L 228.213243 283.072963 
L 245.467297 282.633409 
L 253.034865 282.64486 
L 259.088919 282.874955 
L 264.234865 283.286555 
L 269.380811 283.924646 
L 274.526757 284.785407 
L 280.278108 285.973674 
L 287.24027 287.649141 
L 296.321351 290.0774 
L 308.732162 293.63627 
L 322.051081 297.676154 
L 333.251081 301.295405 
L 342.937568 304.656175 
L 351.413243 307.825512 
L 357.77 310.373071 
L 357.77 310.373071 
" style="fill:none;stroke:#000000;stroke-width:1.2;"/>
    <path clip-path="url(#p52ad01315b)" d="M 55.37 294.310571 
L 76.256486 290.002256 
L 87.759189 287.879949 
L 100.17 285.828523 
L 131.953784 280.710806 
L 141.942973 278.777584 
L 153.142973 276.367094 
L 187.953784 268.471722 
L 198.851081 265.788195 
L 214.288919 261.952104 
L 219.132162 261.010294 
L 223.067297 260.474203 
L 226.397027 260.240434 
L 229.424054 260.233634 
L 232.753784 260.46132 
L 236.083514 260.914811 
L 240.018649 261.678618 
L 245.77 263.054732 
L 256.97 265.775656 
L 262.115946 266.770911 
L 266.959189 267.476118 
L 271.802432 267.944929 
L 276.948378 268.2084 
L 283.002432 268.282857 
L 293.294324 268.137054 
L 301.77 268.114022 
L 307.218649 268.314983 
L 311.759189 268.693016 
L 315.997027 269.270275 
L 319.932162 270.036183 
L 323.564595 270.961168 
L 327.197027 272.105825 
L 331.132162 273.593299 
L 335.067297 275.324978 
L 339.305135 277.43556 
L 344.148378 280.112328 
L 349.597027 283.390192 
L 356.256486 287.669272 
L 357.77 288.671614 
L 357.77 288.671614 
" style="fill:none;stroke:#000000;stroke-width:1.2;"/>
    <path clip-path="url(#p52ad01315b)" d="M 55.37 261.161408 
L 68.083514 259.717089 
L 114.69973 254.169399 
L 133.467297 252.065369 
L 142.245676 250.843215 
L 149.207838 249.658767 
L 155.564595 248.358022 
L 161.618649 246.894032 
L 167.672703 245.203586 
L 174.634865 243.022776 
L 186.44027 239.274244 
L 190.072703 238.378458 
L 193.09973 237.861775 
L 195.824054 237.638721 
L 198.245676 237.663312 
L 200.667297 237.901932 
L 203.391622 238.401765 
L 206.418649 239.183063 
L 210.656486 240.521933 
L 220.342973 243.669552 
L 223.975405 244.587149 
L 227.305135 245.194343 
L 230.332162 245.519152 
L 233.359189 245.620982 
L 236.688919 245.495666 
L 240.321351 245.125915 
L 244.861892 244.420422 
L 251.218649 243.178336 
L 269.986216 239.382146 
L 276.948378 238.271546 
L 283.002432 237.528128 
L 288.451081 237.073451 
L 293.597027 236.866436 
L 298.137568 236.897194 
L 302.375405 237.137551 
L 306.613243 237.605842 
L 310.851081 238.301898 
L 315.997027 239.386267 
L 328.105135 242.043852 
L 332.948378 242.829956 
L 337.791622 243.390059 
L 342.937568 243.758043 
L 348.991622 243.957618 
L 357.77 243.995057 
L 357.77 243.995057 
" style="fill:none;stroke:#000000;stroke-width:1.2;"/>
    <path clip-path="url(#p52ad01315b)" d="M 55.37 210.788198 
L 65.056486 206.129222 
L 70.505135 203.747013 
L 74.742973 202.135987 
L 78.375405 200.982684 
L 82.007838 200.052476 
L 86.245676 199.210641 
L 91.391622 198.433521 
L 98.656486 197.581264 
L 109.553784 196.537986 
L 119.24027 195.81474 
L 125.89973 195.525937 
L 131.045676 195.506043 
L 135.586216 195.708156 
L 139.521351 196.108555 
L 143.153784 196.710729 
L 146.483514 197.490394 
L 149.813243 198.50505 
L 153.142973 199.754871 
L 156.775405 201.365585 
L 160.710541 203.354283 
L 165.553784 206.054204 
L 174.029459 211.088868 
L 180.991622 215.125362 
L 185.229459 217.343532 
L 188.559189 218.853135 
L 191.283514 219.869577 
L 193.705135 220.561525 
L 196.126757 221.019127 
L 198.245676 221.210698 
L 200.667297 221.190117 
L 203.088919 220.933721 
L 205.813243 220.408413 
L 209.142973 219.510133 
L 213.380811 218.106512 
L 220.948378 215.303527 
L 229.424054 212.228683 
L 235.175405 210.375625 
L 240.018649 209.03595 
L 244.559189 208.010837 
L 248.494324 207.341012 
L 252.126757 206.936491 
L 255.456486 206.774465 
L 258.786216 206.837951 
L 261.813243 207.109277 
L 264.84027 207.594379 
L 267.867297 208.294621 
L 271.197027 209.303109 
L 274.829459 210.660165 
L 278.764595 212.382548 
L 283.607838 214.767307 
L 291.175405 218.793002 
L 299.045676 222.91775 
L 303.888919 225.198891 
L 307.824054 226.814293 
L 311.759189 228.179476 
L 315.694324 229.298839 
L 319.932162 230.275048 
L 325.380811 231.291262 
L 334.159189 232.662363 
L 357.77 236.27312 
L 357.77 236.27312 
" style="fill:none;stroke:#000000;stroke-width:1.2;"/>
    <path clip-path="url(#p52ad01315b)" d="M 55.37 194.164011 
L 60.818649 194.190411 
L 65.359189 194.009712 
L 69.294324 193.644967 
L 72.926757 193.079728 
L 76.256486 192.324266 
L 79.283514 191.419217 
L 82.613243 190.186637 
L 86.245676 188.593121 
L 90.483514 186.477835 
L 95.629459 183.652164 
L 103.197027 179.211084 
L 113.488919 173.185325 
L 117.121351 171.321516 
L 119.542973 170.290827 
L 121.661892 169.616372 
L 123.478108 169.269284 
L 125.294324 169.175574 
L 127.110541 169.340968 
L 128.926757 169.734431 
L 131.348378 170.522333 
L 134.678108 171.890186 
L 145.272703 176.434755 
L 148.905135 177.678461 
L 152.234865 178.599702 
L 155.564595 179.306362 
L 159.197027 179.847753 
L 163.132162 180.197679 
L 167.37 180.345824 
L 172.213243 180.280457 
L 177.359189 179.9872 
L 182.807838 179.46132 
L 188.559189 178.684165 
L 194.310541 177.681412 
L 200.061892 176.447115 
L 205.813243 174.976186 
L 211.564595 173.2766 
L 218.829459 170.878226 
L 225.488919 168.716538 
L 228.515946 167.971193 
L 230.634865 167.663597 
L 232.451081 167.598344 
L 234.267297 167.737113 
L 236.386216 168.137424 
L 238.807838 168.836515 
L 242.137568 170.056677 
L 248.494324 172.694438 
L 254.548378 175.109712 
L 258.483514 176.457025 
L 262.115946 177.469381 
L 265.445676 178.166863 
L 268.775405 178.627659 
L 272.105135 178.85194 
L 275.434865 178.853392 
L 279.067297 178.628009 
L 283.002432 178.157324 
L 287.542973 177.381412 
L 292.991622 176.212168 
L 301.164595 174.19341 
L 310.245676 171.99154 
L 314.786216 171.114472 
L 318.418649 170.628218 
L 321.748378 170.410112 
L 324.775405 170.429812 
L 327.802432 170.661236 
L 331.132162 171.139296 
L 335.067297 171.951102 
L 339.607838 173.129188 
L 345.661892 174.952405 
L 354.742973 177.954187 
L 357.77 178.985254 
L 357.77 178.985254 
" style="fill:none;stroke:#000000;stroke-width:1.2;"/>
    <path clip-path="url(#p52ad01315b)" d="M 55.37 133.435989 
L 60.818649 133.409589 
L 65.359189 133.590288 
L 69.294324 133.955033 
L 72.926757 134.520272 
L 76.256486 135.275734 
L 79.283514 136.180783 
L 82.613243 137.413363 
L 86.245676 139.006879 
L 90.483514 141.122165 
L 95.629459 143.947836 
L 103.197027 148.388916 
L 113.488919 154.414675 
L 117.121351 156.278484 
L 119.542973 157.309173 
L 121.661892 157.983628 
L 123.478108 158.330716 
L 125.294324 158.424426 
L 127.110541 158.259032 
L 128.926757 157.865569 
L 131.348378 157.077667 
L 134.678108 155.709814 
L 145.272703 151.165245 
L 148.905135 149.921539 
L 152.234865 149.000298 
L 155.564595 148.293638 
L 159.197027 147.752247 
L 163.132162 147.402321 
L 167.37 147.254176 
L 172.213243 147.319543 
L 177.359189 147.6128 
L 182.807838 148.13868 
L 188.559189 148.915835 
L 194.310541 149.918588 
L 200.061892 151.152885 
L 205.813243 152.623814 
L 211.564595 154.3234 
L 218.829459 156.721774 
L 225.488919 158.883462 
L 228.515946 159.628807 
L 230.634865 159.936403 
L 232.451081 160.001656 
L 234.267297 159.862887 
L 236.386216 159.462576 
L 238.807838 158.763485 
L 242.137568 157.543323 
L 248.494324 154.905562 
L 254.548378 152.490288 
L 258.483514 151.142975 
L 262.115946 150.130619 
L 265.445676 149.433137 
L 268.775405 148.972341 
L 272.105135 148.74806 
L 275.434865 148.746608 
L 279.067297 148.971991 
L 283.002432 149.442676 
L 287.542973 150.218588 
L 292.991622 151.387832 
L 301.164595 153.40659 
L 310.245676 155.60846 
L 314.786216 156.485528 
L 318.418649 156.971782 
L 321.748378 157.189888 
L 324.775405 157.170188 
L 327.802432 156.938764 
L 331.132162 156.460704 
L 335.067297 155.648898 
L 339.607838 154.470812 
L 345.661892 152.647595 
L 354.742973 149.645813 
L 357.77 148.614746 
L 357.77 148.614746 
" style="fill:none;stroke:#000000;stroke-width:1.2;"/>
    <path clip-path="url(#p52ad01315b)" d="M 55.37 116.811802 
L 65.056486 121.470778 
L 70.505135 123.852987 
L 74.742973 125.464013 
L 78.375405 126.617316 
L 82.007838 127.547524 
L 86.245676 128.389359 
L 91.391622 129.166479 
L 98.656486 130.018736 
L 109.553784 131.062014 
L 119.24027 131.78526 
L 125.89973 132.074063 
L 131.045676 132.093957 
L 135.586216 131.891844 
L 139.521351 131.491445 
L 143.153784 130.889271 
L 146.483514 130.109606 
L 149.813243 129.09495 
L 153.142973 127.845129 
L 156.775405 126.234415 
L 160.710541 124.245717 
L 165.553784 121.545796 
L 174.029459 116.511132 
L 180.991622 112.474638 
L 185.229459 110.256468 
L 188.559189 108.746865 
L 191.283514 107.730423 
L 193.705135 107.038475 
L 196.126757 106.580873 
L 198.245676 106.389302 
L 200.667297 106.409883 
L 203.088919 106.666279 
L 205.813243 107.191587 
L 209.142973 108.089867 
L 213.380811 109.493488 
L 220.948378 112.296473 
L 229.424054 115.371317 
L 235.175405 117.224375 
L 240.018649 118.56405 
L 244.559189 119.589163 
L 248.494324 120.258988 
L 252.126757 120.663509 
L 255.456486 120.825535 
L 258.786216 120.762049 
L 261.813243 120.490723 
L 264.84027 120.005621 
L 267.867297 119.305379 
L 271.197027 118.296891 
L 274.829459 116.939835 
L 278.764595 115.217452 
L 283.607838 112.832693 
L 291.175405 108.806998 
L 299.045676 104.68225 
L 303.888919 102.401109 
L 307.824054 100.785707 
L 311.759189 99.420524 
L 315.694324 98.301161 
L 319.932162 97.324952 
L 325.380811 96.308738 
L 334.159189 94.937637 
L 357.77 91.32688 
L 357.77 91.32688 
" style="fill:none;stroke:#000000;stroke-width:1.2;"/>
    <path clip-path="url(#p52ad01315b)" d="M 55.37 66.438592 
L 68.083514 67.882911 
L 114.69973 73.430601 
L 133.467297 75.534631 
L 142.245676 76.756785 
L 149.207838 77.941233 
L 155.564595 79.241978 
L 161.618649 80.705968 
L 167.672703 82.396414 
L 174.634865 84.577224 
L 186.44027 88.325756 
L 190.072703 89.221542 
L 193.09973 89.738225 
L 195.824054 89.961279 
L 198.245676 89.936688 
L 200.667297 89.698068 
L 203.391622 89.198235 
L 206.418649 88.416937 
L 210.656486 87.078067 
L 220.342973 83.930448 
L 223.975405 83.012851 
L 227.305135 82.405657 
L 230.332162 82.080848 
L 233.359189 81.979018 
L 236.688919 82.104334 
L 240.321351 82.474085 
L 244.861892 83.179578 
L 251.218649 84.421664 
L 269.986216 88.217854 
L 276.948378 89.328454 
L 283.002432 90.071872 
L 288.451081 90.526549 
L 293.597027 90.733564 
L 298.137568 90.702806 
L 302.375405 90.462449 
L 306.613243 89.994158 
L 310.851081 89.298102 
L 315.997027 88.213733 
L 328.105135 85.556148 
L 332.948378 84.770044 
L 337.791622 84.209941 
L 342.937568 83.841957 
L 348.991622 83.642382 
L 357.77 83.604943 
L 357.77 83.604943 
" style="fill:none;stroke:#000000;stroke-width:1.2;"/>
    <path clip-path="url(#p52ad01315b)" d="M 55.37 33.289429 
L 76.256486 37.597744 
L 87.759189 39.720051 
L 100.17 41.771477 
L 131.953784 46.889194 
L 141.942973 48.822416 
L 153.142973 51.232906 
L 187.953784 59.128278 
L 198.851081 61.811805 
L 214.288919 65.647896 
L 219.132162 66.589706 
L 223.067297 67.125797 
L 226.397027 67.359566 
L 229.424054 67.366366 
L 232.753784 67.13868 
L 236.083514 66.685189 
L 240.018649 65.921382 
L 245.77 64.545268 
L 256.97 61.824344 
L 262.115946 60.829089 
L 266.959189 60.123882 
L 271.802432 59.655071 
L 276.948378 59.3916 
L 283.002432 59.317143 
L 293.294324 59.462946 
L 301.77 59.485978 
L 307.218649 59.285017 
L 311.759189 58.906984 
L 315.997027 58.329725 
L 319.932162 57.563817 
L 323.564595 56.638832 
L 327.197027 55.494175 
L 331.132162 54.006701 
L 335.067297 52.275022 
L 339.305135 50.16444 
L 344.148378 47.487672 
L 349.597027 44.209808 
L 356.256486 39.930728 
L 357.77 38.928386 
L 357.77 38.928386 
" style="fill:none;stroke:#000000;stroke-width:1.2;"/>
    <path clip-path="url(#p52ad01315b)" d="M 55.37 5.522759 
L 62.332162 7.429796 
L 70.807838 9.506147 
L 85.64027 12.855408 
L 99.867297 16.166412 
L 111.672703 19.152929 
L 127.413243 23.390016 
L 153.748378 30.705694 
L 167.37 34.750878 
L 180.083514 38.486686 
L 186.742973 40.200937 
L 192.494324 41.443865 
L 197.942973 42.384514 
L 203.391622 43.096329 
L 209.445676 43.65525 
L 216.710541 44.092651 
L 228.213243 44.527037 
L 245.467297 44.966591 
L 253.034865 44.95514 
L 259.088919 44.725045 
L 264.234865 44.313445 
L 269.380811 43.675354 
L 274.526757 42.814593 
L 280.278108 41.626326 
L 287.24027 39.950859 
L 296.321351 37.5226 
L 308.732162 33.96373 
L 322.051081 29.923846 
L 333.251081 26.304595 
L 342.937568 22.943825 
L 351.413243 19.774488 
L 357.77 17.226929 
L 357.77 17.226929 
" style="fill:none;stroke:#000000;stroke-width:1.2;"/>
    <path clip-path="url(#p52ad01315b)" d="M 147.315224 -1 
L 153.142973 1.03577 
L 158.591622 2.703382 
L 163.434865 3.96266 
L 168.278108 4.996174 
L 173.121351 5.801343 
L 177.964595 6.386004 
L 183.110541 6.781544 
L 188.559189 6.967339 
L 194.007838 6.930454 
L 199.456486 6.678595 
L 204.905135 6.208448 
L 210.353784 5.507569 
L 215.49973 4.618059 
L 220.342973 3.565401 
L 225.186216 2.29409 
L 230.029459 0.799405 
L 235.090134 -1 
L 235.090134 -1 
" style="fill:none;stroke:#000000;stroke-width:1.2;"/>
    <path clip-path="url(#p52ad01315b)" d="M 0 0 
" style="fill:none;stroke:#000000;stroke-width:1.2;"/>
    <path clip-path="url(#p52ad01315b)" d="M 0 0 
" style="fill:none;stroke:#000000;stroke-width:1.2;"/>
    <path clip-path="url(#p52ad01315b)" d="M 0 0 
" style="fill:none;stroke:#000000;stroke-width:1.2;"/>
    <path clip-path="url(#p52ad01315b)" d="M 0 0 
" style="fill:none;stroke:#000000;stroke-width:1.2;"/>
   </g>
   <g id="matplotlib.axis_1">
    <g id="xtick_1">
     <g id="line2d_1">
      <defs>
       <path d="M 0 0 
L 0 3.5 
" id="m0bbeacdb22" style="stroke:#000000;stroke-width:0.8;"/>
      </defs>
      <g>
       <use style="stroke:#000000;stroke-width:0.8;" x="55.37" xlink:href="#m0bbeacdb22" y="315"/>
      </g>
     </g>
     <g id="text_1">
      <!-- 0.0 -->
      <g transform="translate(44.237813 332.637812)scale(0.14 -0.14)">
       <defs>
        <path d="M 31.78125 66.40625 
Q 24.171875 66.40625 20.328125 58.90625 
Q 16.5 51.421875 16.5 36.375 
Q 16.5 21.390625 20.328125 13.890625 
Q 24.171875 6.390625 31.78125 6.390625 
Q 39.453125 6.390625 43.28125 13.890625 
Q 47.125 21.390625 47.125 36.375 
Q 47.125 51.421875 43.28125 58.90625 
Q 39.453125 66.40625 31.78125 66.40625 
z
M 31.78125 74.21875 
Q 44.046875 74.21875 50.515625 64.515625 
Q 56.984375 54.828125 56.984375 36.375 
Q 56.984375 17.96875 50.515625 8.265625 
Q 44.046875 -1.421875 31.78125 -1.421875 
Q 19.53125 -1.421875 13.0625 8.265625 
Q 6.59375 17.96875 6.59375 36.375 
Q 6.59375 54.828125 13.0625 64.515625 
Q 19.53125 74.21875 31.78125 74.21875 
z
" id="DejaVuSans-48"/>
        <path d="M 10.6875 12.40625 
L 21 12.40625 
L 21 0 
L 10.6875 0 
z
" id="DejaVuSans-46"/>
       </defs>
       <use xlink:href="#DejaVuSans-48"/>
       <use x="63.623047" xlink:href="#DejaVuSans-46"/>
       <use x="95.410156" xlink:href="#DejaVuSans-48"/>
      </g>
     </g>
    </g>
    <g id="xtick_2">
     <g id="line2d_2">
      <g>
       <use style="stroke:#000000;stroke-width:0.8;" x="206.57" xlink:href="#m0bbeacdb22" y="315"/>
      </g>
     </g>
     <g id="text_2">
      <!-- 0.5 -->
      <g transform="translate(195.437813 332.637812)scale(0.14 -0.14)">
       <defs>
        <path d="M 10.796875 72.90625 
L 49.515625 72.90625 
L 49.515625 64.59375 
L 19.828125 64.59375 
L 19.828125 46.734375 
Q 21.96875 47.46875 24.109375 47.828125 
Q 26.265625 48.1875 28.421875 48.1875 
Q 40.625 48.1875 47.75 41.5 
Q 54.890625 34.8125 54.890625 23.390625 
Q 54.890625 11.625 47.5625 5.09375 
Q 40.234375 -1.421875 26.90625 -1.421875 
Q 22.3125 -1.421875 17.546875 -0.640625 
Q 12.796875 0.140625 7.71875 1.703125 
L 7.71875 11.625 
Q 12.109375 9.234375 16.796875 8.0625 
Q 21.484375 6.890625 26.703125 6.890625 
Q 35.15625 6.890625 40.078125 11.328125 
Q 45.015625 15.765625 45.015625 23.390625 
Q 45.015625 31 40.078125 35.4375 
Q 35.15625 39.890625 26.703125 39.890625 
Q 22.75 39.890625 18.8125 39.015625 
Q 14.890625 38.140625 10.796875 36.28125 
z
" id="DejaVuSans-53"/>
       </defs>
       <use xlink:href="#DejaVuSans-48"/>
       <use x="63.623047" xlink:href="#DejaVuSans-46"/>
       <use x="95.410156" xlink:href="#DejaVuSans-53"/>
      </g>
     </g>
    </g>
    <g id="xtick_3">
     <g id="line2d_3">
      <g>
       <use style="stroke:#000000;stroke-width:0.8;" x="357.77" xlink:href="#m0bbeacdb22" y="315"/>
      </g>
     </g>
     <g id="text_3">
      <!-- 1.0 -->
      <g transform="translate(346.637812 332.637812)scale(0.14 -0.14)">
       <defs>
        <path d="M 12.40625 8.296875 
L 28.515625 8.296875 
L 28.515625 63.921875 
L 10.984375 60.40625 
L 10.984375 69.390625 
L 28.421875 72.90625 
L 38.28125 72.90625 
L 38.28125 8.296875 
L 54.390625 8.296875 
L 54.390625 0 
L 12.40625 0 
z
" id="DejaVuSans-49"/>
       </defs>
       <use xlink:href="#DejaVuSans-49"/>
       <use x="63.623047" xlink:href="#DejaVuSans-46"/>
       <use x="95.410156" xlink:href="#DejaVuSans-48"/>
      </g>
     </g>
    </g>
    <g id="text_4">
     <!-- $\alpha$ -->
     <g transform="translate(201.026 352.31475)scale(0.168 -0.168)">
      <defs>
       <path d="M 40.921875 25.4375 
L 40.96875 36.71875 
Q 41.015625 48.25 32.328125 48.296875 
Q 25.828125 48.34375 21.78125 42.921875 
Q 16.703125 36.234375 14.984375 27.296875 
Q 12.890625 16.546875 15.53125 11.421875 
Q 18.265625 6.203125 24.171875 6.203125 
Q 30.71875 6.203125 36.234375 16.609375 
z
M 33.84375 55.90625 
Q 49.078125 56.15625 48.875 40.375 
Q 48.875 40.375 56.5 54.6875 
L 64.5 54.6875 
L 48.734375 25.046875 
L 48.578125 14.359375 
Q 48.578125 11.96875 49.90625 9.96875 
Q 51.421875 7.625 52.984375 7.625 
L 57.328125 7.625 
L 55.859375 0 
L 50.4375 0 
Q 45.84375 0 42.53125 4.109375 
Q 40.96875 6.15625 40.921875 10.453125 
Q 37.75 5.21875 32.28125 0.78125 
Q 29.6875 -1.265625 22.703125 -1.21875 
Q 11.28125 -1.125 7.125 6.203125 
Q 2.875 13.8125 5.515625 27.296875 
Q 8.34375 41.796875 15.765625 48.390625 
Q 24.125 55.765625 33.84375 55.90625 
z
" id="DejaVuSans-Oblique-945"/>
      </defs>
      <use transform="translate(0 0.84375)" xlink:href="#DejaVuSans-Oblique-945"/>
     </g>
    </g>
   </g>
   <g id="matplotlib.axis_2">
    <g id="ytick_1">
     <g id="line2d_4">
      <defs>
       <path d="M 0 0 
L -3.5 0 
" id="med1a99f5ff" style="stroke:#000000;stroke-width:0.8;"/>
      </defs>
      <g>
       <use style="stroke:#000000;stroke-width:0.8;" x="55.37" xlink:href="#med1a99f5ff" y="315"/>
      </g>
     </g>
     <g id="text_5">
      <!-- −3 -->
      <g transform="translate(27.730938 320.318906)scale(0.14 -0.14)">
       <defs>
        <path d="M 10.59375 35.5 
L 73.1875 35.5 
L 73.1875 27.203125 
L 10.59375 27.203125 
z
" id="DejaVuSans-8722"/>
        <path d="M 40.578125 39.3125 
Q 47.65625 37.796875 51.625 33 
Q 55.609375 28.21875 55.609375 21.1875 
Q 55.609375 10.40625 48.1875 4.484375 
Q 40.765625 -1.421875 27.09375 -1.421875 
Q 22.515625 -1.421875 17.65625 -0.515625 
Q 12.796875 0.390625 7.625 2.203125 
L 7.625 11.71875 
Q 11.71875 9.328125 16.59375 8.109375 
Q 21.484375 6.890625 26.8125 6.890625 
Q 36.078125 6.890625 40.9375 10.546875 
Q 45.796875 14.203125 45.796875 21.1875 
Q 45.796875 27.640625 41.28125 31.265625 
Q 36.765625 34.90625 28.71875 34.90625 
L 20.21875 34.90625 
L 20.21875 43.015625 
L 29.109375 43.015625 
Q 36.375 43.015625 40.234375 45.921875 
Q 44.09375 48.828125 44.09375 54.296875 
Q 44.09375 59.90625 40.109375 62.90625 
Q 36.140625 65.921875 28.71875 65.921875 
Q 24.65625 65.921875 20.015625 65.03125 
Q 15.375 64.15625 9.8125 62.3125 
L 9.8125 71.09375 
Q 15.4375 72.65625 20.34375 73.4375 
Q 25.25 74.21875 29.59375 74.21875 
Q 40.828125 74.21875 47.359375 69.109375 
Q 53.90625 64.015625 53.90625 55.328125 
Q 53.90625 49.265625 50.4375 45.09375 
Q 46.96875 40.921875 40.578125 39.3125 
z
" id="DejaVuSans-51"/>
       </defs>
       <use xlink:href="#DejaVuSans-8722"/>
       <use x="83.789062" xlink:href="#DejaVuSans-51"/>
      </g>
     </g>
    </g>
    <g id="ytick_2">
     <g id="line2d_5">
      <g>
       <use style="stroke:#000000;stroke-width:0.8;" x="55.37" xlink:href="#med1a99f5ff" y="163.8"/>
      </g>
     </g>
     <g id="text_6">
      <!-- 0 -->
      <g transform="translate(39.4625 169.118906)scale(0.14 -0.14)">
       <use xlink:href="#DejaVuSans-48"/>
      </g>
     </g>
    </g>
    <g id="ytick_3">
     <g id="line2d_6">
      <g>
       <use style="stroke:#000000;stroke-width:0.8;" x="55.37" xlink:href="#med1a99f5ff" y="12.6"/>
      </g>
     </g>
     <g id="text_7">
      <!-- 3 -->
      <g transform="translate(39.4625 17.918906)scale(0.14 -0.14)">
       <use xlink:href="#DejaVuSans-51"/>
      </g>
     </g>
    </g>
    <g id="text_8">
     <!-- $E$ -->
     <g transform="translate(20.237063 169.176)rotate(-90)scale(0.168 -0.168)">
      <defs>
       <path d="M 16.890625 72.90625 
L 62.984375 72.90625 
L 61.375 64.59375 
L 25.09375 64.59375 
L 20.90625 43.015625 
L 55.71875 43.015625 
L 54.109375 34.71875 
L 19.28125 34.71875 
L 14.203125 8.296875 
L 51.3125 8.296875 
L 49.703125 0 
L 2.6875 0 
z
" id="DejaVuSans-Oblique-69"/>
      </defs>
      <use transform="translate(0 0.09375)" xlink:href="#DejaVuSans-Oblique-69"/>
     </g>
    </g>
   </g>
   <g id="line2d_7">
    <path clip-path="url(#p52ad01315b)" d="M 55.37 163.8 
L 357.77 163.8 
" style="fill:none;stroke:#0000ff;stroke-dasharray:7.4,3.2;stroke-dashoffset:0;stroke-width:2;"/>
   </g>
   <g id="patch_3">
    <path d="M 55.37 315 
L 55.37 12.6 
" style="fill:none;stroke:#000000;stroke-linecap:square;stroke-linejoin:miter;stroke-width:0.8;"/>
   </g>
   <g id="patch_4">
    <path d="M 55.37 315 
L 357.77 315 
" style="fill:none;stroke:#000000;stroke-linecap:square;stroke-linejoin:miter;stroke-width:0.8;"/>
   </g>
  </g>
 </g>
 <defs>
  <clipPath id="p52ad01315b">
   <rect height="302.4" width="302.4" x="55.37" y="12.6"/>
  </clipPath>
 </defs>
</svg>
