<?xml version="1.0" encoding="utf-8" standalone="no"?>
<!DOCTYPE svg PUBLIC "-//W3C//DTD SVG 1.1//EN"
  "http://www.w3.org/Graphics/SVG/1.1/DTD/svg11.dtd">
<!-- Created with matplotlib (https://matplotlib.org/) -->
<svg height="337.99702pt" version="1.1" viewBox="0 0 252.35405 337.99702" width="252.35405pt" xmlns="http://www.w3.org/2000/svg" xmlns:xlink="http://www.w3.org/1999/xlink">
 <metadata>
  <rdf:RDF xmlns:cc="http://creativecommons.org/ns#" xmlns:dc="http://purl.org/dc/elements/1.1/" xmlns:rdf="http://www.w3.org/1999/02/22-rdf-syntax-ns#">
   <cc:Work>
    <dc:type rdf:resource="http://purl.org/dc/dcmitype/StillImage"/>
    <dc:date>2022-06-26T10:16:01.710246</dc:date>
    <dc:format>image/svg+xml</dc:format>
    <dc:creator>
     <cc:Agent>
      <dc:title>Matplotlib v3.3.4, https://matplotlib.org/</dc:title>
     </cc:Agent>
    </dc:creator>
   </cc:Work>
  </rdf:RDF>
 </metadata>
 <defs>
  <style type="text/css">*{stroke-linecap:butt;stroke-linejoin:round;}</style>
 </defs>
 <g id="figure_1">
  <g id="patch_1">
   <path d="M 0 337.99702 
L 252.35405 337.99702 
L 252.35405 0 
L 0 0 
z
" style="fill:#ffffff;"/>
  </g>
  <g id="axes_1">
   <g id="patch_2">
    <path d="M 68.78 177.81405 
L 233.99405 177.81405 
L 233.99405 12.6 
L 68.78 12.6 
z
" style="fill:#ffffff;"/>
   </g>
   <g id="LineCollection_1">
    <path clip-path="url(#pbe5ecc769e)" d="M 102.42439 338.99702 
L 108.471063 328.588976 
L 113.763205 319.915944 
L 118.22845 313.016891 
L 121.866797 307.779111 
L 125.009006 303.637358 
L 127.489698 300.70919 
L 129.63963 298.495667 
L 131.458804 296.918536 
L 133.112598 295.763179 
L 134.601013 294.974028 
L 136.089428 294.431651 
L 137.577843 294.131465 
L 139.066258 294.057453 
L 140.720052 294.212594 
L 142.539226 294.632765 
L 144.523779 295.342512 
L 146.673711 296.358752 
L 148.989023 297.694863 
L 151.635094 299.482828 
L 154.611924 301.781638 
L 157.754133 304.498403 
L 161.227101 307.811557 
L 164.865449 311.600576 
L 168.669176 315.882456 
L 172.803661 320.882339 
L 177.103527 326.439654 
L 181.568771 332.573158 
L 185.995139 338.99702 
L 185.995139 338.99702 
" style="fill:none;stroke:#000000;stroke-width:1.2;"/>
    <path clip-path="url(#pbe5ecc769e)" d="M 68.78 328.069798 
L 73.576003 320.324711 
L 78.041248 313.52229 
L 82.010354 307.866671 
L 85.483322 303.296868 
L 88.460152 299.746316 
L 91.106223 296.942784 
L 93.586914 294.640103 
L 96.232985 292.502773 
L 99.044436 290.527495 
L 102.021265 288.701614 
L 105.163475 287.023954 
L 108.471063 285.508455 
L 111.778652 284.236791 
L 115.08624 283.19925 
L 118.559208 282.343841 
L 122.528315 281.606297 
L 130.631907 280.194241 
L 132.947219 279.506775 
L 135.097151 278.634831 
L 137.412463 277.438594 
L 140.554673 275.522636 
L 144.854538 272.909234 
L 147.00447 271.863825 
L 148.823644 271.216832 
L 150.477438 270.849266 
L 152.131233 270.695033 
L 153.950406 270.752154 
L 155.93496 271.045716 
L 158.084892 271.584759 
L 160.565584 272.433503 
L 163.377034 273.629479 
L 166.519243 275.20564 
L 169.992211 277.194639 
L 173.795938 279.630578 
L 177.930424 282.549202 
L 182.230289 285.855212 
L 186.860913 289.698461 
L 191.656916 293.965817 
L 196.783679 298.829437 
L 202.07582 304.158824 
L 207.533342 309.967435 
L 213.321622 316.460637 
L 219.275281 323.483853 
L 225.39432 331.054846 
L 231.531491 338.99702 
L 231.531491 338.99702 
" style="fill:none;stroke:#000000;stroke-width:1.2;"/>
    <path clip-path="url(#pbe5ecc769e)" d="M 68.78 311.463751 
L 75.891315 305.105109 
L 91.767741 291.085902 
L 96.729124 286.12595 
L 103.178921 279.725005 
L 107.148028 276.111864 
L 110.620996 273.251892 
L 113.763205 270.946732 
L 116.740035 269.033329 
L 119.551485 267.478884 
L 122.362935 266.171579 
L 125.174386 265.104455 
L 128.151215 264.22009 
L 131.128045 263.563951 
L 134.435634 263.064054 
L 138.40474 262.703446 
L 146.342953 262.058861 
L 148.823644 261.570464 
L 151.138956 260.887883 
L 153.950406 259.809768 
L 164.038552 255.695778 
L 167.015381 254.828951 
L 169.826832 254.237333 
L 172.472903 253.898836 
L 175.118973 253.782996 
L 177.765044 253.897934 
L 180.245736 254.221001 
L 182.726427 254.756632 
L 185.207119 255.50758 
L 187.853189 256.547053 
L 190.49926 257.831191 
L 193.145331 259.355167 
L 195.956782 261.227665 
L 198.933611 263.478847 
L 202.07582 266.13108 
L 205.548788 269.35737 
L 209.352515 273.197849 
L 213.652381 277.859362 
L 218.613763 283.570487 
L 224.567423 290.770053 
L 232.174877 300.335752 
L 233.99405 302.664906 
L 233.99405 302.664906 
" style="fill:none;stroke:#000000;stroke-width:1.2;"/>
    <path clip-path="url(#pbe5ecc769e)" d="M 68.78 280.725619 
L 74.072142 276.069073 
L 78.868145 272.133448 
L 83.498769 268.616919 
L 87.964014 265.502393 
L 92.429258 262.657634 
L 97.059883 259.972643 
L 102.186645 257.263085 
L 109.29796 253.787925 
L 119.220726 248.91691 
L 125.670524 245.470293 
L 146.839091 233.891719 
L 151.635094 231.669866 
L 155.76958 229.997097 
L 159.407928 228.753997 
L 162.880896 227.801225 
L 166.188484 227.132008 
L 169.330693 226.728974 
L 172.307523 226.565433 
L 175.284353 226.616264 
L 178.426562 226.896896 
L 181.734151 227.428819 
L 185.207119 228.221501 
L 189.010845 229.323278 
L 193.310711 230.803047 
L 198.437473 232.811169 
L 204.225753 235.319631 
L 210.179413 238.135068 
L 215.967693 241.117796 
L 221.259834 244.091436 
L 226.221217 247.126295 
L 231.017221 250.313435 
L 233.99405 252.425243 
L 233.99405 252.425243 
" style="fill:none;stroke:#000000;stroke-width:1.2;"/>
    <path clip-path="url(#pbe5ecc769e)" d="M 68.78 241.015433 
L 78.372007 230.226463 
L 89.12167 218.14103 
L 92.0985 215.155639 
L 94.248432 213.305942 
L 96.232985 211.900151 
L 98.217539 210.769971 
L 100.532851 209.715039 
L 103.344301 208.684843 
L 106.982648 207.602352 
L 111.613272 206.472035 
L 118.06307 205.150356 
L 133.112598 202.1471 
L 139.231637 200.640952 
L 145.185297 198.939068 
L 152.296612 196.654906 
L 161.061722 193.856107 
L 164.53469 192.989595 
L 167.180761 192.54288 
L 169.496073 192.367905 
L 171.646005 192.43036 
L 173.630559 192.706243 
L 175.615112 193.201708 
L 177.765044 193.979195 
L 180.080356 195.067568 
L 182.726427 196.571999 
L 185.868636 198.62256 
L 190.168502 201.717393 
L 196.783679 206.788166 
L 208.690998 216.232238 
L 224.236664 228.856205 
L 233.99405 236.815955 
L 233.99405 236.815955 
" style="fill:none;stroke:#000000;stroke-width:1.2;"/>
    <path clip-path="url(#pbe5ecc769e)" d="M 68.78 220.877447 
L 76.056695 217.172311 
L 85.483322 212.65734 
L 89.948567 210.401753 
L 92.429258 208.9218 
L 94.579191 207.373595 
L 96.729124 205.521594 
L 99.209815 203.065053 
L 102.848163 199.1154 
L 113.597825 187.286723 
L 116.905414 184.031516 
L 119.551485 181.711808 
L 121.866797 179.956117 
L 124.01673 178.58637 
L 126.166662 177.465138 
L 128.481974 176.500155 
L 131.128045 175.637622 
L 134.270254 174.851214 
L 138.073981 174.134178 
L 142.704605 173.497444 
L 148.162126 172.981777 
L 154.446545 172.618733 
L 161.227101 172.448215 
L 168.173037 172.498645 
L 175.945871 172.553295 
L 180.245736 172.315701 
L 189.176225 171.740689 
L 193.47609 171.751735 
L 197.775955 171.990627 
L 202.07582 172.452121 
L 206.375686 173.136956 
L 210.675551 174.048525 
L 214.975416 175.189104 
L 219.275281 176.558349 
L 223.740526 178.219092 
L 228.20577 180.117752 
L 232.836394 182.330963 
L 233.99405 182.922239 
L 233.99405 182.922239 
" style="fill:none;stroke:#000000;stroke-width:1.2;"/>
    <path clip-path="url(#pbe5ecc769e)" d="M 68.78 174.709525 
L 72.252968 174.611903 
L 77.37973 174.707477 
L 95.075329 175.201944 
L 100.367471 175.045467 
L 104.998095 174.696264 
L 109.29796 174.150213 
L 112.936308 173.473575 
L 116.078517 172.673082 
L 118.724588 171.78456 
L 121.205279 170.719373 
L 123.685971 169.395431 
L 126.332042 167.71144 
L 129.80501 165.204086 
L 138.570119 158.747515 
L 141.38157 157.005714 
L 143.531502 155.919239 
L 145.350676 155.241735 
L 146.839091 154.901025 
L 148.327506 154.783953 
L 149.815921 154.90047 
L 151.304335 155.23743 
L 152.95813 155.833564 
L 154.942683 156.788696 
L 157.588754 158.336304 
L 162.550137 161.576653 
L 166.188484 163.826084 
L 168.834555 165.206847 
L 171.149867 166.1644 
L 173.2998 166.81977 
L 175.449732 167.252764 
L 177.765044 167.491128 
L 180.245736 167.513811 
L 182.891807 167.301786 
L 185.703257 166.839364 
L 188.845466 166.084417 
L 192.814572 164.888151 
L 208.856377 159.8032 
L 213.156242 158.795076 
L 216.959969 158.128196 
L 220.267558 157.761279 
L 223.244387 157.639615 
L 226.055838 157.746724 
L 228.536529 158.055866 
L 230.851841 158.553591 
L 233.167153 159.271393 
L 233.99405 159.582399 
L 233.99405 159.582399 
" style="fill:none;stroke:#000000;stroke-width:1.2;"/>
    <path clip-path="url(#pbe5ecc769e)" d="M 68.78 167.339345 
L 74.072142 164.050885 
L 83.994908 157.879459 
L 89.12167 154.968088 
L 93.421535 152.770378 
L 97.390641 150.983098 
L 101.194368 149.511704 
L 104.998095 148.285151 
L 108.801822 147.297331 
L 112.770928 146.500969 
L 117.070794 145.874033 
L 121.701418 145.428887 
L 126.6628 145.176653 
L 131.624183 145.146319 
L 136.254807 145.336894 
L 142.208467 145.83812 
L 145.516055 146.009933 
L 147.665988 145.900883 
L 149.650541 145.568725 
L 151.800474 144.96349 
L 154.446545 143.965918 
L 158.74641 142.063953 
L 168.503796 137.707251 
L 173.2998 135.831584 
L 177.268906 134.5042 
L 180.907253 133.520801 
L 184.214842 132.861073 
L 187.357051 132.468094 
L 190.333881 132.319001 
L 193.310711 132.389012 
L 196.45292 132.69342 
L 199.595129 133.221384 
L 202.902718 134.001737 
L 206.375686 135.049828 
L 210.014033 136.376798 
L 213.983139 138.059504 
L 218.779143 140.35007 
L 231.1826 146.42826 
L 233.99405 147.530978 
L 233.99405 147.530978 
" style="fill:none;stroke:#000000;stroke-width:1.2;"/>
    <path clip-path="url(#pbe5ecc769e)" d="M 68.78 128.172651 
L 79.529663 125.018074 
L 86.475599 122.758037 
L 92.429258 120.588879 
L 98.382918 118.174708 
L 112.109411 112.474682 
L 115.25162 111.494907 
L 118.06307 110.849949 
L 120.543762 110.509352 
L 122.859074 110.424482 
L 125.009006 110.580686 
L 126.993559 110.94745 
L 128.978112 111.5332 
L 131.128045 112.395547 
L 133.774116 113.711498 
L 138.073981 116.154738 
L 142.704605 118.719369 
L 145.681435 120.121152 
L 148.327506 121.132606 
L 150.973577 121.903482 
L 153.619648 122.441315 
L 156.431098 122.787434 
L 159.738686 122.95737 
L 163.707793 122.925866 
L 169.661452 122.626545 
L 195.791402 121.090792 
L 200.587406 121.117292 
L 204.887271 121.360252 
L 209.187136 121.83187 
L 213.487001 122.533089 
L 217.786866 123.45611 
L 222.252111 124.638704 
L 226.882735 126.093364 
L 231.844118 127.890249 
L 233.99405 128.738468 
L 233.99405 128.738468 
" style="fill:none;stroke:#000000;stroke-width:1.2;"/>
    <path clip-path="url(#pbe5ecc769e)" d="M 68.78 97.702443 
L 79.529663 95.213956 
L 85.814081 96.465526 
L 90.775464 97.231931 
L 95.075329 97.675266 
L 98.879056 97.850179 
L 102.352024 97.792675 
L 105.494233 97.529161 
L 108.471063 97.067159 
L 111.447893 96.379426 
L 114.424723 95.463748 
L 115.25162 95.242258 
L 118.889967 96.677401 
L 126.001283 99.553578 
L 128.647354 100.338513 
L 131.128045 100.84394 
L 133.774116 101.15409 
L 136.916325 101.28792 
L 141.050811 101.220093 
L 147.335229 100.862153 
L 175.284353 98.814217 
L 182.064909 98.135256 
L 187.191672 97.39892 
L 191.656916 96.532018 
L 195.956782 95.467556 
L 196.949058 95.22452 
L 201.579682 96.66848 
L 207.202583 98.671349 
L 221.259834 103.786822 
L 226.221217 105.281295 
L 230.686462 106.399702 
L 233.99405 107.083203 
L 233.99405 107.083203 
" style="fill:none;stroke:#000000;stroke-width:1.2;"/>
    <path clip-path="url(#pbe5ecc769e)" d="M 68.78 92.711607 
L 79.529663 95.200094 
L 85.814081 93.948525 
L 90.775464 93.18212 
L 95.075329 92.738785 
L 98.879056 92.563872 
L 102.352024 92.621375 
L 105.494233 92.88489 
L 108.471063 93.346892 
L 111.447893 94.034625 
L 114.424723 94.950302 
L 115.25162 95.171792 
L 118.889967 93.736649 
L 126.001283 90.860472 
L 128.647354 90.075538 
L 131.128045 89.57011 
L 133.774116 89.25996 
L 136.916325 89.12613 
L 141.050811 89.193957 
L 147.335229 89.551897 
L 175.284353 91.599833 
L 182.064909 92.278795 
L 187.191672 93.01513 
L 191.656916 93.882033 
L 195.956782 94.946495 
L 196.949058 95.18953 
L 201.579682 93.74557 
L 207.202583 91.742702 
L 221.259834 86.627228 
L 226.221217 85.132755 
L 230.686462 84.014348 
L 233.99405 83.330847 
L 233.99405 83.330847 
" style="fill:none;stroke:#000000;stroke-width:1.2;"/>
    <path clip-path="url(#pbe5ecc769e)" d="M 68.78 62.241399 
L 79.529663 65.395976 
L 86.475599 67.656013 
L 92.429258 69.825172 
L 98.382918 72.239343 
L 112.109411 77.939368 
L 115.25162 78.919144 
L 118.06307 79.564102 
L 120.543762 79.904699 
L 122.859074 79.989568 
L 125.009006 79.833365 
L 126.993559 79.466601 
L 128.978112 78.880851 
L 131.128045 78.018503 
L 133.774116 76.702553 
L 138.073981 74.259313 
L 142.704605 71.694681 
L 145.681435 70.292898 
L 148.327506 69.281444 
L 150.973577 68.510568 
L 153.619648 67.972735 
L 156.431098 67.626617 
L 159.738686 67.45668 
L 163.707793 67.488185 
L 169.661452 67.787506 
L 195.791402 69.323258 
L 200.587406 69.296759 
L 204.887271 69.053798 
L 209.187136 68.58218 
L 213.487001 67.880962 
L 217.786866 66.95794 
L 222.252111 65.775347 
L 226.882735 64.320686 
L 231.844118 62.523801 
L 233.99405 61.675583 
L 233.99405 61.675583 
" style="fill:none;stroke:#000000;stroke-width:1.2;"/>
    <path clip-path="url(#pbe5ecc769e)" d="M 68.78 23.074705 
L 74.072142 26.363166 
L 83.994908 32.534591 
L 89.12167 35.445963 
L 93.421535 37.643673 
L 97.390641 39.430953 
L 101.194368 40.902346 
L 104.998095 42.1289 
L 108.801822 43.116719 
L 112.770928 43.913081 
L 117.070794 44.540018 
L 121.701418 44.985163 
L 126.6628 45.237397 
L 131.624183 45.267731 
L 136.254807 45.077156 
L 142.208467 44.575931 
L 145.516055 44.404118 
L 147.665988 44.513167 
L 149.650541 44.845325 
L 151.800474 45.450561 
L 154.446545 46.448132 
L 158.74641 48.350098 
L 168.503796 52.706799 
L 173.2998 54.582467 
L 177.268906 55.90985 
L 180.907253 56.89325 
L 184.214842 57.552978 
L 187.357051 57.945957 
L 190.333881 58.09505 
L 193.310711 58.025039 
L 196.45292 57.720631 
L 199.595129 57.192667 
L 202.902718 56.412313 
L 206.375686 55.364223 
L 210.014033 54.037252 
L 213.983139 52.354547 
L 218.779143 50.06398 
L 231.1826 43.985791 
L 233.99405 42.883072 
L 233.99405 42.883072 
" style="fill:none;stroke:#000000;stroke-width:1.2;"/>
    <path clip-path="url(#pbe5ecc769e)" d="M 68.78 15.704526 
L 72.252968 15.802148 
L 77.37973 15.706573 
L 95.075329 15.212106 
L 100.367471 15.368583 
L 104.998095 15.717786 
L 109.29796 16.263837 
L 112.936308 16.940476 
L 116.078517 17.740969 
L 118.724588 18.62949 
L 121.205279 19.694677 
L 123.685971 21.018619 
L 126.332042 22.70261 
L 129.80501 25.209965 
L 138.570119 31.666536 
L 141.38157 33.408337 
L 143.531502 34.494811 
L 145.350676 35.172316 
L 146.839091 35.513025 
L 148.327506 35.630097 
L 149.815921 35.51358 
L 151.304335 35.176621 
L 152.95813 34.580487 
L 154.942683 33.625355 
L 157.588754 32.077746 
L 162.550137 28.837397 
L 166.188484 26.587966 
L 168.834555 25.207203 
L 171.149867 24.249651 
L 173.2998 23.594281 
L 175.449732 23.161287 
L 177.765044 22.922922 
L 180.245736 22.900239 
L 182.891807 23.112265 
L 185.703257 23.574686 
L 188.845466 24.329633 
L 192.814572 25.5259 
L 208.856377 30.61085 
L 213.156242 31.618975 
L 216.959969 32.285854 
L 220.267558 32.652771 
L 223.244387 32.774436 
L 226.055838 32.667327 
L 228.536529 32.358184 
L 230.851841 31.860459 
L 233.167153 31.142658 
L 233.99405 30.831651 
L 233.99405 30.831651 
" style="fill:none;stroke:#000000;stroke-width:1.2;"/>
    <path clip-path="url(#pbe5ecc769e)" d="M 109.733542 -1 
L 114.093964 3.635483 
L 117.401552 6.83968 
L 120.047623 9.101771 
L 122.362935 10.796756 
L 124.512868 12.107736 
L 126.82818 13.248139 
L 129.308871 14.207548 
L 132.120322 15.04847 
L 135.42791 15.804048 
L 139.562396 16.508642 
L 144.358399 17.096177 
L 149.9813 17.559854 
L 156.431098 17.867807 
L 163.211654 17.974018 
L 170.984488 17.856347 
L 176.11125 17.865717 
L 180.411115 18.111031 
L 189.010845 18.669177 
L 193.310711 18.667001 
L 197.610576 18.436742 
L 201.910441 17.98379 
L 206.210306 17.307605 
L 210.510171 16.404813 
L 214.810037 15.273054 
L 219.109902 13.912564 
L 223.575146 12.260749 
L 228.040391 10.370786 
L 232.671015 8.166328 
L 233.99405 7.491812 
L 233.99405 7.491812 
" style="fill:none;stroke:#000000;stroke-width:1.2;"/>
    <path clip-path="url(#pbe5ecc769e)" d="M 0 0 
" style="fill:none;stroke:#000000;stroke-width:1.2;"/>
    <path clip-path="url(#pbe5ecc769e)" d="M 0 0 
" style="fill:none;stroke:#000000;stroke-width:1.2;"/>
    <path clip-path="url(#pbe5ecc769e)" d="M 0 0 
" style="fill:none;stroke:#000000;stroke-width:1.2;"/>
    <path clip-path="url(#pbe5ecc769e)" d="M 0 0 
" style="fill:none;stroke:#000000;stroke-width:1.2;"/>
    <path clip-path="url(#pbe5ecc769e)" d="M 0 0 
" style="fill:none;stroke:#000000;stroke-width:1.2;"/>
   </g>
   <g id="matplotlib.axis_1">
    <g id="xtick_1">
     <g id="line2d_1">
      <defs>
       <path d="M 0 0 
L 0 3.5 
" id="m98cd70f1cf" style="stroke:#000000;stroke-width:0.8;"/>
      </defs>
      <g>
       <use style="stroke:#000000;stroke-width:0.8;" x="68.78" xlink:href="#m98cd70f1cf" y="177.81405"/>
      </g>
     </g>
     <g id="text_1">
      <!-- 0.0 -->
      <g transform="translate(57.647813 195.451863)scale(0.14 -0.14)">
       <defs>
        <path d="M 31.78125 66.40625 
Q 24.171875 66.40625 20.328125 58.90625 
Q 16.5 51.421875 16.5 36.375 
Q 16.5 21.390625 20.328125 13.890625 
Q 24.171875 6.390625 31.78125 6.390625 
Q 39.453125 6.390625 43.28125 13.890625 
Q 47.125 21.390625 47.125 36.375 
Q 47.125 51.421875 43.28125 58.90625 
Q 39.453125 66.40625 31.78125 66.40625 
z
M 31.78125 74.21875 
Q 44.046875 74.21875 50.515625 64.515625 
Q 56.984375 54.828125 56.984375 36.375 
Q 56.984375 17.96875 50.515625 8.265625 
Q 44.046875 -1.421875 31.78125 -1.421875 
Q 19.53125 -1.421875 13.0625 8.265625 
Q 6.59375 17.96875 6.59375 36.375 
Q 6.59375 54.828125 13.0625 64.515625 
Q 19.53125 74.21875 31.78125 74.21875 
z
" id="DejaVuSans-48"/>
        <path d="M 10.6875 12.40625 
L 21 12.40625 
L 21 0 
L 10.6875 0 
z
" id="DejaVuSans-46"/>
       </defs>
       <use xlink:href="#DejaVuSans-48"/>
       <use x="63.623047" xlink:href="#DejaVuSans-46"/>
       <use x="95.410156" xlink:href="#DejaVuSans-48"/>
      </g>
     </g>
    </g>
    <g id="xtick_2">
     <g id="line2d_2">
      <g>
       <use style="stroke:#000000;stroke-width:0.8;" x="151.387025" xlink:href="#m98cd70f1cf" y="177.81405"/>
      </g>
     </g>
     <g id="text_2">
      <!-- 0.5 -->
      <g transform="translate(140.254838 195.451863)scale(0.14 -0.14)">
       <defs>
        <path d="M 10.796875 72.90625 
L 49.515625 72.90625 
L 49.515625 64.59375 
L 19.828125 64.59375 
L 19.828125 46.734375 
Q 21.96875 47.46875 24.109375 47.828125 
Q 26.265625 48.1875 28.421875 48.1875 
Q 40.625 48.1875 47.75 41.5 
Q 54.890625 34.8125 54.890625 23.390625 
Q 54.890625 11.625 47.5625 5.09375 
Q 40.234375 -1.421875 26.90625 -1.421875 
Q 22.3125 -1.421875 17.546875 -0.640625 
Q 12.796875 0.140625 7.71875 1.703125 
L 7.71875 11.625 
Q 12.109375 9.234375 16.796875 8.0625 
Q 21.484375 6.890625 26.703125 6.890625 
Q 35.15625 6.890625 40.078125 11.328125 
Q 45.015625 15.765625 45.015625 23.390625 
Q 45.015625 31 40.078125 35.4375 
Q 35.15625 39.890625 26.703125 39.890625 
Q 22.75 39.890625 18.8125 39.015625 
Q 14.890625 38.140625 10.796875 36.28125 
z
" id="DejaVuSans-53"/>
       </defs>
       <use xlink:href="#DejaVuSans-48"/>
       <use x="63.623047" xlink:href="#DejaVuSans-46"/>
       <use x="95.410156" xlink:href="#DejaVuSans-53"/>
      </g>
     </g>
    </g>
    <g id="xtick_3">
     <g id="line2d_3">
      <g>
       <use style="stroke:#000000;stroke-width:0.8;" x="233.99405" xlink:href="#m98cd70f1cf" y="177.81405"/>
      </g>
     </g>
     <g id="text_3">
      <!-- 1.0 -->
      <g transform="translate(222.861863 195.451863)scale(0.14 -0.14)">
       <defs>
        <path d="M 12.40625 8.296875 
L 28.515625 8.296875 
L 28.515625 63.921875 
L 10.984375 60.40625 
L 10.984375 69.390625 
L 28.421875 72.90625 
L 38.28125 72.90625 
L 38.28125 8.296875 
L 54.390625 8.296875 
L 54.390625 0 
L 12.40625 0 
z
" id="DejaVuSans-49"/>
       </defs>
       <use xlink:href="#DejaVuSans-49"/>
       <use x="63.623047" xlink:href="#DejaVuSans-46"/>
       <use x="95.410156" xlink:href="#DejaVuSans-48"/>
      </g>
     </g>
    </g>
    <g id="text_4">
     <!-- $\alpha$ -->
     <g transform="translate(145.843025 215.1288)scale(0.168 -0.168)">
      <defs>
       <path d="M 40.921875 25.4375 
L 40.96875 36.71875 
Q 41.015625 48.25 32.328125 48.296875 
Q 25.828125 48.34375 21.78125 42.921875 
Q 16.703125 36.234375 14.984375 27.296875 
Q 12.890625 16.546875 15.53125 11.421875 
Q 18.265625 6.203125 24.171875 6.203125 
Q 30.71875 6.203125 36.234375 16.609375 
z
M 33.84375 55.90625 
Q 49.078125 56.15625 48.875 40.375 
Q 48.875 40.375 56.5 54.6875 
L 64.5 54.6875 
L 48.734375 25.046875 
L 48.578125 14.359375 
Q 48.578125 11.96875 49.90625 9.96875 
Q 51.421875 7.625 52.984375 7.625 
L 57.328125 7.625 
L 55.859375 0 
L 50.4375 0 
Q 45.84375 0 42.53125 4.109375 
Q 40.96875 6.15625 40.921875 10.453125 
Q 37.75 5.21875 32.28125 0.78125 
Q 29.6875 -1.265625 22.703125 -1.21875 
Q 11.28125 -1.125 7.125 6.203125 
Q 2.875 13.8125 5.515625 27.296875 
Q 8.34375 41.796875 15.765625 48.390625 
Q 24.125 55.765625 33.84375 55.90625 
z
" id="DejaVuSans-Oblique-945"/>
      </defs>
      <use transform="translate(0 0.84375)" xlink:href="#DejaVuSans-Oblique-945"/>
     </g>
    </g>
   </g>
   <g id="matplotlib.axis_2">
    <g id="ytick_1">
     <g id="line2d_4">
      <defs>
       <path d="M 0 0 
L -3.5 0 
" id="md529eaec3c" style="stroke:#000000;stroke-width:0.8;"/>
      </defs>
      <g>
       <use style="stroke:#000000;stroke-width:0.8;" x="68.78" xlink:href="#md529eaec3c" y="177.81405"/>
      </g>
     </g>
     <g id="text_5">
      <!-- −1.5 -->
      <g transform="translate(27.784062 183.132957)scale(0.14 -0.14)">
       <defs>
        <path d="M 10.59375 35.5 
L 73.1875 35.5 
L 73.1875 27.203125 
L 10.59375 27.203125 
z
" id="DejaVuSans-8722"/>
       </defs>
       <use xlink:href="#DejaVuSans-8722"/>
       <use x="83.789062" xlink:href="#DejaVuSans-49"/>
       <use x="147.412109" xlink:href="#DejaVuSans-46"/>
       <use x="179.199219" xlink:href="#DejaVuSans-53"/>
      </g>
     </g>
    </g>
    <g id="ytick_2">
     <g id="line2d_5">
      <g>
       <use style="stroke:#000000;stroke-width:0.8;" x="68.78" xlink:href="#md529eaec3c" y="95.207025"/>
      </g>
     </g>
     <g id="text_6">
      <!-- 0.0 -->
      <g transform="translate(39.515625 100.525931)scale(0.14 -0.14)">
       <use xlink:href="#DejaVuSans-48"/>
       <use x="63.623047" xlink:href="#DejaVuSans-46"/>
       <use x="95.410156" xlink:href="#DejaVuSans-48"/>
      </g>
     </g>
    </g>
    <g id="ytick_3">
     <g id="line2d_6">
      <g>
       <use style="stroke:#000000;stroke-width:0.8;" x="68.78" xlink:href="#md529eaec3c" y="12.6"/>
      </g>
     </g>
     <g id="text_7">
      <!-- 1.5 -->
      <g transform="translate(39.515625 17.918906)scale(0.14 -0.14)">
       <use xlink:href="#DejaVuSans-49"/>
       <use x="63.623047" xlink:href="#DejaVuSans-46"/>
       <use x="95.410156" xlink:href="#DejaVuSans-53"/>
      </g>
     </g>
    </g>
    <g id="text_8">
     <!-- $E$ -->
     <g transform="translate(20.290187 100.583025)rotate(-90)scale(0.168 -0.168)">
      <defs>
       <path d="M 16.890625 72.90625 
L 62.984375 72.90625 
L 61.375 64.59375 
L 25.09375 64.59375 
L 20.90625 43.015625 
L 55.71875 43.015625 
L 54.109375 34.71875 
L 19.28125 34.71875 
L 14.203125 8.296875 
L 51.3125 8.296875 
L 49.703125 0 
L 2.6875 0 
z
" id="DejaVuSans-Oblique-69"/>
      </defs>
      <use transform="translate(0 0.09375)" xlink:href="#DejaVuSans-Oblique-69"/>
     </g>
    </g>
   </g>
   <g id="line2d_7">
    <path clip-path="url(#pbe5ecc769e)" d="M 68.78 95.207025 
L 233.99405 95.207025 
" style="fill:none;stroke:#0000ff;stroke-dasharray:7.4,3.2;stroke-dashoffset:0;stroke-width:2;"/>
   </g>
   <g id="patch_3">
    <path d="M 68.78 177.81405 
L 68.78 12.6 
" style="fill:none;stroke:#000000;stroke-linecap:square;stroke-linejoin:miter;stroke-width:0.8;"/>
   </g>
   <g id="patch_4">
    <path d="M 68.78 177.81405 
L 233.99405 177.81405 
" style="fill:none;stroke:#000000;stroke-linecap:square;stroke-linejoin:miter;stroke-width:0.8;"/>
   </g>
  </g>
  <g id="axes_2">
   <g id="patch_5">
    <path d="M 68.78 289.55702 
L 233.99405 289.55702 
L 233.99405 248.253508 
L 68.78 248.253508 
z
" style="fill:#ffffff;"/>
   </g>
   <g id="PolyCollection_1">
    <defs>
     <path d="M 68.78 -69.091756 
L 68.78 -86.301553 
L 68.945379 -86.301553 
L 69.110759 -86.301553 
L 69.276138 -86.301553 
L 69.441518 -86.301553 
L 69.606897 -86.301553 
L 69.772277 -86.301553 
L 69.937656 -86.301553 
L 70.103035 -86.301553 
L 70.268415 -86.301553 
L 70.433794 -86.301553 
L 70.599174 -86.301553 
L 70.764553 -86.301553 
L 70.929933 -86.301553 
L 71.095312 -86.301553 
L 71.260691 -86.301553 
L 71.426071 -86.301553 
L 71.59145 -86.301553 
L 71.75683 -86.301553 
L 71.922209 -86.301553 
L 72.087589 -86.301553 
L 72.252968 -86.301553 
L 72.418347 -86.301553 
L 72.583727 -86.301553 
L 72.749106 -86.301553 
L 72.914486 -86.301553 
L 73.079865 -86.301553 
L 73.245245 -86.301553 
L 73.410624 -86.301553 
L 73.576003 -86.301553 
L 73.741383 -86.301553 
L 73.906762 -86.301553 
L 74.072142 -86.301553 
L 74.237521 -86.301553 
L 74.402901 -86.301553 
L 74.56828 -86.301553 
L 74.733659 -86.301553 
L 74.899039 -86.301553 
L 75.064418 -86.301553 
L 75.229798 -86.301553 
L 75.395177 -86.301553 
L 75.560557 -86.301553 
L 75.725936 -86.301553 
L 75.891315 -86.301553 
L 76.056695 -86.301553 
L 76.222074 -86.301553 
L 76.387454 -86.301553 
L 76.552833 -86.301553 
L 76.718213 -86.301553 
L 76.883592 -86.301553 
L 77.048971 -86.301553 
L 77.214351 -86.301553 
L 77.37973 -86.301553 
L 77.54511 -86.301553 
L 77.710489 -86.301553 
L 77.875869 -86.301553 
L 78.041248 -86.301553 
L 78.206628 -86.301553 
L 78.372007 -86.301553 
L 78.537386 -86.301553 
L 78.702766 -86.301553 
L 78.868145 -86.301553 
L 79.033525 -86.301553 
L 79.198904 -86.301553 
L 79.364284 -86.301553 
L 79.529663 -51.881959 
L 79.695042 -51.881959 
L 79.860422 -51.881959 
L 80.025801 -51.881959 
L 80.191181 -51.881959 
L 80.35656 -51.881959 
L 80.52194 -51.881959 
L 80.687319 -51.881959 
L 80.852698 -51.881959 
L 81.018078 -51.881959 
L 81.183457 -51.881959 
L 81.348837 -51.881959 
L 81.514216 -51.881959 
L 81.679596 -51.881959 
L 81.844975 -51.881959 
L 82.010354 -51.881959 
L 82.175734 -51.881959 
L 82.341113 -51.881959 
L 82.506493 -51.881959 
L 82.671872 -51.881959 
L 82.837252 -51.881959 
L 83.002631 -51.881959 
L 83.16801 -51.881959 
L 83.33339 -51.881959 
L 83.498769 -51.881959 
L 83.664149 -51.881959 
L 83.829528 -51.881959 
L 83.994908 -51.881959 
L 84.160287 -51.881959 
L 84.325666 -51.881959 
L 84.491046 -51.881959 
L 84.656425 -51.881959 
L 84.821805 -51.881959 
L 84.987184 -51.881959 
L 85.152564 -51.881959 
L 85.317943 -51.881959 
L 85.483322 -51.881959 
L 85.648702 -51.881959 
L 85.814081 -51.881959 
L 85.979461 -51.881959 
L 86.14484 -51.881959 
L 86.31022 -51.881959 
L 86.475599 -51.881959 
L 86.640978 -51.881959 
L 86.806358 -51.881959 
L 86.971737 -51.881959 
L 87.137117 -51.881959 
L 87.302496 -51.881959 
L 87.467876 -51.881959 
L 87.633255 -51.881959 
L 87.798634 -51.881959 
L 87.964014 -51.881959 
L 88.129393 -51.881959 
L 88.294773 -51.881959 
L 88.460152 -51.881959 
L 88.625532 -51.881959 
L 88.790911 -51.881959 
L 88.95629 -51.881959 
L 89.12167 -51.881959 
L 89.287049 -51.881959 
L 89.452429 -51.881959 
L 89.617808 -51.881959 
L 89.783188 -51.881959 
L 89.948567 -51.881959 
L 90.113946 -51.881959 
L 90.279326 -51.881959 
L 90.444705 -51.881959 
L 90.610085 -51.881959 
L 90.775464 -51.881959 
L 90.940844 -51.881959 
L 91.106223 -51.881959 
L 91.271602 -51.881959 
L 91.436982 -51.881959 
L 91.602361 -51.881959 
L 91.767741 -51.881959 
L 91.93312 -51.881959 
L 92.0985 -51.881959 
L 92.263879 -51.881959 
L 92.429258 -51.881959 
L 92.594638 -51.881959 
L 92.760017 -51.881959 
L 92.925397 -51.881959 
L 93.090776 -51.881959 
L 93.256156 -51.881959 
L 93.421535 -51.881959 
L 93.586914 -51.881959 
L 93.752294 -51.881959 
L 93.917673 -51.881959 
L 94.083053 -51.881959 
L 94.248432 -51.881959 
L 94.413812 -51.881959 
L 94.579191 -51.881959 
L 94.74457 -51.881959 
L 94.90995 -51.881959 
L 95.075329 -51.881959 
L 95.240709 -51.881959 
L 95.406088 -51.881959 
L 95.571468 -51.881959 
L 95.736847 -51.881959 
L 95.902226 -51.881959 
L 96.067606 -51.881959 
L 96.232985 -51.881959 
L 96.398365 -51.881959 
L 96.563744 -51.881959 
L 96.729124 -51.881959 
L 96.894503 -51.881959 
L 97.059883 -51.881959 
L 97.225262 -51.881959 
L 97.390641 -51.881959 
L 97.556021 -51.881959 
L 97.7214 -51.881959 
L 97.88678 -51.881959 
L 98.052159 -51.881959 
L 98.217539 -51.881959 
L 98.382918 -51.881959 
L 98.548297 -51.881959 
L 98.713677 -51.881959 
L 98.879056 -51.881959 
L 99.044436 -51.881959 
L 99.209815 -51.881959 
L 99.375195 -51.881959 
L 99.540574 -51.881959 
L 99.705953 -51.881959 
L 99.871333 -51.881959 
L 100.036712 -51.881959 
L 100.202092 -51.881959 
L 100.367471 -51.881959 
L 100.532851 -51.881959 
L 100.69823 -51.881959 
L 100.863609 -51.881959 
L 101.028989 -51.881959 
L 101.194368 -51.881959 
L 101.359748 -51.881959 
L 101.525127 -51.881959 
L 101.690507 -51.881959 
L 101.855886 -51.881959 
L 102.021265 -51.881959 
L 102.186645 -51.881959 
L 102.352024 -51.881959 
L 102.517404 -51.881959 
L 102.682783 -51.881959 
L 102.848163 -51.881959 
L 103.013542 -51.881959 
L 103.178921 -51.881959 
L 103.344301 -51.881959 
L 103.50968 -51.881959 
L 103.67506 -51.881959 
L 103.840439 -51.881959 
L 104.005819 -51.881959 
L 104.171198 -51.881959 
L 104.336577 -51.881959 
L 104.501957 -51.881959 
L 104.667336 -51.881959 
L 104.832716 -51.881959 
L 104.998095 -51.881959 
L 105.163475 -51.881959 
L 105.328854 -51.881959 
L 105.494233 -51.881959 
L 105.659613 -51.881959 
L 105.824992 -51.881959 
L 105.990372 -51.881959 
L 106.155751 -51.881959 
L 106.321131 -51.881959 
L 106.48651 -51.881959 
L 106.651889 -51.881959 
L 106.817269 -51.881959 
L 106.982648 -51.881959 
L 107.148028 -51.881959 
L 107.313407 -51.881959 
L 107.478787 -51.881959 
L 107.644166 -51.881959 
L 107.809545 -51.881959 
L 107.974925 -51.881959 
L 108.140304 -51.881959 
L 108.305684 -51.881959 
L 108.471063 -51.881959 
L 108.636443 -51.881959 
L 108.801822 -51.881959 
L 108.967201 -51.881959 
L 109.132581 -51.881959 
L 109.29796 -51.881959 
L 109.46334 -51.881959 
L 109.628719 -51.881959 
L 109.794099 -51.881959 
L 109.959478 -51.881959 
L 110.124857 -51.881959 
L 110.290237 -51.881959 
L 110.455616 -51.881959 
L 110.620996 -51.881959 
L 110.786375 -51.881959 
L 110.951755 -51.881959 
L 111.117134 -51.881959 
L 111.282513 -51.881959 
L 111.447893 -51.881959 
L 111.613272 -51.881959 
L 111.778652 -51.881959 
L 111.944031 -51.881959 
L 112.109411 -51.881959 
L 112.27479 -51.881959 
L 112.440169 -51.881959 
L 112.605549 -51.881959 
L 112.770928 -51.881959 
L 112.936308 -51.881959 
L 113.101687 -51.881959 
L 113.267067 -51.881959 
L 113.432446 -51.881959 
L 113.597825 -51.881959 
L 113.763205 -51.881959 
L 113.928584 -51.881959 
L 114.093964 -51.881959 
L 114.259343 -51.881959 
L 114.424723 -51.881959 
L 114.590102 -51.881959 
L 114.755481 -51.881959 
L 114.920861 -51.881959 
L 115.08624 -51.881959 
L 115.25162 -86.301553 
L 115.416999 -86.301553 
L 115.582379 -86.301553 
L 115.747758 -86.301553 
L 115.913138 -86.301553 
L 116.078517 -86.301553 
L 116.243896 -86.301553 
L 116.409276 -86.301553 
L 116.574655 -86.301553 
L 116.740035 -86.301553 
L 116.905414 -86.301553 
L 117.070794 -86.301553 
L 117.236173 -86.301553 
L 117.401552 -86.301553 
L 117.566932 -86.301553 
L 117.732311 -86.301553 
L 117.897691 -86.301553 
L 118.06307 -86.301553 
L 118.22845 -86.301553 
L 118.393829 -86.301553 
L 118.559208 -86.301553 
L 118.724588 -86.301553 
L 118.889967 -86.301553 
L 119.055347 -86.301553 
L 119.220726 -86.301553 
L 119.386106 -86.301553 
L 119.551485 -86.301553 
L 119.716864 -86.301553 
L 119.882244 -86.301553 
L 120.047623 -86.301553 
L 120.213003 -86.301553 
L 120.378382 -86.301553 
L 120.543762 -86.301553 
L 120.709141 -86.301553 
L 120.87452 -86.301553 
L 121.0399 -86.301553 
L 121.205279 -86.301553 
L 121.370659 -86.301553 
L 121.536038 -86.301553 
L 121.701418 -86.301553 
L 121.866797 -86.301553 
L 122.032176 -86.301553 
L 122.197556 -86.301553 
L 122.362935 -86.301553 
L 122.528315 -86.301553 
L 122.693694 -86.301553 
L 122.859074 -86.301553 
L 123.024453 -86.301553 
L 123.189832 -86.301553 
L 123.355212 -86.301553 
L 123.520591 -86.301553 
L 123.685971 -86.301553 
L 123.85135 -86.301553 
L 124.01673 -86.301553 
L 124.182109 -86.301553 
L 124.347488 -86.301553 
L 124.512868 -86.301553 
L 124.678247 -86.301553 
L 124.843627 -86.301553 
L 125.009006 -86.301553 
L 125.174386 -86.301553 
L 125.339765 -86.301553 
L 125.505144 -86.301553 
L 125.670524 -86.301553 
L 125.835903 -86.301553 
L 126.001283 -86.301553 
L 126.166662 -86.301553 
L 126.332042 -86.301553 
L 126.497421 -86.301553 
L 126.6628 -86.301553 
L 126.82818 -86.301553 
L 126.993559 -86.301553 
L 127.158939 -86.301553 
L 127.324318 -86.301553 
L 127.489698 -86.301553 
L 127.655077 -86.301553 
L 127.820456 -86.301553 
L 127.985836 -86.301553 
L 128.151215 -86.301553 
L 128.316595 -86.301553 
L 128.481974 -86.301553 
L 128.647354 -86.301553 
L 128.812733 -86.301553 
L 128.978112 -86.301553 
L 129.143492 -86.301553 
L 129.308871 -86.301553 
L 129.474251 -86.301553 
L 129.63963 -86.301553 
L 129.80501 -86.301553 
L 129.970389 -86.301553 
L 130.135768 -86.301553 
L 130.301148 -86.301553 
L 130.466527 -86.301553 
L 130.631907 -86.301553 
L 130.797286 -86.301553 
L 130.962666 -86.301553 
L 131.128045 -86.301553 
L 131.293424 -86.301553 
L 131.458804 -86.301553 
L 131.624183 -86.301553 
L 131.789563 -86.301553 
L 131.954942 -86.301553 
L 132.120322 -86.301553 
L 132.285701 -86.301553 
L 132.45108 -86.301553 
L 132.61646 -86.301553 
L 132.781839 -86.301553 
L 132.947219 -86.301553 
L 133.112598 -86.301553 
L 133.277978 -86.301553 
L 133.443357 -86.301553 
L 133.608737 -86.301553 
L 133.774116 -86.301553 
L 133.939495 -86.301553 
L 134.104875 -86.301553 
L 134.270254 -86.301553 
L 134.435634 -86.301553 
L 134.601013 -86.301553 
L 134.766393 -86.301553 
L 134.931772 -86.301553 
L 135.097151 -86.301553 
L 135.262531 -86.301553 
L 135.42791 -86.301553 
L 135.59329 -86.301553 
L 135.758669 -86.301553 
L 135.924049 -86.301553 
L 136.089428 -86.301553 
L 136.254807 -86.301553 
L 136.420187 -86.301553 
L 136.585566 -86.301553 
L 136.750946 -86.301553 
L 136.916325 -86.301553 
L 137.081705 -86.301553 
L 137.247084 -86.301553 
L 137.412463 -86.301553 
L 137.577843 -86.301553 
L 137.743222 -86.301553 
L 137.908602 -86.301553 
L 138.073981 -86.301553 
L 138.239361 -86.301553 
L 138.40474 -86.301553 
L 138.570119 -86.301553 
L 138.735499 -86.301553 
L 138.900878 -86.301553 
L 139.066258 -86.301553 
L 139.231637 -86.301553 
L 139.397017 -86.301553 
L 139.562396 -86.301553 
L 139.727775 -86.301553 
L 139.893155 -86.301553 
L 140.058534 -86.301553 
L 140.223914 -86.301553 
L 140.389293 -86.301553 
L 140.554673 -86.301553 
L 140.720052 -86.301553 
L 140.885431 -86.301553 
L 141.050811 -86.301553 
L 141.21619 -86.301553 
L 141.38157 -86.301553 
L 141.546949 -86.301553 
L 141.712329 -86.301553 
L 141.877708 -86.301553 
L 142.043087 -86.301553 
L 142.208467 -86.301553 
L 142.373846 -86.301553 
L 142.539226 -86.301553 
L 142.704605 -86.301553 
L 142.869985 -86.301553 
L 143.035364 -86.301553 
L 143.200743 -86.301553 
L 143.366123 -86.301553 
L 143.531502 -86.301553 
L 143.696882 -86.301553 
L 143.862261 -86.301553 
L 144.027641 -86.301553 
L 144.19302 -86.301553 
L 144.358399 -86.301553 
L 144.523779 -86.301553 
L 144.689158 -86.301553 
L 144.854538 -86.301553 
L 145.019917 -86.301553 
L 145.185297 -86.301553 
L 145.350676 -86.301553 
L 145.516055 -86.301553 
L 145.681435 -86.301553 
L 145.846814 -86.301553 
L 146.012194 -86.301553 
L 146.177573 -86.301553 
L 146.342953 -86.301553 
L 146.508332 -86.301553 
L 146.673711 -86.301553 
L 146.839091 -86.301553 
L 147.00447 -86.301553 
L 147.16985 -86.301553 
L 147.335229 -86.301553 
L 147.500609 -86.301553 
L 147.665988 -86.301553 
L 147.831367 -86.301553 
L 147.996747 -86.301553 
L 148.162126 -86.301553 
L 148.327506 -86.301553 
L 148.492885 -86.301553 
L 148.658265 -86.301553 
L 148.823644 -86.301553 
L 148.989023 -86.301553 
L 149.154403 -86.301553 
L 149.319782 -86.301553 
L 149.485162 -86.301553 
L 149.650541 -86.301553 
L 149.815921 -86.301553 
L 149.9813 -86.301553 
L 150.146679 -86.301553 
L 150.312059 -86.301553 
L 150.477438 -86.301553 
L 150.642818 -86.301553 
L 150.808197 -86.301553 
L 150.973577 -86.301553 
L 151.138956 -86.301553 
L 151.304335 -86.301553 
L 151.469715 -86.301553 
L 151.635094 -86.301553 
L 151.800474 -86.301553 
L 151.965853 -86.301553 
L 152.131233 -86.301553 
L 152.296612 -86.301553 
L 152.461992 -86.301553 
L 152.627371 -86.301553 
L 152.79275 -86.301553 
L 152.95813 -86.301553 
L 153.123509 -86.301553 
L 153.288889 -86.301553 
L 153.454268 -86.301553 
L 153.619648 -86.301553 
L 153.785027 -86.301553 
L 153.950406 -86.301553 
L 154.115786 -86.301553 
L 154.281165 -86.301553 
L 154.446545 -86.301553 
L 154.611924 -86.301553 
L 154.777304 -86.301553 
L 154.942683 -86.301553 
L 155.108062 -86.301553 
L 155.273442 -86.301553 
L 155.438821 -86.301553 
L 155.604201 -86.301553 
L 155.76958 -86.301553 
L 155.93496 -86.301553 
L 156.100339 -86.301553 
L 156.265718 -86.301553 
L 156.431098 -86.301553 
L 156.596477 -86.301553 
L 156.761857 -86.301553 
L 156.927236 -86.301553 
L 157.092616 -86.301553 
L 157.257995 -86.301553 
L 157.423374 -86.301553 
L 157.588754 -86.301553 
L 157.754133 -86.301553 
L 157.919513 -86.301553 
L 158.084892 -86.301553 
L 158.250272 -86.301553 
L 158.415651 -86.301553 
L 158.58103 -86.301553 
L 158.74641 -86.301553 
L 158.911789 -86.301553 
L 159.077169 -86.301553 
L 159.242548 -86.301553 
L 159.407928 -86.301553 
L 159.573307 -86.301553 
L 159.738686 -86.301553 
L 159.904066 -86.301553 
L 160.069445 -86.301553 
L 160.234825 -86.301553 
L 160.400204 -86.301553 
L 160.565584 -86.301553 
L 160.730963 -86.301553 
L 160.896342 -86.301553 
L 161.061722 -86.301553 
L 161.227101 -86.301553 
L 161.392481 -86.301553 
L 161.55786 -86.301553 
L 161.72324 -86.301553 
L 161.888619 -86.301553 
L 162.053998 -86.301553 
L 162.219378 -86.301553 
L 162.384757 -86.301553 
L 162.550137 -86.301553 
L 162.715516 -86.301553 
L 162.880896 -86.301553 
L 163.046275 -86.301553 
L 163.211654 -86.301553 
L 163.377034 -86.301553 
L 163.542413 -86.301553 
L 163.707793 -86.301553 
L 163.873172 -86.301553 
L 164.038552 -86.301553 
L 164.203931 -86.301553 
L 164.36931 -86.301553 
L 164.53469 -86.301553 
L 164.700069 -86.301553 
L 164.865449 -86.301553 
L 165.030828 -86.301553 
L 165.196208 -86.301553 
L 165.361587 -86.301553 
L 165.526966 -86.301553 
L 165.692346 -86.301553 
L 165.857725 -86.301553 
L 166.023105 -86.301553 
L 166.188484 -86.301553 
L 166.353864 -86.301553 
L 166.519243 -86.301553 
L 166.684622 -86.301553 
L 166.850002 -86.301553 
L 167.015381 -86.301553 
L 167.180761 -86.301553 
L 167.34614 -86.301553 
L 167.51152 -86.301553 
L 167.676899 -86.301553 
L 167.842278 -86.301553 
L 168.007658 -86.301553 
L 168.173037 -86.301553 
L 168.338417 -86.301553 
L 168.503796 -86.301553 
L 168.669176 -86.301553 
L 168.834555 -86.301553 
L 168.999934 -86.301553 
L 169.165314 -86.301553 
L 169.330693 -86.301553 
L 169.496073 -86.301553 
L 169.661452 -86.301553 
L 169.826832 -86.301553 
L 169.992211 -86.301553 
L 170.15759 -86.301553 
L 170.32297 -86.301553 
L 170.488349 -86.301553 
L 170.653729 -86.301553 
L 170.819108 -86.301553 
L 170.984488 -86.301553 
L 171.149867 -86.301553 
L 171.315247 -86.301553 
L 171.480626 -86.301553 
L 171.646005 -86.301553 
L 171.811385 -86.301553 
L 171.976764 -86.301553 
L 172.142144 -86.301553 
L 172.307523 -86.301553 
L 172.472903 -86.301553 
L 172.638282 -86.301553 
L 172.803661 -86.301553 
L 172.969041 -86.301553 
L 173.13442 -86.301553 
L 173.2998 -86.301553 
L 173.465179 -86.301553 
L 173.630559 -86.301553 
L 173.795938 -86.301553 
L 173.961317 -86.301553 
L 174.126697 -86.301553 
L 174.292076 -86.301553 
L 174.457456 -86.301553 
L 174.622835 -86.301553 
L 174.788215 -86.301553 
L 174.953594 -86.301553 
L 175.118973 -86.301553 
L 175.284353 -86.301553 
L 175.449732 -86.301553 
L 175.615112 -86.301553 
L 175.780491 -86.301553 
L 175.945871 -86.301553 
L 176.11125 -86.301553 
L 176.276629 -86.301553 
L 176.442009 -86.301553 
L 176.607388 -86.301553 
L 176.772768 -86.301553 
L 176.938147 -86.301553 
L 177.103527 -86.301553 
L 177.268906 -86.301553 
L 177.434285 -86.301553 
L 177.599665 -86.301553 
L 177.765044 -86.301553 
L 177.930424 -86.301553 
L 178.095803 -86.301553 
L 178.261183 -86.301553 
L 178.426562 -86.301553 
L 178.591941 -86.301553 
L 178.757321 -86.301553 
L 178.9227 -86.301553 
L 179.08808 -86.301553 
L 179.253459 -86.301553 
L 179.418839 -86.301553 
L 179.584218 -86.301553 
L 179.749597 -86.301553 
L 179.914977 -86.301553 
L 180.080356 -86.301553 
L 180.245736 -86.301553 
L 180.411115 -86.301553 
L 180.576495 -86.301553 
L 180.741874 -86.301553 
L 180.907253 -86.301553 
L 181.072633 -86.301553 
L 181.238012 -86.301553 
L 181.403392 -86.301553 
L 181.568771 -86.301553 
L 181.734151 -86.301553 
L 181.89953 -86.301553 
L 182.064909 -86.301553 
L 182.230289 -86.301553 
L 182.395668 -86.301553 
L 182.561048 -86.301553 
L 182.726427 -86.301553 
L 182.891807 -86.301553 
L 183.057186 -86.301553 
L 183.222565 -86.301553 
L 183.387945 -86.301553 
L 183.553324 -86.301553 
L 183.718704 -86.301553 
L 183.884083 -86.301553 
L 184.049463 -86.301553 
L 184.214842 -86.301553 
L 184.380221 -86.301553 
L 184.545601 -86.301553 
L 184.71098 -86.301553 
L 184.87636 -86.301553 
L 185.041739 -86.301553 
L 185.207119 -86.301553 
L 185.372498 -86.301553 
L 185.537877 -86.301553 
L 185.703257 -86.301553 
L 185.868636 -86.301553 
L 186.034016 -86.301553 
L 186.199395 -86.301553 
L 186.364775 -86.301553 
L 186.530154 -86.301553 
L 186.695533 -86.301553 
L 186.860913 -86.301553 
L 187.026292 -86.301553 
L 187.191672 -86.301553 
L 187.357051 -86.301553 
L 187.522431 -86.301553 
L 187.68781 -86.301553 
L 187.853189 -86.301553 
L 188.018569 -86.301553 
L 188.183948 -86.301553 
L 188.349328 -86.301553 
L 188.514707 -86.301553 
L 188.680087 -86.301553 
L 188.845466 -86.301553 
L 189.010845 -86.301553 
L 189.176225 -86.301553 
L 189.341604 -86.301553 
L 189.506984 -86.301553 
L 189.672363 -86.301553 
L 189.837743 -86.301553 
L 190.003122 -86.301553 
L 190.168502 -86.301553 
L 190.333881 -86.301553 
L 190.49926 -86.301553 
L 190.66464 -86.301553 
L 190.830019 -86.301553 
L 190.995399 -86.301553 
L 191.160778 -86.301553 
L 191.326158 -86.301553 
L 191.491537 -86.301553 
L 191.656916 -86.301553 
L 191.822296 -86.301553 
L 191.987675 -86.301553 
L 192.153055 -86.301553 
L 192.318434 -86.301553 
L 192.483814 -86.301553 
L 192.649193 -86.301553 
L 192.814572 -86.301553 
L 192.979952 -86.301553 
L 193.145331 -86.301553 
L 193.310711 -86.301553 
L 193.47609 -86.301553 
L 193.64147 -86.301553 
L 193.806849 -86.301553 
L 193.972228 -86.301553 
L 194.137608 -86.301553 
L 194.302987 -86.301553 
L 194.468367 -86.301553 
L 194.633746 -86.301553 
L 194.799126 -86.301553 
L 194.964505 -86.301553 
L 195.129884 -86.301553 
L 195.295264 -86.301553 
L 195.460643 -86.301553 
L 195.626023 -86.301553 
L 195.791402 -86.301553 
L 195.956782 -86.301553 
L 196.122161 -86.301553 
L 196.28754 -86.301553 
L 196.45292 -86.301553 
L 196.618299 -86.301553 
L 196.783679 -86.301553 
L 196.949058 -51.881959 
L 197.114438 -51.881959 
L 197.279817 -51.881959 
L 197.445196 -51.881959 
L 197.610576 -51.881959 
L 197.775955 -51.881959 
L 197.941335 -51.881959 
L 198.106714 -51.881959 
L 198.272094 -51.881959 
L 198.437473 -51.881959 
L 198.602852 -51.881959 
L 198.768232 -51.881959 
L 198.933611 -51.881959 
L 199.098991 -51.881959 
L 199.26437 -51.881959 
L 199.42975 -51.881959 
L 199.595129 -51.881959 
L 199.760508 -51.881959 
L 199.925888 -51.881959 
L 200.091267 -51.881959 
L 200.256647 -51.881959 
L 200.422026 -51.881959 
L 200.587406 -51.881959 
L 200.752785 -51.881959 
L 200.918164 -51.881959 
L 201.083544 -51.881959 
L 201.248923 -51.881959 
L 201.414303 -51.881959 
L 201.579682 -51.881959 
L 201.745062 -51.881959 
L 201.910441 -51.881959 
L 202.07582 -51.881959 
L 202.2412 -51.881959 
L 202.406579 -51.881959 
L 202.571959 -51.881959 
L 202.737338 -51.881959 
L 202.902718 -51.881959 
L 203.068097 -51.881959 
L 203.233476 -51.881959 
L 203.398856 -51.881959 
L 203.564235 -51.881959 
L 203.729615 -51.881959 
L 203.894994 -51.881959 
L 204.060374 -51.881959 
L 204.225753 -51.881959 
L 204.391132 -51.881959 
L 204.556512 -51.881959 
L 204.721891 -51.881959 
L 204.887271 -51.881959 
L 205.05265 -51.881959 
L 205.21803 -51.881959 
L 205.383409 -51.881959 
L 205.548788 -51.881959 
L 205.714168 -51.881959 
L 205.879547 -51.881959 
L 206.044927 -51.881959 
L 206.210306 -51.881959 
L 206.375686 -51.881959 
L 206.541065 -51.881959 
L 206.706444 -51.881959 
L 206.871824 -51.881959 
L 207.037203 -51.881959 
L 207.202583 -51.881959 
L 207.367962 -51.881959 
L 207.533342 -51.881959 
L 207.698721 -51.881959 
L 207.864101 -51.881959 
L 208.02948 -51.881959 
L 208.194859 -51.881959 
L 208.360239 -51.881959 
L 208.525618 -51.881959 
L 208.690998 -51.881959 
L 208.856377 -51.881959 
L 209.021757 -51.881959 
L 209.187136 -51.881959 
L 209.352515 -51.881959 
L 209.517895 -51.881959 
L 209.683274 -51.881959 
L 209.848654 -51.881959 
L 210.014033 -51.881959 
L 210.179413 -51.881959 
L 210.344792 -51.881959 
L 210.510171 -51.881959 
L 210.675551 -51.881959 
L 210.84093 -51.881959 
L 211.00631 -51.881959 
L 211.171689 -51.881959 
L 211.337069 -51.881959 
L 211.502448 -51.881959 
L 211.667827 -51.881959 
L 211.833207 -51.881959 
L 211.998586 -51.881959 
L 212.163966 -51.881959 
L 212.329345 -51.881959 
L 212.494725 -51.881959 
L 212.660104 -51.881959 
L 212.825483 -51.881959 
L 212.990863 -51.881959 
L 213.156242 -51.881959 
L 213.321622 -51.881959 
L 213.487001 -51.881959 
L 213.652381 -51.881959 
L 213.81776 -51.881959 
L 213.983139 -51.881959 
L 214.148519 -51.881959 
L 214.313898 -51.881959 
L 214.479278 -51.881959 
L 214.644657 -51.881959 
L 214.810037 -51.881959 
L 214.975416 -51.881959 
L 215.140795 -51.881959 
L 215.306175 -51.881959 
L 215.471554 -51.881959 
L 215.636934 -51.881959 
L 215.802313 -51.881959 
L 215.967693 -51.881959 
L 216.133072 -51.881959 
L 216.298451 -51.881959 
L 216.463831 -51.881959 
L 216.62921 -51.881959 
L 216.79459 -51.881959 
L 216.959969 -51.881959 
L 217.125349 -51.881959 
L 217.290728 -51.881959 
L 217.456107 -51.881959 
L 217.621487 -51.881959 
L 217.786866 -51.881959 
L 217.952246 -51.881959 
L 218.117625 -51.881959 
L 218.283005 -51.881959 
L 218.448384 -51.881959 
L 218.613763 -51.881959 
L 218.779143 -51.881959 
L 218.944522 -51.881959 
L 219.109902 -51.881959 
L 219.275281 -51.881959 
L 219.440661 -51.881959 
L 219.60604 -51.881959 
L 219.771419 -51.881959 
L 219.936799 -51.881959 
L 220.102178 -51.881959 
L 220.267558 -51.881959 
L 220.432937 -51.881959 
L 220.598317 -51.881959 
L 220.763696 -51.881959 
L 220.929075 -51.881959 
L 221.094455 -51.881959 
L 221.259834 -51.881959 
L 221.425214 -51.881959 
L 221.590593 -51.881959 
L 221.755973 -51.881959 
L 221.921352 -51.881959 
L 222.086731 -51.881959 
L 222.252111 -51.881959 
L 222.41749 -51.881959 
L 222.58287 -51.881959 
L 222.748249 -51.881959 
L 222.913629 -51.881959 
L 223.079008 -51.881959 
L 223.244387 -51.881959 
L 223.409767 -51.881959 
L 223.575146 -51.881959 
L 223.740526 -51.881959 
L 223.905905 -51.881959 
L 224.071285 -51.881959 
L 224.236664 -51.881959 
L 224.402043 -51.881959 
L 224.567423 -51.881959 
L 224.732802 -51.881959 
L 224.898182 -51.881959 
L 225.063561 -51.881959 
L 225.228941 -51.881959 
L 225.39432 -51.881959 
L 225.559699 -51.881959 
L 225.725079 -51.881959 
L 225.890458 -51.881959 
L 226.055838 -51.881959 
L 226.221217 -51.881959 
L 226.386597 -51.881959 
L 226.551976 -51.881959 
L 226.717356 -51.881959 
L 226.882735 -51.881959 
L 227.048114 -51.881959 
L 227.213494 -51.881959 
L 227.378873 -51.881959 
L 227.544253 -51.881959 
L 227.709632 -51.881959 
L 227.875012 -51.881959 
L 228.040391 -51.881959 
L 228.20577 -51.881959 
L 228.37115 -51.881959 
L 228.536529 -51.881959 
L 228.701909 -51.881959 
L 228.867288 -51.881959 
L 229.032668 -51.881959 
L 229.198047 -51.881959 
L 229.363426 -51.881959 
L 229.528806 -51.881959 
L 229.694185 -51.881959 
L 229.859565 -51.881959 
L 230.024944 -51.881959 
L 230.190324 -51.881959 
L 230.355703 -51.881959 
L 230.521082 -51.881959 
L 230.686462 -51.881959 
L 230.851841 -51.881959 
L 231.017221 -51.881959 
L 231.1826 -51.881959 
L 231.34798 -51.881959 
L 231.513359 -51.881959 
L 231.678738 -51.881959 
L 231.844118 -51.881959 
L 232.009497 -51.881959 
L 232.174877 -51.881959 
L 232.340256 -51.881959 
L 232.505636 -51.881959 
L 232.671015 -51.881959 
L 232.836394 -51.881959 
L 233.001774 -51.881959 
L 233.167153 -51.881959 
L 233.332533 -51.881959 
L 233.497912 -51.881959 
L 233.663292 -51.881959 
L 233.828671 -51.881959 
L 233.99405 -51.881959 
L 233.99405 -69.091756 
L 233.99405 -69.091756 
L 233.828671 -69.091756 
L 233.663292 -69.091756 
L 233.497912 -69.091756 
L 233.332533 -69.091756 
L 233.167153 -69.091756 
L 233.001774 -69.091756 
L 232.836394 -69.091756 
L 232.671015 -69.091756 
L 232.505636 -69.091756 
L 232.340256 -69.091756 
L 232.174877 -69.091756 
L 232.009497 -69.091756 
L 231.844118 -69.091756 
L 231.678738 -69.091756 
L 231.513359 -69.091756 
L 231.34798 -69.091756 
L 231.1826 -69.091756 
L 231.017221 -69.091756 
L 230.851841 -69.091756 
L 230.686462 -69.091756 
L 230.521082 -69.091756 
L 230.355703 -69.091756 
L 230.190324 -69.091756 
L 230.024944 -69.091756 
L 229.859565 -69.091756 
L 229.694185 -69.091756 
L 229.528806 -69.091756 
L 229.363426 -69.091756 
L 229.198047 -69.091756 
L 229.032668 -69.091756 
L 228.867288 -69.091756 
L 228.701909 -69.091756 
L 228.536529 -69.091756 
L 228.37115 -69.091756 
L 228.20577 -69.091756 
L 228.040391 -69.091756 
L 227.875012 -69.091756 
L 227.709632 -69.091756 
L 227.544253 -69.091756 
L 227.378873 -69.091756 
L 227.213494 -69.091756 
L 227.048114 -69.091756 
L 226.882735 -69.091756 
L 226.717356 -69.091756 
L 226.551976 -69.091756 
L 226.386597 -69.091756 
L 226.221217 -69.091756 
L 226.055838 -69.091756 
L 225.890458 -69.091756 
L 225.725079 -69.091756 
L 225.559699 -69.091756 
L 225.39432 -69.091756 
L 225.228941 -69.091756 
L 225.063561 -69.091756 
L 224.898182 -69.091756 
L 224.732802 -69.091756 
L 224.567423 -69.091756 
L 224.402043 -69.091756 
L 224.236664 -69.091756 
L 224.071285 -69.091756 
L 223.905905 -69.091756 
L 223.740526 -69.091756 
L 223.575146 -69.091756 
L 223.409767 -69.091756 
L 223.244387 -69.091756 
L 223.079008 -69.091756 
L 222.913629 -69.091756 
L 222.748249 -69.091756 
L 222.58287 -69.091756 
L 222.41749 -69.091756 
L 222.252111 -69.091756 
L 222.086731 -69.091756 
L 221.921352 -69.091756 
L 221.755973 -69.091756 
L 221.590593 -69.091756 
L 221.425214 -69.091756 
L 221.259834 -69.091756 
L 221.094455 -69.091756 
L 220.929075 -69.091756 
L 220.763696 -69.091756 
L 220.598317 -69.091756 
L 220.432937 -69.091756 
L 220.267558 -69.091756 
L 220.102178 -69.091756 
L 219.936799 -69.091756 
L 219.771419 -69.091756 
L 219.60604 -69.091756 
L 219.440661 -69.091756 
L 219.275281 -69.091756 
L 219.109902 -69.091756 
L 218.944522 -69.091756 
L 218.779143 -69.091756 
L 218.613763 -69.091756 
L 218.448384 -69.091756 
L 218.283005 -69.091756 
L 218.117625 -69.091756 
L 217.952246 -69.091756 
L 217.786866 -69.091756 
L 217.621487 -69.091756 
L 217.456107 -69.091756 
L 217.290728 -69.091756 
L 217.125349 -69.091756 
L 216.959969 -69.091756 
L 216.79459 -69.091756 
L 216.62921 -69.091756 
L 216.463831 -69.091756 
L 216.298451 -69.091756 
L 216.133072 -69.091756 
L 215.967693 -69.091756 
L 215.802313 -69.091756 
L 215.636934 -69.091756 
L 215.471554 -69.091756 
L 215.306175 -69.091756 
L 215.140795 -69.091756 
L 214.975416 -69.091756 
L 214.810037 -69.091756 
L 214.644657 -69.091756 
L 214.479278 -69.091756 
L 214.313898 -69.091756 
L 214.148519 -69.091756 
L 213.983139 -69.091756 
L 213.81776 -69.091756 
L 213.652381 -69.091756 
L 213.487001 -69.091756 
L 213.321622 -69.091756 
L 213.156242 -69.091756 
L 212.990863 -69.091756 
L 212.825483 -69.091756 
L 212.660104 -69.091756 
L 212.494725 -69.091756 
L 212.329345 -69.091756 
L 212.163966 -69.091756 
L 211.998586 -69.091756 
L 211.833207 -69.091756 
L 211.667827 -69.091756 
L 211.502448 -69.091756 
L 211.337069 -69.091756 
L 211.171689 -69.091756 
L 211.00631 -69.091756 
L 210.84093 -69.091756 
L 210.675551 -69.091756 
L 210.510171 -69.091756 
L 210.344792 -69.091756 
L 210.179413 -69.091756 
L 210.014033 -69.091756 
L 209.848654 -69.091756 
L 209.683274 -69.091756 
L 209.517895 -69.091756 
L 209.352515 -69.091756 
L 209.187136 -69.091756 
L 209.021757 -69.091756 
L 208.856377 -69.091756 
L 208.690998 -69.091756 
L 208.525618 -69.091756 
L 208.360239 -69.091756 
L 208.194859 -69.091756 
L 208.02948 -69.091756 
L 207.864101 -69.091756 
L 207.698721 -69.091756 
L 207.533342 -69.091756 
L 207.367962 -69.091756 
L 207.202583 -69.091756 
L 207.037203 -69.091756 
L 206.871824 -69.091756 
L 206.706444 -69.091756 
L 206.541065 -69.091756 
L 206.375686 -69.091756 
L 206.210306 -69.091756 
L 206.044927 -69.091756 
L 205.879547 -69.091756 
L 205.714168 -69.091756 
L 205.548788 -69.091756 
L 205.383409 -69.091756 
L 205.21803 -69.091756 
L 205.05265 -69.091756 
L 204.887271 -69.091756 
L 204.721891 -69.091756 
L 204.556512 -69.091756 
L 204.391132 -69.091756 
L 204.225753 -69.091756 
L 204.060374 -69.091756 
L 203.894994 -69.091756 
L 203.729615 -69.091756 
L 203.564235 -69.091756 
L 203.398856 -69.091756 
L 203.233476 -69.091756 
L 203.068097 -69.091756 
L 202.902718 -69.091756 
L 202.737338 -69.091756 
L 202.571959 -69.091756 
L 202.406579 -69.091756 
L 202.2412 -69.091756 
L 202.07582 -69.091756 
L 201.910441 -69.091756 
L 201.745062 -69.091756 
L 201.579682 -69.091756 
L 201.414303 -69.091756 
L 201.248923 -69.091756 
L 201.083544 -69.091756 
L 200.918164 -69.091756 
L 200.752785 -69.091756 
L 200.587406 -69.091756 
L 200.422026 -69.091756 
L 200.256647 -69.091756 
L 200.091267 -69.091756 
L 199.925888 -69.091756 
L 199.760508 -69.091756 
L 199.595129 -69.091756 
L 199.42975 -69.091756 
L 199.26437 -69.091756 
L 199.098991 -69.091756 
L 198.933611 -69.091756 
L 198.768232 -69.091756 
L 198.602852 -69.091756 
L 198.437473 -69.091756 
L 198.272094 -69.091756 
L 198.106714 -69.091756 
L 197.941335 -69.091756 
L 197.775955 -69.091756 
L 197.610576 -69.091756 
L 197.445196 -69.091756 
L 197.279817 -69.091756 
L 197.114438 -69.091756 
L 196.949058 -69.091756 
L 196.783679 -69.091756 
L 196.618299 -69.091756 
L 196.45292 -69.091756 
L 196.28754 -69.091756 
L 196.122161 -69.091756 
L 195.956782 -69.091756 
L 195.791402 -69.091756 
L 195.626023 -69.091756 
L 195.460643 -69.091756 
L 195.295264 -69.091756 
L 195.129884 -69.091756 
L 194.964505 -69.091756 
L 194.799126 -69.091756 
L 194.633746 -69.091756 
L 194.468367 -69.091756 
L 194.302987 -69.091756 
L 194.137608 -69.091756 
L 193.972228 -69.091756 
L 193.806849 -69.091756 
L 193.64147 -69.091756 
L 193.47609 -69.091756 
L 193.310711 -69.091756 
L 193.145331 -69.091756 
L 192.979952 -69.091756 
L 192.814572 -69.091756 
L 192.649193 -69.091756 
L 192.483814 -69.091756 
L 192.318434 -69.091756 
L 192.153055 -69.091756 
L 191.987675 -69.091756 
L 191.822296 -69.091756 
L 191.656916 -69.091756 
L 191.491537 -69.091756 
L 191.326158 -69.091756 
L 191.160778 -69.091756 
L 190.995399 -69.091756 
L 190.830019 -69.091756 
L 190.66464 -69.091756 
L 190.49926 -69.091756 
L 190.333881 -69.091756 
L 190.168502 -69.091756 
L 190.003122 -69.091756 
L 189.837743 -69.091756 
L 189.672363 -69.091756 
L 189.506984 -69.091756 
L 189.341604 -69.091756 
L 189.176225 -69.091756 
L 189.010845 -69.091756 
L 188.845466 -69.091756 
L 188.680087 -69.091756 
L 188.514707 -69.091756 
L 188.349328 -69.091756 
L 188.183948 -69.091756 
L 188.018569 -69.091756 
L 187.853189 -69.091756 
L 187.68781 -69.091756 
L 187.522431 -69.091756 
L 187.357051 -69.091756 
L 187.191672 -69.091756 
L 187.026292 -69.091756 
L 186.860913 -69.091756 
L 186.695533 -69.091756 
L 186.530154 -69.091756 
L 186.364775 -69.091756 
L 186.199395 -69.091756 
L 186.034016 -69.091756 
L 185.868636 -69.091756 
L 185.703257 -69.091756 
L 185.537877 -69.091756 
L 185.372498 -69.091756 
L 185.207119 -69.091756 
L 185.041739 -69.091756 
L 184.87636 -69.091756 
L 184.71098 -69.091756 
L 184.545601 -69.091756 
L 184.380221 -69.091756 
L 184.214842 -69.091756 
L 184.049463 -69.091756 
L 183.884083 -69.091756 
L 183.718704 -69.091756 
L 183.553324 -69.091756 
L 183.387945 -69.091756 
L 183.222565 -69.091756 
L 183.057186 -69.091756 
L 182.891807 -69.091756 
L 182.726427 -69.091756 
L 182.561048 -69.091756 
L 182.395668 -69.091756 
L 182.230289 -69.091756 
L 182.064909 -69.091756 
L 181.89953 -69.091756 
L 181.734151 -69.091756 
L 181.568771 -69.091756 
L 181.403392 -69.091756 
L 181.238012 -69.091756 
L 181.072633 -69.091756 
L 180.907253 -69.091756 
L 180.741874 -69.091756 
L 180.576495 -69.091756 
L 180.411115 -69.091756 
L 180.245736 -69.091756 
L 180.080356 -69.091756 
L 179.914977 -69.091756 
L 179.749597 -69.091756 
L 179.584218 -69.091756 
L 179.418839 -69.091756 
L 179.253459 -69.091756 
L 179.08808 -69.091756 
L 178.9227 -69.091756 
L 178.757321 -69.091756 
L 178.591941 -69.091756 
L 178.426562 -69.091756 
L 178.261183 -69.091756 
L 178.095803 -69.091756 
L 177.930424 -69.091756 
L 177.765044 -69.091756 
L 177.599665 -69.091756 
L 177.434285 -69.091756 
L 177.268906 -69.091756 
L 177.103527 -69.091756 
L 176.938147 -69.091756 
L 176.772768 -69.091756 
L 176.607388 -69.091756 
L 176.442009 -69.091756 
L 176.276629 -69.091756 
L 176.11125 -69.091756 
L 175.945871 -69.091756 
L 175.780491 -69.091756 
L 175.615112 -69.091756 
L 175.449732 -69.091756 
L 175.284353 -69.091756 
L 175.118973 -69.091756 
L 174.953594 -69.091756 
L 174.788215 -69.091756 
L 174.622835 -69.091756 
L 174.457456 -69.091756 
L 174.292076 -69.091756 
L 174.126697 -69.091756 
L 173.961317 -69.091756 
L 173.795938 -69.091756 
L 173.630559 -69.091756 
L 173.465179 -69.091756 
L 173.2998 -69.091756 
L 173.13442 -69.091756 
L 172.969041 -69.091756 
L 172.803661 -69.091756 
L 172.638282 -69.091756 
L 172.472903 -69.091756 
L 172.307523 -69.091756 
L 172.142144 -69.091756 
L 171.976764 -69.091756 
L 171.811385 -69.091756 
L 171.646005 -69.091756 
L 171.480626 -69.091756 
L 171.315247 -69.091756 
L 171.149867 -69.091756 
L 170.984488 -69.091756 
L 170.819108 -69.091756 
L 170.653729 -69.091756 
L 170.488349 -69.091756 
L 170.32297 -69.091756 
L 170.15759 -69.091756 
L 169.992211 -69.091756 
L 169.826832 -69.091756 
L 169.661452 -69.091756 
L 169.496073 -69.091756 
L 169.330693 -69.091756 
L 169.165314 -69.091756 
L 168.999934 -69.091756 
L 168.834555 -69.091756 
L 168.669176 -69.091756 
L 168.503796 -69.091756 
L 168.338417 -69.091756 
L 168.173037 -69.091756 
L 168.007658 -69.091756 
L 167.842278 -69.091756 
L 167.676899 -69.091756 
L 167.51152 -69.091756 
L 167.34614 -69.091756 
L 167.180761 -69.091756 
L 167.015381 -69.091756 
L 166.850002 -69.091756 
L 166.684622 -69.091756 
L 166.519243 -69.091756 
L 166.353864 -69.091756 
L 166.188484 -69.091756 
L 166.023105 -69.091756 
L 165.857725 -69.091756 
L 165.692346 -69.091756 
L 165.526966 -69.091756 
L 165.361587 -69.091756 
L 165.196208 -69.091756 
L 165.030828 -69.091756 
L 164.865449 -69.091756 
L 164.700069 -69.091756 
L 164.53469 -69.091756 
L 164.36931 -69.091756 
L 164.203931 -69.091756 
L 164.038552 -69.091756 
L 163.873172 -69.091756 
L 163.707793 -69.091756 
L 163.542413 -69.091756 
L 163.377034 -69.091756 
L 163.211654 -69.091756 
L 163.046275 -69.091756 
L 162.880896 -69.091756 
L 162.715516 -69.091756 
L 162.550137 -69.091756 
L 162.384757 -69.091756 
L 162.219378 -69.091756 
L 162.053998 -69.091756 
L 161.888619 -69.091756 
L 161.72324 -69.091756 
L 161.55786 -69.091756 
L 161.392481 -69.091756 
L 161.227101 -69.091756 
L 161.061722 -69.091756 
L 160.896342 -69.091756 
L 160.730963 -69.091756 
L 160.565584 -69.091756 
L 160.400204 -69.091756 
L 160.234825 -69.091756 
L 160.069445 -69.091756 
L 159.904066 -69.091756 
L 159.738686 -69.091756 
L 159.573307 -69.091756 
L 159.407928 -69.091756 
L 159.242548 -69.091756 
L 159.077169 -69.091756 
L 158.911789 -69.091756 
L 158.74641 -69.091756 
L 158.58103 -69.091756 
L 158.415651 -69.091756 
L 158.250272 -69.091756 
L 158.084892 -69.091756 
L 157.919513 -69.091756 
L 157.754133 -69.091756 
L 157.588754 -69.091756 
L 157.423374 -69.091756 
L 157.257995 -69.091756 
L 157.092616 -69.091756 
L 156.927236 -69.091756 
L 156.761857 -69.091756 
L 156.596477 -69.091756 
L 156.431098 -69.091756 
L 156.265718 -69.091756 
L 156.100339 -69.091756 
L 155.93496 -69.091756 
L 155.76958 -69.091756 
L 155.604201 -69.091756 
L 155.438821 -69.091756 
L 155.273442 -69.091756 
L 155.108062 -69.091756 
L 154.942683 -69.091756 
L 154.777304 -69.091756 
L 154.611924 -69.091756 
L 154.446545 -69.091756 
L 154.281165 -69.091756 
L 154.115786 -69.091756 
L 153.950406 -69.091756 
L 153.785027 -69.091756 
L 153.619648 -69.091756 
L 153.454268 -69.091756 
L 153.288889 -69.091756 
L 153.123509 -69.091756 
L 152.95813 -69.091756 
L 152.79275 -69.091756 
L 152.627371 -69.091756 
L 152.461992 -69.091756 
L 152.296612 -69.091756 
L 152.131233 -69.091756 
L 151.965853 -69.091756 
L 151.800474 -69.091756 
L 151.635094 -69.091756 
L 151.469715 -69.091756 
L 151.304335 -69.091756 
L 151.138956 -69.091756 
L 150.973577 -69.091756 
L 150.808197 -69.091756 
L 150.642818 -69.091756 
L 150.477438 -69.091756 
L 150.312059 -69.091756 
L 150.146679 -69.091756 
L 149.9813 -69.091756 
L 149.815921 -69.091756 
L 149.650541 -69.091756 
L 149.485162 -69.091756 
L 149.319782 -69.091756 
L 149.154403 -69.091756 
L 148.989023 -69.091756 
L 148.823644 -69.091756 
L 148.658265 -69.091756 
L 148.492885 -69.091756 
L 148.327506 -69.091756 
L 148.162126 -69.091756 
L 147.996747 -69.091756 
L 147.831367 -69.091756 
L 147.665988 -69.091756 
L 147.500609 -69.091756 
L 147.335229 -69.091756 
L 147.16985 -69.091756 
L 147.00447 -69.091756 
L 146.839091 -69.091756 
L 146.673711 -69.091756 
L 146.508332 -69.091756 
L 146.342953 -69.091756 
L 146.177573 -69.091756 
L 146.012194 -69.091756 
L 145.846814 -69.091756 
L 145.681435 -69.091756 
L 145.516055 -69.091756 
L 145.350676 -69.091756 
L 145.185297 -69.091756 
L 145.019917 -69.091756 
L 144.854538 -69.091756 
L 144.689158 -69.091756 
L 144.523779 -69.091756 
L 144.358399 -69.091756 
L 144.19302 -69.091756 
L 144.027641 -69.091756 
L 143.862261 -69.091756 
L 143.696882 -69.091756 
L 143.531502 -69.091756 
L 143.366123 -69.091756 
L 143.200743 -69.091756 
L 143.035364 -69.091756 
L 142.869985 -69.091756 
L 142.704605 -69.091756 
L 142.539226 -69.091756 
L 142.373846 -69.091756 
L 142.208467 -69.091756 
L 142.043087 -69.091756 
L 141.877708 -69.091756 
L 141.712329 -69.091756 
L 141.546949 -69.091756 
L 141.38157 -69.091756 
L 141.21619 -69.091756 
L 141.050811 -69.091756 
L 140.885431 -69.091756 
L 140.720052 -69.091756 
L 140.554673 -69.091756 
L 140.389293 -69.091756 
L 140.223914 -69.091756 
L 140.058534 -69.091756 
L 139.893155 -69.091756 
L 139.727775 -69.091756 
L 139.562396 -69.091756 
L 139.397017 -69.091756 
L 139.231637 -69.091756 
L 139.066258 -69.091756 
L 138.900878 -69.091756 
L 138.735499 -69.091756 
L 138.570119 -69.091756 
L 138.40474 -69.091756 
L 138.239361 -69.091756 
L 138.073981 -69.091756 
L 137.908602 -69.091756 
L 137.743222 -69.091756 
L 137.577843 -69.091756 
L 137.412463 -69.091756 
L 137.247084 -69.091756 
L 137.081705 -69.091756 
L 136.916325 -69.091756 
L 136.750946 -69.091756 
L 136.585566 -69.091756 
L 136.420187 -69.091756 
L 136.254807 -69.091756 
L 136.089428 -69.091756 
L 135.924049 -69.091756 
L 135.758669 -69.091756 
L 135.59329 -69.091756 
L 135.42791 -69.091756 
L 135.262531 -69.091756 
L 135.097151 -69.091756 
L 134.931772 -69.091756 
L 134.766393 -69.091756 
L 134.601013 -69.091756 
L 134.435634 -69.091756 
L 134.270254 -69.091756 
L 134.104875 -69.091756 
L 133.939495 -69.091756 
L 133.774116 -69.091756 
L 133.608737 -69.091756 
L 133.443357 -69.091756 
L 133.277978 -69.091756 
L 133.112598 -69.091756 
L 132.947219 -69.091756 
L 132.781839 -69.091756 
L 132.61646 -69.091756 
L 132.45108 -69.091756 
L 132.285701 -69.091756 
L 132.120322 -69.091756 
L 131.954942 -69.091756 
L 131.789563 -69.091756 
L 131.624183 -69.091756 
L 131.458804 -69.091756 
L 131.293424 -69.091756 
L 131.128045 -69.091756 
L 130.962666 -69.091756 
L 130.797286 -69.091756 
L 130.631907 -69.091756 
L 130.466527 -69.091756 
L 130.301148 -69.091756 
L 130.135768 -69.091756 
L 129.970389 -69.091756 
L 129.80501 -69.091756 
L 129.63963 -69.091756 
L 129.474251 -69.091756 
L 129.308871 -69.091756 
L 129.143492 -69.091756 
L 128.978112 -69.091756 
L 128.812733 -69.091756 
L 128.647354 -69.091756 
L 128.481974 -69.091756 
L 128.316595 -69.091756 
L 128.151215 -69.091756 
L 127.985836 -69.091756 
L 127.820456 -69.091756 
L 127.655077 -69.091756 
L 127.489698 -69.091756 
L 127.324318 -69.091756 
L 127.158939 -69.091756 
L 126.993559 -69.091756 
L 126.82818 -69.091756 
L 126.6628 -69.091756 
L 126.497421 -69.091756 
L 126.332042 -69.091756 
L 126.166662 -69.091756 
L 126.001283 -69.091756 
L 125.835903 -69.091756 
L 125.670524 -69.091756 
L 125.505144 -69.091756 
L 125.339765 -69.091756 
L 125.174386 -69.091756 
L 125.009006 -69.091756 
L 124.843627 -69.091756 
L 124.678247 -69.091756 
L 124.512868 -69.091756 
L 124.347488 -69.091756 
L 124.182109 -69.091756 
L 124.01673 -69.091756 
L 123.85135 -69.091756 
L 123.685971 -69.091756 
L 123.520591 -69.091756 
L 123.355212 -69.091756 
L 123.189832 -69.091756 
L 123.024453 -69.091756 
L 122.859074 -69.091756 
L 122.693694 -69.091756 
L 122.528315 -69.091756 
L 122.362935 -69.091756 
L 122.197556 -69.091756 
L 122.032176 -69.091756 
L 121.866797 -69.091756 
L 121.701418 -69.091756 
L 121.536038 -69.091756 
L 121.370659 -69.091756 
L 121.205279 -69.091756 
L 121.0399 -69.091756 
L 120.87452 -69.091756 
L 120.709141 -69.091756 
L 120.543762 -69.091756 
L 120.378382 -69.091756 
L 120.213003 -69.091756 
L 120.047623 -69.091756 
L 119.882244 -69.091756 
L 119.716864 -69.091756 
L 119.551485 -69.091756 
L 119.386106 -69.091756 
L 119.220726 -69.091756 
L 119.055347 -69.091756 
L 118.889967 -69.091756 
L 118.724588 -69.091756 
L 118.559208 -69.091756 
L 118.393829 -69.091756 
L 118.22845 -69.091756 
L 118.06307 -69.091756 
L 117.897691 -69.091756 
L 117.732311 -69.091756 
L 117.566932 -69.091756 
L 117.401552 -69.091756 
L 117.236173 -69.091756 
L 117.070794 -69.091756 
L 116.905414 -69.091756 
L 116.740035 -69.091756 
L 116.574655 -69.091756 
L 116.409276 -69.091756 
L 116.243896 -69.091756 
L 116.078517 -69.091756 
L 115.913138 -69.091756 
L 115.747758 -69.091756 
L 115.582379 -69.091756 
L 115.416999 -69.091756 
L 115.25162 -69.091756 
L 115.08624 -69.091756 
L 114.920861 -69.091756 
L 114.755481 -69.091756 
L 114.590102 -69.091756 
L 114.424723 -69.091756 
L 114.259343 -69.091756 
L 114.093964 -69.091756 
L 113.928584 -69.091756 
L 113.763205 -69.091756 
L 113.597825 -69.091756 
L 113.432446 -69.091756 
L 113.267067 -69.091756 
L 113.101687 -69.091756 
L 112.936308 -69.091756 
L 112.770928 -69.091756 
L 112.605549 -69.091756 
L 112.440169 -69.091756 
L 112.27479 -69.091756 
L 112.109411 -69.091756 
L 111.944031 -69.091756 
L 111.778652 -69.091756 
L 111.613272 -69.091756 
L 111.447893 -69.091756 
L 111.282513 -69.091756 
L 111.117134 -69.091756 
L 110.951755 -69.091756 
L 110.786375 -69.091756 
L 110.620996 -69.091756 
L 110.455616 -69.091756 
L 110.290237 -69.091756 
L 110.124857 -69.091756 
L 109.959478 -69.091756 
L 109.794099 -69.091756 
L 109.628719 -69.091756 
L 109.46334 -69.091756 
L 109.29796 -69.091756 
L 109.132581 -69.091756 
L 108.967201 -69.091756 
L 108.801822 -69.091756 
L 108.636443 -69.091756 
L 108.471063 -69.091756 
L 108.305684 -69.091756 
L 108.140304 -69.091756 
L 107.974925 -69.091756 
L 107.809545 -69.091756 
L 107.644166 -69.091756 
L 107.478787 -69.091756 
L 107.313407 -69.091756 
L 107.148028 -69.091756 
L 106.982648 -69.091756 
L 106.817269 -69.091756 
L 106.651889 -69.091756 
L 106.48651 -69.091756 
L 106.321131 -69.091756 
L 106.155751 -69.091756 
L 105.990372 -69.091756 
L 105.824992 -69.091756 
L 105.659613 -69.091756 
L 105.494233 -69.091756 
L 105.328854 -69.091756 
L 105.163475 -69.091756 
L 104.998095 -69.091756 
L 104.832716 -69.091756 
L 104.667336 -69.091756 
L 104.501957 -69.091756 
L 104.336577 -69.091756 
L 104.171198 -69.091756 
L 104.005819 -69.091756 
L 103.840439 -69.091756 
L 103.67506 -69.091756 
L 103.50968 -69.091756 
L 103.344301 -69.091756 
L 103.178921 -69.091756 
L 103.013542 -69.091756 
L 102.848163 -69.091756 
L 102.682783 -69.091756 
L 102.517404 -69.091756 
L 102.352024 -69.091756 
L 102.186645 -69.091756 
L 102.021265 -69.091756 
L 101.855886 -69.091756 
L 101.690507 -69.091756 
L 101.525127 -69.091756 
L 101.359748 -69.091756 
L 101.194368 -69.091756 
L 101.028989 -69.091756 
L 100.863609 -69.091756 
L 100.69823 -69.091756 
L 100.532851 -69.091756 
L 100.367471 -69.091756 
L 100.202092 -69.091756 
L 100.036712 -69.091756 
L 99.871333 -69.091756 
L 99.705953 -69.091756 
L 99.540574 -69.091756 
L 99.375195 -69.091756 
L 99.209815 -69.091756 
L 99.044436 -69.091756 
L 98.879056 -69.091756 
L 98.713677 -69.091756 
L 98.548297 -69.091756 
L 98.382918 -69.091756 
L 98.217539 -69.091756 
L 98.052159 -69.091756 
L 97.88678 -69.091756 
L 97.7214 -69.091756 
L 97.556021 -69.091756 
L 97.390641 -69.091756 
L 97.225262 -69.091756 
L 97.059883 -69.091756 
L 96.894503 -69.091756 
L 96.729124 -69.091756 
L 96.563744 -69.091756 
L 96.398365 -69.091756 
L 96.232985 -69.091756 
L 96.067606 -69.091756 
L 95.902226 -69.091756 
L 95.736847 -69.091756 
L 95.571468 -69.091756 
L 95.406088 -69.091756 
L 95.240709 -69.091756 
L 95.075329 -69.091756 
L 94.90995 -69.091756 
L 94.74457 -69.091756 
L 94.579191 -69.091756 
L 94.413812 -69.091756 
L 94.248432 -69.091756 
L 94.083053 -69.091756 
L 93.917673 -69.091756 
L 93.752294 -69.091756 
L 93.586914 -69.091756 
L 93.421535 -69.091756 
L 93.256156 -69.091756 
L 93.090776 -69.091756 
L 92.925397 -69.091756 
L 92.760017 -69.091756 
L 92.594638 -69.091756 
L 92.429258 -69.091756 
L 92.263879 -69.091756 
L 92.0985 -69.091756 
L 91.93312 -69.091756 
L 91.767741 -69.091756 
L 91.602361 -69.091756 
L 91.436982 -69.091756 
L 91.271602 -69.091756 
L 91.106223 -69.091756 
L 90.940844 -69.091756 
L 90.775464 -69.091756 
L 90.610085 -69.091756 
L 90.444705 -69.091756 
L 90.279326 -69.091756 
L 90.113946 -69.091756 
L 89.948567 -69.091756 
L 89.783188 -69.091756 
L 89.617808 -69.091756 
L 89.452429 -69.091756 
L 89.287049 -69.091756 
L 89.12167 -69.091756 
L 88.95629 -69.091756 
L 88.790911 -69.091756 
L 88.625532 -69.091756 
L 88.460152 -69.091756 
L 88.294773 -69.091756 
L 88.129393 -69.091756 
L 87.964014 -69.091756 
L 87.798634 -69.091756 
L 87.633255 -69.091756 
L 87.467876 -69.091756 
L 87.302496 -69.091756 
L 87.137117 -69.091756 
L 86.971737 -69.091756 
L 86.806358 -69.091756 
L 86.640978 -69.091756 
L 86.475599 -69.091756 
L 86.31022 -69.091756 
L 86.14484 -69.091756 
L 85.979461 -69.091756 
L 85.814081 -69.091756 
L 85.648702 -69.091756 
L 85.483322 -69.091756 
L 85.317943 -69.091756 
L 85.152564 -69.091756 
L 84.987184 -69.091756 
L 84.821805 -69.091756 
L 84.656425 -69.091756 
L 84.491046 -69.091756 
L 84.325666 -69.091756 
L 84.160287 -69.091756 
L 83.994908 -69.091756 
L 83.829528 -69.091756 
L 83.664149 -69.091756 
L 83.498769 -69.091756 
L 83.33339 -69.091756 
L 83.16801 -69.091756 
L 83.002631 -69.091756 
L 82.837252 -69.091756 
L 82.671872 -69.091756 
L 82.506493 -69.091756 
L 82.341113 -69.091756 
L 82.175734 -69.091756 
L 82.010354 -69.091756 
L 81.844975 -69.091756 
L 81.679596 -69.091756 
L 81.514216 -69.091756 
L 81.348837 -69.091756 
L 81.183457 -69.091756 
L 81.018078 -69.091756 
L 80.852698 -69.091756 
L 80.687319 -69.091756 
L 80.52194 -69.091756 
L 80.35656 -69.091756 
L 80.191181 -69.091756 
L 80.025801 -69.091756 
L 79.860422 -69.091756 
L 79.695042 -69.091756 
L 79.529663 -69.091756 
L 79.364284 -69.091756 
L 79.198904 -69.091756 
L 79.033525 -69.091756 
L 78.868145 -69.091756 
L 78.702766 -69.091756 
L 78.537386 -69.091756 
L 78.372007 -69.091756 
L 78.206628 -69.091756 
L 78.041248 -69.091756 
L 77.875869 -69.091756 
L 77.710489 -69.091756 
L 77.54511 -69.091756 
L 77.37973 -69.091756 
L 77.214351 -69.091756 
L 77.048971 -69.091756 
L 76.883592 -69.091756 
L 76.718213 -69.091756 
L 76.552833 -69.091756 
L 76.387454 -69.091756 
L 76.222074 -69.091756 
L 76.056695 -69.091756 
L 75.891315 -69.091756 
L 75.725936 -69.091756 
L 75.560557 -69.091756 
L 75.395177 -69.091756 
L 75.229798 -69.091756 
L 75.064418 -69.091756 
L 74.899039 -69.091756 
L 74.733659 -69.091756 
L 74.56828 -69.091756 
L 74.402901 -69.091756 
L 74.237521 -69.091756 
L 74.072142 -69.091756 
L 73.906762 -69.091756 
L 73.741383 -69.091756 
L 73.576003 -69.091756 
L 73.410624 -69.091756 
L 73.245245 -69.091756 
L 73.079865 -69.091756 
L 72.914486 -69.091756 
L 72.749106 -69.091756 
L 72.583727 -69.091756 
L 72.418347 -69.091756 
L 72.252968 -69.091756 
L 72.087589 -69.091756 
L 71.922209 -69.091756 
L 71.75683 -69.091756 
L 71.59145 -69.091756 
L 71.426071 -69.091756 
L 71.260691 -69.091756 
L 71.095312 -69.091756 
L 70.929933 -69.091756 
L 70.764553 -69.091756 
L 70.599174 -69.091756 
L 70.433794 -69.091756 
L 70.268415 -69.091756 
L 70.103035 -69.091756 
L 69.937656 -69.091756 
L 69.772277 -69.091756 
L 69.606897 -69.091756 
L 69.441518 -69.091756 
L 69.276138 -69.091756 
L 69.110759 -69.091756 
L 68.945379 -69.091756 
L 68.78 -69.091756 
z
" id="m0fb8acc83e" style="stroke:#000000;stroke-opacity:0.4;"/>
    </defs>
    <g clip-path="url(#pdf17c822bb)">
     <use style="fill:#30a2da;fill-opacity:0.4;stroke:#000000;stroke-opacity:0.4;" x="0" xlink:href="#m0fb8acc83e" y="337.99702"/>
    </g>
   </g>
   <g id="line2d_8">
    <path clip-path="url(#pdf17c822bb)" d="M 68.78 251.695467 
L 79.364284 251.695467 
L 79.529663 286.115061 
L 115.08624 286.115061 
L 115.25162 251.695467 
L 196.783679 251.695467 
L 196.949058 286.115061 
L 233.99405 286.115061 
L 233.99405 286.115061 
" style="fill:none;stroke:#000000;stroke-linecap:square;stroke-width:2;"/>
   </g>
   <g id="matplotlib.axis_3">
    <g id="xtick_4">
     <g id="line2d_9">
      <g>
       <use style="stroke:#000000;stroke-width:0.8;" x="68.78" xlink:href="#m98cd70f1cf" y="289.55702"/>
      </g>
     </g>
     <g id="text_9">
      <!-- 0.0 -->
      <g transform="translate(57.647812 307.194833)scale(0.14 -0.14)">
       <use xlink:href="#DejaVuSans-48"/>
       <use x="63.623047" xlink:href="#DejaVuSans-46"/>
       <use x="95.410156" xlink:href="#DejaVuSans-48"/>
      </g>
     </g>
    </g>
    <g id="xtick_5">
     <g id="line2d_10">
      <g>
       <use style="stroke:#000000;stroke-width:0.8;" x="151.387025" xlink:href="#m98cd70f1cf" y="289.55702"/>
      </g>
     </g>
     <g id="text_10">
      <!-- 0.5 -->
      <g transform="translate(140.254838 307.194833)scale(0.14 -0.14)">
       <use xlink:href="#DejaVuSans-48"/>
       <use x="63.623047" xlink:href="#DejaVuSans-46"/>
       <use x="95.410156" xlink:href="#DejaVuSans-53"/>
      </g>
     </g>
    </g>
    <g id="xtick_6">
     <g id="line2d_11">
      <g>
       <use style="stroke:#000000;stroke-width:0.8;" x="233.99405" xlink:href="#m98cd70f1cf" y="289.55702"/>
      </g>
     </g>
     <g id="text_11">
      <!-- 1.0 -->
      <g transform="translate(222.861863 307.194833)scale(0.14 -0.14)">
       <use xlink:href="#DejaVuSans-49"/>
       <use x="63.623047" xlink:href="#DejaVuSans-46"/>
       <use x="95.410156" xlink:href="#DejaVuSans-48"/>
      </g>
     </g>
    </g>
    <g id="text_12">
     <!-- $\alpha$ -->
     <g transform="translate(145.843025 326.87177)scale(0.168 -0.168)">
      <use transform="translate(0 0.84375)" xlink:href="#DejaVuSans-Oblique-945"/>
     </g>
    </g>
   </g>
   <g id="matplotlib.axis_4">
    <g id="ytick_4">
     <g id="line2d_12">
      <g>
       <use style="stroke:#000000;stroke-width:0.8;" x="68.78" xlink:href="#md529eaec3c" y="286.115061"/>
      </g>
     </g>
     <g id="text_13">
      <!-- −1 -->
      <g transform="translate(41.140937 291.433967)scale(0.14 -0.14)">
       <use xlink:href="#DejaVuSans-8722"/>
       <use x="83.789062" xlink:href="#DejaVuSans-49"/>
      </g>
     </g>
    </g>
    <g id="ytick_5">
     <g id="line2d_13">
      <g>
       <use style="stroke:#000000;stroke-width:0.8;" x="68.78" xlink:href="#md529eaec3c" y="268.905264"/>
      </g>
     </g>
     <g id="text_14">
      <!-- 0 -->
      <g transform="translate(52.8725 274.22417)scale(0.14 -0.14)">
       <use xlink:href="#DejaVuSans-48"/>
      </g>
     </g>
    </g>
    <g id="ytick_6">
     <g id="line2d_14">
      <g>
       <use style="stroke:#000000;stroke-width:0.8;" x="68.78" xlink:href="#md529eaec3c" y="251.695467"/>
      </g>
     </g>
     <g id="text_15">
      <!-- 1 -->
      <g transform="translate(52.8725 257.014373)scale(0.14 -0.14)">
       <use xlink:href="#DejaVuSans-49"/>
      </g>
     </g>
    </g>
    <g id="text_16">
     <!-- $Q_{BdG}$ -->
     <g transform="translate(33.647062 288.141264)rotate(-90)scale(0.168 -0.168)">
      <defs>
       <path d="M 36.078125 -1.3125 
Q 35.546875 -1.375 34.953125 -1.390625 
Q 34.375 -1.421875 33.203125 -1.421875 
Q 19.53125 -1.421875 11.8125 6.421875 
Q 4.109375 14.265625 4.109375 28.078125 
Q 4.109375 36.234375 7.0625 44.4375 
Q 10.015625 52.640625 15.28125 59.1875 
Q 21.390625 66.703125 29.03125 70.453125 
Q 36.671875 74.21875 45.90625 74.21875 
Q 59.28125 74.21875 66.984375 66.328125 
Q 74.703125 58.453125 74.703125 44.828125 
Q 74.703125 30.125 66.640625 17.921875 
Q 58.59375 5.71875 45.609375 0.6875 
L 55.515625 -12.890625 
L 44.484375 -12.890625 
z
M 45.609375 66.21875 
Q 37.5 66.21875 31.296875 62.28125 
Q 25.09375 58.34375 20.515625 50.296875 
Q 17.578125 45.171875 16.03125 39.40625 
Q 14.5 33.640625 14.5 27.78125 
Q 14.5 17.625 19.359375 12.109375 
Q 24.21875 6.59375 33.109375 6.59375 
Q 41.109375 6.59375 47.375 10.5625 
Q 53.65625 14.546875 58.109375 22.40625 
Q 61.078125 27.6875 62.640625 33.46875 
Q 64.203125 39.265625 64.203125 45.015625 
Q 64.203125 55.125 59.3125 60.671875 
Q 54.4375 66.21875 45.609375 66.21875 
z
" id="DejaVuSans-Oblique-81"/>
       <path d="M 16.890625 72.90625 
L 42.09375 72.90625 
Q 52.34375 72.90625 57.421875 69.09375 
Q 62.5 65.28125 62.5 57.625 
Q 62.5 50.59375 58.125 45.484375 
Q 53.765625 40.375 46.6875 39.3125 
Q 52.734375 37.9375 55.765625 34.078125 
Q 58.796875 30.21875 58.796875 23.78125 
Q 58.796875 12.796875 50.65625 6.390625 
Q 42.53125 0 28.421875 0 
L 2.6875 0 
z
M 19.28125 34.8125 
L 14.109375 8.109375 
L 29.984375 8.109375 
Q 38.921875 8.109375 43.75 12.203125 
Q 48.578125 16.3125 48.578125 23.78125 
Q 48.578125 29.546875 45.375 32.171875 
Q 42.1875 34.8125 35.109375 34.8125 
z
M 25.09375 64.796875 
L 20.796875 42.828125 
L 35.5 42.828125 
Q 43.359375 42.828125 47.78125 46.234375 
Q 52.203125 49.65625 52.203125 55.71875 
Q 52.203125 60.453125 49.21875 62.625 
Q 46.234375 64.796875 39.703125 64.796875 
z
" id="DejaVuSans-Oblique-66"/>
       <path d="M 41.796875 8.203125 
Q 38.1875 3.46875 33.25 1.015625 
Q 28.328125 -1.421875 22.3125 -1.421875 
Q 14.109375 -1.421875 9.34375 4.171875 
Q 4.59375 9.765625 4.59375 19.484375 
Q 4.59375 27.59375 7.46875 34.9375 
Q 10.359375 42.28125 15.828125 48.09375 
Q 19.4375 51.953125 23.96875 53.96875 
Q 28.515625 56 33.5 56 
Q 38.765625 56 42.796875 53.453125 
Q 46.828125 50.921875 49.03125 46.1875 
L 54.890625 75.984375 
L 63.921875 75.984375 
L 49.125 0 
L 40.09375 0 
z
M 13.921875 21.09375 
Q 13.921875 14.015625 17.109375 10.0625 
Q 20.3125 6.109375 25.984375 6.109375 
Q 30.171875 6.109375 33.765625 8.125 
Q 37.359375 10.15625 40.09375 14.109375 
Q 42.96875 18.21875 44.625 23.578125 
Q 46.296875 28.953125 46.296875 34.1875 
Q 46.296875 40.96875 43.09375 44.765625 
Q 39.890625 48.578125 34.28125 48.578125 
Q 30.03125 48.578125 26.359375 46.578125 
Q 22.703125 44.578125 20.125 40.828125 
Q 17.28125 36.765625 15.59375 31.390625 
Q 13.921875 26.03125 13.921875 21.09375 
z
" id="DejaVuSans-Oblique-100"/>
       <path d="M 54.59375 10.890625 
L 58.40625 29.984375 
L 42.1875 29.984375 
L 43.703125 38.09375 
L 69.578125 38.09375 
L 63.28125 6 
Q 56.78125 2.4375 49.109375 0.5 
Q 41.453125 -1.421875 33.6875 -1.421875 
Q 19.96875 -1.421875 12.234375 6.1875 
Q 4.5 13.8125 4.5 27.390625 
Q 4.5 38.671875 9.203125 48.84375 
Q 13.921875 59.03125 22.21875 65.828125 
Q 27.4375 70.0625 33.640625 72.140625 
Q 39.84375 74.21875 47.40625 74.21875 
Q 54.25 74.21875 60.515625 72.484375 
Q 66.796875 70.75 72.515625 67.28125 
L 70.515625 56.78125 
Q 66.109375 61.375 60.203125 63.796875 
Q 54.296875 66.21875 47.609375 66.21875 
Q 39.84375 66.21875 33.9375 63.25 
Q 28.03125 60.296875 23.390625 54.109375 
Q 19.4375 48.828125 17.15625 41.671875 
Q 14.890625 34.515625 14.890625 27.09375 
Q 14.890625 16.890625 20.109375 11.734375 
Q 25.34375 6.59375 35.6875 6.59375 
Q 40.875 6.59375 45.703125 7.6875 
Q 50.53125 8.796875 54.59375 10.890625 
z
" id="DejaVuSans-Oblique-71"/>
      </defs>
      <use transform="translate(0 0.78125)" xlink:href="#DejaVuSans-Oblique-81"/>
      <use transform="translate(78.710938 -15.625)scale(0.7)" xlink:href="#DejaVuSans-Oblique-66"/>
      <use transform="translate(126.733398 -15.625)scale(0.7)" xlink:href="#DejaVuSans-Oblique-100"/>
      <use transform="translate(171.166992 -15.625)scale(0.7)" xlink:href="#DejaVuSans-Oblique-71"/>
     </g>
    </g>
   </g>
   <g id="patch_6">
    <path d="M 68.78 289.55702 
L 68.78 248.253508 
" style="fill:none;stroke:#000000;stroke-linecap:square;stroke-linejoin:miter;stroke-width:0.8;"/>
   </g>
   <g id="patch_7">
    <path d="M 68.78 289.55702 
L 233.99405 289.55702 
" style="fill:none;stroke:#000000;stroke-linecap:square;stroke-linejoin:miter;stroke-width:0.8;"/>
   </g>
  </g>
 </g>
 <defs>
  <clipPath id="pbe5ecc769e">
   <rect height="165.21405" width="165.21405" x="68.78" y="12.6"/>
  </clipPath>
  <clipPath id="pdf17c822bb">
   <rect height="41.303513" width="165.21405" x="68.78" y="248.253508"/>
  </clipPath>
 </defs>
</svg>
