<?xml version="1.0" encoding="utf-8" standalone="no"?>
<!DOCTYPE svg PUBLIC "-//W3C//DTD SVG 1.1//EN"
  "http://www.w3.org/Graphics/SVG/1.1/DTD/svg11.dtd">
<!-- Created with matplotlib (https://matplotlib.org/) -->
<svg height="355.35469pt" version="1.1" viewBox="0 0 249.298476 355.35469" width="249.298476pt" xmlns="http://www.w3.org/2000/svg" xmlns:xlink="http://www.w3.org/1999/xlink">
 <metadata>
  <rdf:RDF xmlns:cc="http://creativecommons.org/ns#" xmlns:dc="http://purl.org/dc/elements/1.1/" xmlns:rdf="http://www.w3.org/1999/02/22-rdf-syntax-ns#">
   <cc:Work>
    <dc:type rdf:resource="http://purl.org/dc/dcmitype/StillImage"/>
    <dc:date>2022-06-26T10:15:56.044261</dc:date>
    <dc:format>image/svg+xml</dc:format>
    <dc:creator>
     <cc:Agent>
      <dc:title>Matplotlib v3.3.4, https://matplotlib.org/</dc:title>
     </cc:Agent>
    </dc:creator>
   </cc:Work>
  </rdf:RDF>
 </metadata>
 <defs>
  <style type="text/css">*{stroke-linecap:butt;stroke-linejoin:round;}</style>
 </defs>
 <g id="figure_1">
  <g id="patch_1">
   <path d="M 0 355.35469 
L 249.298476 355.35469 
L 249.298476 0 
L 0 0 
z
" style="fill:#ffffff;"/>
  </g>
  <g id="axes_1">
   <g id="patch_2">
    <path d="M 55.37 188.168476 
L 230.938476 188.168476 
L 230.938476 12.6 
L 55.37 12.6 
z
" style="fill:#ffffff;"/>
   </g>
   <g id="LineCollection_1">
    <path clip-path="url(#p7d6c21fb15)" d="M 55.37 213.08052 
L 70.835491 199.581574 
L 82.258866 189.892738 
L 90.870333 182.864956 
L 97.724357 177.542878 
L 103.348172 173.440561 
L 108.26901 170.118363 
L 112.662616 167.421105 
L 116.528989 165.298393 
L 120.219617 163.5189 
L 123.734502 162.063539 
L 127.249386 160.846938 
L 130.764271 159.865376 
L 134.279155 159.108316 
L 137.969784 158.539052 
L 141.836156 158.170765 
L 145.878274 158.013362 
L 150.096135 158.074782 
L 154.48974 158.361618 
L 159.05909 158.878898 
L 163.979928 159.661008 
L 169.252255 160.729339 
L 174.87607 162.098335 
L 181.027118 163.827755 
L 187.881142 165.994036 
L 195.438144 168.622413 
L 203.873866 171.7965 
L 213.364054 175.609384 
L 224.084452 180.161643 
L 230.938476 183.184073 
L 230.938476 183.184073 
" style="fill:none;stroke:#000000;stroke-width:1.2;"/>
    <path clip-path="url(#p7d6c21fb15)" d="M 55.37 177.414527 
L 67.496351 170.851791 
L 78.743981 165.015688 
L 89.464379 159.704382 
L 99.306055 155.068533 
L 105.984335 152.138818 
L 110.202197 150.507409 
L 113.717081 149.381856 
L 117.231966 148.495436 
L 121.449827 147.672656 
L 127.073642 146.813798 
L 134.279155 145.945878 
L 141.660412 145.281406 
L 148.865925 144.853729 
L 156.598671 144.617943 
L 165.73737 144.568601 
L 177.160745 144.740122 
L 189.46284 145.14503 
L 200.71047 145.733293 
L 210.552147 146.464196 
L 219.515102 147.347874 
L 227.77508 148.383958 
L 230.938476 148.845594 
L 230.938476 148.845594 
" style="fill:none;stroke:#000000;stroke-width:1.2;"/>
    <path clip-path="url(#p7d6c21fb15)" d="M 55.37 154.038021 
L 66.793374 152.475199 
L 83.313331 150.466252 
L 98.954567 148.509789 
L 104.92987 147.544121 
L 108.796243 146.711906 
L 111.959639 145.814151 
L 114.947291 144.734102 
L 118.110687 143.345213 
L 121.801315 141.462788 
L 126.194921 138.955286 
L 134.279155 134.241437 
L 135.685109 133.730803 
L 137.091063 133.478884 
L 138.848505 133.421651 
L 142.011901 133.593977 
L 194.559423 137.765645 
L 205.631308 138.978595 
L 216.000217 140.33482 
L 226.017638 141.869209 
L 230.938476 142.70851 
L 230.938476 142.70851 
" style="fill:none;stroke:#000000;stroke-width:1.2;"/>
    <path clip-path="url(#p7d6c21fb15)" d="M 55.37 128.081588 
L 62.04828 125.14741 
L 63.27849 124.821731 
L 64.684444 124.696984 
L 67.672095 124.726571 
L 74.350376 125.049693 
L 83.137587 125.698657 
L 92.452031 126.610214 
L 102.82094 127.855057 
L 116.704733 129.770844 
L 128.65534 131.361564 
L 132.345969 131.65136 
L 134.279155 131.58673 
L 135.509365 131.346236 
L 136.739574 130.890898 
L 138.321272 130.050616 
L 140.781691 128.457286 
L 145.175297 125.303634 
L 152.908042 119.443679 
L 170.130976 106.334045 
L 175.227558 102.764409 
L 178.918187 100.429 
L 181.905839 98.788699 
L 184.366258 97.676338 
L 186.650933 96.886995 
L 188.759863 96.393458 
L 190.868794 96.13007 
L 193.153469 96.085824 
L 195.613888 96.277775 
L 198.425795 96.739133 
L 201.589191 97.490234 
L 205.455564 98.644981 
L 210.376402 100.359978 
L 217.581915 103.13373 
L 230.938476 108.422972 
L 230.938476 108.422972 
" style="fill:none;stroke:#000000;stroke-width:1.2;"/>
    <path clip-path="url(#p7d6c21fb15)" d="M 55.37 124.293829 
L 62.224025 124.206499 
L 63.454234 123.955443 
L 65.035932 123.363026 
L 68.902305 121.595663 
L 81.2044 115.661881 
L 109.850708 101.816852 
L 117.583454 98.357333 
L 123.207269 96.075847 
L 128.128107 94.319216 
L 133.048945 92.807429 
L 138.67276 91.326624 
L 145.526785 89.762086 
L 152.029321 88.492846 
L 156.950159 87.747938 
L 160.992276 87.351478 
L 165.210138 87.169717 
L 170.482464 87.190223 
L 181.905839 87.318857 
L 185.420723 87.095754 
L 189.111352 86.630234 
L 194.559423 85.917481 
L 197.195586 85.822452 
L 200.183238 85.944202 
L 204.752587 86.385866 
L 229.356778 89.053368 
L 230.938476 89.200902 
L 230.938476 89.200902 
" style="fill:none;stroke:#000000;stroke-width:1.2;"/>
    <path clip-path="url(#p7d6c21fb15)" d="M 55.37 98.243321 
L 64.332955 96.538776 
L 71.889957 95.325162 
L 79.09547 94.390718 
L 87.00396 93.593083 
L 101.414986 92.426777 
L 109.850708 91.609356 
L 115.826012 90.811014 
L 120.74685 89.931968 
L 125.140456 88.922305 
L 129.534061 87.675683 
L 134.982132 85.870155 
L 139.375737 84.483611 
L 141.484668 84.053548 
L 143.593599 83.851882 
L 146.756995 83.798371 
L 159.05909 83.772586 
L 163.62844 83.44551 
L 169.427999 82.782274 
L 178.21521 81.786065 
L 182.257327 81.561035 
L 186.1237 81.574923 
L 194.383678 81.731945 
L 197.195586 81.479314 
L 201.589191 80.819282 
L 208.091728 79.882847 
L 213.715543 79.315147 
L 220.569567 78.856508 
L 229.884011 78.472976 
L 230.938476 78.44046 
L 230.938476 78.44046 
" style="fill:none;stroke:#000000;stroke-width:1.2;"/>
    <path clip-path="url(#p7d6c21fb15)" d="M 55.37 74.678567 
L 64.157211 76.023499 
L 73.120166 77.162693 
L 84.016308 78.310568 
L 100.712009 79.819123 
L 123.734502 81.680825 
L 133.751922 82.305564 
L 137.794039 82.355166 
L 140.078714 82.173064 
L 142.011901 81.790474 
L 144.120831 81.137876 
L 147.284227 79.898728 
L 152.908042 77.416308 
L 164.155672 72.411166 
L 166.440347 71.6343 
L 168.022045 71.322529 
L 169.427999 71.295532 
L 170.833953 71.497326 
L 172.942883 72.051237 
L 181.202862 74.446658 
L 183.839025 74.913872 
L 186.299444 75.133091 
L 188.759863 75.124777 
L 191.220282 74.889704 
L 193.680701 74.436155 
L 196.316865 73.71625 
L 198.953028 72.763571 
L 201.764936 71.510474 
L 204.928332 69.851761 
L 208.794704 67.553798 
L 213.715543 64.352568 
L 221.624033 58.9039 
L 230.938476 52.398877 
L 230.938476 52.398877 
" style="fill:none;stroke:#000000;stroke-width:1.2;"/>
    <path clip-path="url(#p7d6c21fb15)" d="M 55.37 73.707065 
L 63.102746 73.94657 
L 69.781026 73.933857 
L 75.75633 73.699228 
L 81.380145 73.253661 
L 86.828215 72.60224 
L 92.452031 71.709192 
L 98.603078 70.501377 
L 105.457103 68.919608 
L 113.717081 66.769999 
L 135.509365 60.947709 
L 138.848505 60.377414 
L 141.484668 60.147454 
L 143.769343 60.166968 
L 146.054018 60.420128 
L 148.338693 60.900291 
L 150.974856 61.68751 
L 154.313996 62.930918 
L 160.113555 65.379327 
L 164.507161 67.148141 
L 166.616092 67.781073 
L 168.022045 67.997413 
L 169.252255 67.981974 
L 170.658209 67.730337 
L 172.415651 67.176609 
L 175.227558 66.033096 
L 180.499885 63.612263 
L 190.868794 58.575953 
L 202.116424 52.878693 
L 211.782356 47.736591 
L 221.624033 42.242014 
L 230.938476 36.872932 
L 230.938476 36.872932 
" style="fill:none;stroke:#000000;stroke-width:1.2;"/>
    <path clip-path="url(#p7d6c21fb15)" d="M 55.37 36.637418 
L 66.969119 40.168371 
L 78.041004 43.307706 
L 88.585658 46.069357 
L 98.603078 48.467539 
L 108.093266 50.516097 
L 117.056221 52.227979 
L 125.491944 53.614045 
L 133.048945 54.633584 
L 139.024249 55.231209 
L 144.120831 55.520076 
L 152.38081 55.708727 
L 158.707602 55.670813 
L 163.979928 55.41285 
L 168.900766 54.950286 
L 173.64586 54.284344 
L 178.390954 53.392755 
L 183.136048 52.27319 
L 188.056886 50.877924 
L 193.153469 49.198314 
L 198.60154 47.16747 
L 204.576843 44.700871 
L 211.255124 41.697713 
L 218.460637 38.209743 
L 225.66615 34.477425 
L 230.938476 31.575192 
L 230.938476 31.575192 
" style="fill:none;stroke:#000000;stroke-width:1.2;"/>
    <path clip-path="url(#p7d6c21fb15)" d="M 55.736475 -1 
L 81.907377 15.869891 
L 101.414986 28.194263 
L 115.298779 36.716647 
L 124.613223 42.194163 
L 130.940015 45.680809 
L 135.509365 47.959611 
L 138.848505 49.392684 
L 141.484668 50.302595 
L 143.769343 50.872023 
L 145.878274 51.179034 
L 147.987204 51.263952 
L 150.271879 51.125143 
L 152.908042 50.727128 
L 156.071438 50.0161 
L 160.2893 48.826465 
L 166.088859 46.943009 
L 174.173093 44.069916 
L 185.069235 39.952484 
L 198.425795 34.661906 
L 212.485333 28.855758 
L 226.193382 22.955843 
L 230.938476 20.852828 
L 230.938476 20.852828 
" style="fill:none;stroke:#000000;stroke-width:1.2;"/>
   </g>
   <g id="matplotlib.axis_1">
    <g id="xtick_1">
     <g id="line2d_1">
      <defs>
       <path d="M 0 0 
L 0 3.5 
" id="m91da8e6e63" style="stroke:#000000;stroke-width:0.8;"/>
      </defs>
      <g>
       <use style="stroke:#000000;stroke-width:0.8;" x="55.37" xlink:href="#m91da8e6e63" y="188.168476"/>
      </g>
     </g>
     <g id="text_1">
      <!-- 0.0 -->
      <g transform="translate(44.237813 205.806289)scale(0.14 -0.14)">
       <defs>
        <path d="M 31.78125 66.40625 
Q 24.171875 66.40625 20.328125 58.90625 
Q 16.5 51.421875 16.5 36.375 
Q 16.5 21.390625 20.328125 13.890625 
Q 24.171875 6.390625 31.78125 6.390625 
Q 39.453125 6.390625 43.28125 13.890625 
Q 47.125 21.390625 47.125 36.375 
Q 47.125 51.421875 43.28125 58.90625 
Q 39.453125 66.40625 31.78125 66.40625 
z
M 31.78125 74.21875 
Q 44.046875 74.21875 50.515625 64.515625 
Q 56.984375 54.828125 56.984375 36.375 
Q 56.984375 17.96875 50.515625 8.265625 
Q 44.046875 -1.421875 31.78125 -1.421875 
Q 19.53125 -1.421875 13.0625 8.265625 
Q 6.59375 17.96875 6.59375 36.375 
Q 6.59375 54.828125 13.0625 64.515625 
Q 19.53125 74.21875 31.78125 74.21875 
z
" id="DejaVuSans-48"/>
        <path d="M 10.6875 12.40625 
L 21 12.40625 
L 21 0 
L 10.6875 0 
z
" id="DejaVuSans-46"/>
       </defs>
       <use xlink:href="#DejaVuSans-48"/>
       <use x="63.623047" xlink:href="#DejaVuSans-46"/>
       <use x="95.410156" xlink:href="#DejaVuSans-48"/>
      </g>
     </g>
    </g>
    <g id="xtick_2">
     <g id="line2d_2">
      <g>
       <use style="stroke:#000000;stroke-width:0.8;" x="143.154238" xlink:href="#m91da8e6e63" y="188.168476"/>
      </g>
     </g>
     <g id="text_2">
      <!-- 0.5 -->
      <g transform="translate(132.022051 205.806289)scale(0.14 -0.14)">
       <defs>
        <path d="M 10.796875 72.90625 
L 49.515625 72.90625 
L 49.515625 64.59375 
L 19.828125 64.59375 
L 19.828125 46.734375 
Q 21.96875 47.46875 24.109375 47.828125 
Q 26.265625 48.1875 28.421875 48.1875 
Q 40.625 48.1875 47.75 41.5 
Q 54.890625 34.8125 54.890625 23.390625 
Q 54.890625 11.625 47.5625 5.09375 
Q 40.234375 -1.421875 26.90625 -1.421875 
Q 22.3125 -1.421875 17.546875 -0.640625 
Q 12.796875 0.140625 7.71875 1.703125 
L 7.71875 11.625 
Q 12.109375 9.234375 16.796875 8.0625 
Q 21.484375 6.890625 26.703125 6.890625 
Q 35.15625 6.890625 40.078125 11.328125 
Q 45.015625 15.765625 45.015625 23.390625 
Q 45.015625 31 40.078125 35.4375 
Q 35.15625 39.890625 26.703125 39.890625 
Q 22.75 39.890625 18.8125 39.015625 
Q 14.890625 38.140625 10.796875 36.28125 
z
" id="DejaVuSans-53"/>
       </defs>
       <use xlink:href="#DejaVuSans-48"/>
       <use x="63.623047" xlink:href="#DejaVuSans-46"/>
       <use x="95.410156" xlink:href="#DejaVuSans-53"/>
      </g>
     </g>
    </g>
    <g id="xtick_3">
     <g id="line2d_3">
      <g>
       <use style="stroke:#000000;stroke-width:0.8;" x="230.938476" xlink:href="#m91da8e6e63" y="188.168476"/>
      </g>
     </g>
     <g id="text_3">
      <!-- 1.0 -->
      <g transform="translate(219.806289 205.806289)scale(0.14 -0.14)">
       <defs>
        <path d="M 12.40625 8.296875 
L 28.515625 8.296875 
L 28.515625 63.921875 
L 10.984375 60.40625 
L 10.984375 69.390625 
L 28.421875 72.90625 
L 38.28125 72.90625 
L 38.28125 8.296875 
L 54.390625 8.296875 
L 54.390625 0 
L 12.40625 0 
z
" id="DejaVuSans-49"/>
       </defs>
       <use xlink:href="#DejaVuSans-49"/>
       <use x="63.623047" xlink:href="#DejaVuSans-46"/>
       <use x="95.410156" xlink:href="#DejaVuSans-48"/>
      </g>
     </g>
    </g>
    <g id="text_4">
     <!-- $\alpha$ -->
     <g transform="translate(137.610238 225.483226)scale(0.168 -0.168)">
      <defs>
       <path d="M 40.921875 25.4375 
L 40.96875 36.71875 
Q 41.015625 48.25 32.328125 48.296875 
Q 25.828125 48.34375 21.78125 42.921875 
Q 16.703125 36.234375 14.984375 27.296875 
Q 12.890625 16.546875 15.53125 11.421875 
Q 18.265625 6.203125 24.171875 6.203125 
Q 30.71875 6.203125 36.234375 16.609375 
z
M 33.84375 55.90625 
Q 49.078125 56.15625 48.875 40.375 
Q 48.875 40.375 56.5 54.6875 
L 64.5 54.6875 
L 48.734375 25.046875 
L 48.578125 14.359375 
Q 48.578125 11.96875 49.90625 9.96875 
Q 51.421875 7.625 52.984375 7.625 
L 57.328125 7.625 
L 55.859375 0 
L 50.4375 0 
Q 45.84375 0 42.53125 4.109375 
Q 40.96875 6.15625 40.921875 10.453125 
Q 37.75 5.21875 32.28125 0.78125 
Q 29.6875 -1.265625 22.703125 -1.21875 
Q 11.28125 -1.125 7.125 6.203125 
Q 2.875 13.8125 5.515625 27.296875 
Q 8.34375 41.796875 15.765625 48.390625 
Q 24.125 55.765625 33.84375 55.90625 
z
" id="DejaVuSans-Oblique-945"/>
      </defs>
      <use transform="translate(0 0.84375)" xlink:href="#DejaVuSans-Oblique-945"/>
     </g>
    </g>
   </g>
   <g id="matplotlib.axis_2">
    <g id="ytick_1">
     <g id="line2d_4">
      <defs>
       <path d="M 0 0 
L -3.5 0 
" id="mb7d0daa70e" style="stroke:#000000;stroke-width:0.8;"/>
      </defs>
      <g>
       <use style="stroke:#000000;stroke-width:0.8;" x="55.37" xlink:href="#mb7d0daa70e" y="188.168476"/>
      </g>
     </g>
     <g id="text_5">
      <!-- −4 -->
      <g transform="translate(27.730938 193.487382)scale(0.14 -0.14)">
       <defs>
        <path d="M 10.59375 35.5 
L 73.1875 35.5 
L 73.1875 27.203125 
L 10.59375 27.203125 
z
" id="DejaVuSans-8722"/>
        <path d="M 37.796875 64.3125 
L 12.890625 25.390625 
L 37.796875 25.390625 
z
M 35.203125 72.90625 
L 47.609375 72.90625 
L 47.609375 25.390625 
L 58.015625 25.390625 
L 58.015625 17.1875 
L 47.609375 17.1875 
L 47.609375 0 
L 37.796875 0 
L 37.796875 17.1875 
L 4.890625 17.1875 
L 4.890625 26.703125 
z
" id="DejaVuSans-52"/>
       </defs>
       <use xlink:href="#DejaVuSans-8722"/>
       <use x="83.789062" xlink:href="#DejaVuSans-52"/>
      </g>
     </g>
    </g>
    <g id="ytick_2">
     <g id="line2d_5">
      <g>
       <use style="stroke:#000000;stroke-width:0.8;" x="55.37" xlink:href="#mb7d0daa70e" y="100.384238"/>
      </g>
     </g>
     <g id="text_6">
      <!-- 0 -->
      <g transform="translate(39.4625 105.703144)scale(0.14 -0.14)">
       <use xlink:href="#DejaVuSans-48"/>
      </g>
     </g>
    </g>
    <g id="ytick_3">
     <g id="line2d_6">
      <g>
       <use style="stroke:#000000;stroke-width:0.8;" x="55.37" xlink:href="#mb7d0daa70e" y="12.6"/>
      </g>
     </g>
     <g id="text_7">
      <!-- 4 -->
      <g transform="translate(39.4625 17.918906)scale(0.14 -0.14)">
       <use xlink:href="#DejaVuSans-52"/>
      </g>
     </g>
    </g>
    <g id="text_8">
     <!-- $E$ -->
     <g transform="translate(20.237063 105.760238)rotate(-90)scale(0.168 -0.168)">
      <defs>
       <path d="M 16.890625 72.90625 
L 62.984375 72.90625 
L 61.375 64.59375 
L 25.09375 64.59375 
L 20.90625 43.015625 
L 55.71875 43.015625 
L 54.109375 34.71875 
L 19.28125 34.71875 
L 14.203125 8.296875 
L 51.3125 8.296875 
L 49.703125 0 
L 2.6875 0 
z
" id="DejaVuSans-Oblique-69"/>
      </defs>
      <use transform="translate(0 0.09375)" xlink:href="#DejaVuSans-Oblique-69"/>
     </g>
    </g>
   </g>
   <g id="line2d_7">
    <path clip-path="url(#p7d6c21fb15)" d="M 55.37 100.384238 
L 230.938476 100.384238 
" style="fill:none;stroke:#0000ff;stroke-dasharray:7.4,3.2;stroke-dashoffset:0;stroke-width:2;"/>
   </g>
   <g id="patch_3">
    <path d="M 55.37 188.168476 
L 55.37 12.6 
" style="fill:none;stroke:#000000;stroke-linecap:square;stroke-linejoin:miter;stroke-width:0.8;"/>
   </g>
   <g id="patch_4">
    <path d="M 55.37 188.168476 
L 230.938476 188.168476 
" style="fill:none;stroke:#000000;stroke-linecap:square;stroke-linejoin:miter;stroke-width:0.8;"/>
   </g>
  </g>
  <g id="axes_2">
   <g id="patch_5">
    <path d="M 55.37 306.91469 
L 230.938476 306.91469 
L 230.938476 263.022571 
L 55.37 263.022571 
z
" style="fill:#ffffff;"/>
   </g>
   <g id="PolyCollection_1">
    <defs>
     <path d="M 55.37 -26.49394 
L 55.37 -81.359089 
L 55.545744 -81.359089 
L 55.721488 -81.359089 
L 55.897233 -81.359089 
L 56.072977 -81.359089 
L 56.248721 -81.359089 
L 56.424465 -81.359089 
L 56.60021 -81.359089 
L 56.775954 -81.359089 
L 56.951698 -81.359089 
L 57.127442 -81.359089 
L 57.303186 -81.359089 
L 57.478931 -81.359089 
L 57.654675 -81.359089 
L 57.830419 -81.359089 
L 58.006163 -81.359089 
L 58.181908 -81.359089 
L 58.357652 -81.359089 
L 58.533396 -81.359089 
L 58.70914 -81.359089 
L 58.884884 -81.359089 
L 59.060629 -81.359089 
L 59.236373 -81.359089 
L 59.412117 -81.359089 
L 59.587861 -81.359089 
L 59.763606 -81.359089 
L 59.93935 -81.359089 
L 60.115094 -81.359089 
L 60.290838 -81.359089 
L 60.466582 -81.359089 
L 60.642327 -81.359089 
L 60.818071 -81.359089 
L 60.993815 -81.359089 
L 61.169559 -81.359089 
L 61.345303 -81.359089 
L 61.521048 -81.359089 
L 61.696792 -81.359089 
L 61.872536 -81.359089 
L 62.04828 -81.359089 
L 62.224025 -81.359089 
L 62.399769 -81.359089 
L 62.575513 -81.359089 
L 62.751257 -81.359089 
L 62.927001 -81.359089 
L 63.102746 -81.359089 
L 63.27849 -81.359089 
L 63.454234 -81.359089 
L 63.629978 -81.359089 
L 63.805723 -81.359089 
L 63.981467 -81.359089 
L 64.157211 -81.359089 
L 64.332955 -81.359089 
L 64.508699 -81.359089 
L 64.684444 -81.359089 
L 64.860188 -81.359089 
L 65.035932 -81.359089 
L 65.211676 -81.359089 
L 65.387421 -81.359089 
L 65.563165 -81.359089 
L 65.738909 -81.359089 
L 65.914653 -81.359089 
L 66.090397 -81.359089 
L 66.266142 -81.359089 
L 66.441886 -81.359089 
L 66.61763 -81.359089 
L 66.793374 -81.359089 
L 66.969119 -81.359089 
L 67.144863 -81.359089 
L 67.320607 -81.359089 
L 67.496351 -81.359089 
L 67.672095 -81.359089 
L 67.84784 -81.359089 
L 68.023584 -81.359089 
L 68.199328 -81.359089 
L 68.375072 -81.359089 
L 68.550817 -81.359089 
L 68.726561 -81.359089 
L 68.902305 -81.359089 
L 69.078049 -81.359089 
L 69.253793 -81.359089 
L 69.429538 -81.359089 
L 69.605282 -81.359089 
L 69.781026 -81.359089 
L 69.95677 -81.359089 
L 70.132515 -81.359089 
L 70.308259 -81.359089 
L 70.484003 -81.359089 
L 70.659747 -81.359089 
L 70.835491 -81.359089 
L 71.011236 -81.359089 
L 71.18698 -81.359089 
L 71.362724 -81.359089 
L 71.538468 -81.359089 
L 71.714213 -81.359089 
L 71.889957 -81.359089 
L 72.065701 -81.359089 
L 72.241445 -81.359089 
L 72.417189 -81.359089 
L 72.592934 -81.359089 
L 72.768678 -81.359089 
L 72.944422 -81.359089 
L 73.120166 -81.359089 
L 73.29591 -81.359089 
L 73.471655 -81.359089 
L 73.647399 -81.359089 
L 73.823143 -81.359089 
L 73.998887 -81.359089 
L 74.174632 -81.359089 
L 74.350376 -81.359089 
L 74.52612 -81.359089 
L 74.701864 -81.359089 
L 74.877608 -81.359089 
L 75.053353 -81.359089 
L 75.229097 -81.359089 
L 75.404841 -81.359089 
L 75.580585 -81.359089 
L 75.75633 -81.359089 
L 75.932074 -81.359089 
L 76.107818 -81.359089 
L 76.283562 -81.359089 
L 76.459306 -81.359089 
L 76.635051 -81.359089 
L 76.810795 -81.359089 
L 76.986539 -81.359089 
L 77.162283 -81.359089 
L 77.338028 -81.359089 
L 77.513772 -81.359089 
L 77.689516 -81.359089 
L 77.86526 -81.359089 
L 78.041004 -81.359089 
L 78.216749 -81.359089 
L 78.392493 -81.359089 
L 78.568237 -81.359089 
L 78.743981 -81.359089 
L 78.919726 -81.359089 
L 79.09547 -81.359089 
L 79.271214 -81.359089 
L 79.446958 -81.359089 
L 79.622702 -81.359089 
L 79.798447 -81.359089 
L 79.974191 -81.359089 
L 80.149935 -81.359089 
L 80.325679 -81.359089 
L 80.501424 -81.359089 
L 80.677168 -81.359089 
L 80.852912 -81.359089 
L 81.028656 -81.359089 
L 81.2044 -81.359089 
L 81.380145 -81.359089 
L 81.555889 -81.359089 
L 81.731633 -81.359089 
L 81.907377 -81.359089 
L 82.083122 -81.359089 
L 82.258866 -81.359089 
L 82.43461 -81.359089 
L 82.610354 -81.359089 
L 82.786098 -81.359089 
L 82.961843 -81.359089 
L 83.137587 -81.359089 
L 83.313331 -81.359089 
L 83.489075 -81.359089 
L 83.664819 -81.359089 
L 83.840564 -81.359089 
L 84.016308 -81.359089 
L 84.192052 -81.359089 
L 84.367796 -81.359089 
L 84.543541 -81.359089 
L 84.719285 -81.359089 
L 84.895029 -81.359089 
L 85.070773 -81.359089 
L 85.246517 -81.359089 
L 85.422262 -81.359089 
L 85.598006 -81.359089 
L 85.77375 -81.359089 
L 85.949494 -81.359089 
L 86.125239 -81.359089 
L 86.300983 -81.359089 
L 86.476727 -81.359089 
L 86.652471 -81.359089 
L 86.828215 -81.359089 
L 87.00396 -81.359089 
L 87.179704 -81.359089 
L 87.355448 -81.359089 
L 87.531192 -81.359089 
L 87.706937 -81.359089 
L 87.882681 -81.359089 
L 88.058425 -81.359089 
L 88.234169 -81.359089 
L 88.409913 -81.359089 
L 88.585658 -81.359089 
L 88.761402 -81.359089 
L 88.937146 -81.359089 
L 89.11289 -81.359089 
L 89.288635 -81.359089 
L 89.464379 -81.359089 
L 89.640123 -81.359089 
L 89.815867 -81.359089 
L 89.991611 -81.359089 
L 90.167356 -81.359089 
L 90.3431 -81.359089 
L 90.518844 -81.359089 
L 90.694588 -81.359089 
L 90.870333 -81.359089 
L 91.046077 -81.359089 
L 91.221821 -81.359089 
L 91.397565 -81.359089 
L 91.573309 -81.359089 
L 91.749054 -81.359089 
L 91.924798 -81.359089 
L 92.100542 -81.359089 
L 92.276286 -81.359089 
L 92.452031 -81.359089 
L 92.627775 -81.359089 
L 92.803519 -81.359089 
L 92.979263 -81.359089 
L 93.155007 -81.359089 
L 93.330752 -81.359089 
L 93.506496 -81.359089 
L 93.68224 -81.359089 
L 93.857984 -81.359089 
L 94.033728 -81.359089 
L 94.209473 -81.359089 
L 94.385217 -81.359089 
L 94.560961 -81.359089 
L 94.736705 -81.359089 
L 94.91245 -81.359089 
L 95.088194 -81.359089 
L 95.263938 -81.359089 
L 95.439682 -81.359089 
L 95.615426 -81.359089 
L 95.791171 -81.359089 
L 95.966915 -81.359089 
L 96.142659 -81.359089 
L 96.318403 -81.359089 
L 96.494148 -81.359089 
L 96.669892 -81.359089 
L 96.845636 -81.359089 
L 97.02138 -81.359089 
L 97.197124 -81.359089 
L 97.372869 -81.359089 
L 97.548613 -81.359089 
L 97.724357 -81.359089 
L 97.900101 -81.359089 
L 98.075846 -81.359089 
L 98.25159 -81.359089 
L 98.427334 -81.359089 
L 98.603078 -81.359089 
L 98.778822 -81.359089 
L 98.954567 -81.359089 
L 99.130311 -81.359089 
L 99.306055 -81.359089 
L 99.481799 -81.359089 
L 99.657544 -81.359089 
L 99.833288 -81.359089 
L 100.009032 -81.359089 
L 100.184776 -81.359089 
L 100.36052 -81.359089 
L 100.536265 -81.359089 
L 100.712009 -81.359089 
L 100.887753 -81.359089 
L 101.063497 -81.359089 
L 101.239242 -81.359089 
L 101.414986 -81.359089 
L 101.59073 -81.359089 
L 101.766474 -81.359089 
L 101.942218 -81.359089 
L 102.117963 -81.359089 
L 102.293707 -81.359089 
L 102.469451 -81.359089 
L 102.645195 -81.359089 
L 102.82094 -81.359089 
L 102.996684 -81.359089 
L 103.172428 -81.359089 
L 103.348172 -81.359089 
L 103.523916 -81.359089 
L 103.699661 -81.359089 
L 103.875405 -81.359089 
L 104.051149 -81.359089 
L 104.226893 -81.359089 
L 104.402638 -81.359089 
L 104.578382 -81.359089 
L 104.754126 -81.359089 
L 104.92987 -81.359089 
L 105.105614 -81.359089 
L 105.281359 -81.359089 
L 105.457103 -81.359089 
L 105.632847 -81.359089 
L 105.808591 -81.359089 
L 105.984335 -81.359089 
L 106.16008 -81.359089 
L 106.335824 -81.359089 
L 106.511568 -81.359089 
L 106.687312 -81.359089 
L 106.863057 -81.359089 
L 107.038801 -81.359089 
L 107.214545 -81.359089 
L 107.390289 -81.359089 
L 107.566033 -81.359089 
L 107.741778 -81.359089 
L 107.917522 -81.359089 
L 108.093266 -81.359089 
L 108.26901 -81.359089 
L 108.444755 -81.359089 
L 108.620499 -81.359089 
L 108.796243 -81.359089 
L 108.971987 -81.359089 
L 109.147731 -81.359089 
L 109.323476 -81.359089 
L 109.49922 -81.359089 
L 109.674964 -81.359089 
L 109.850708 -81.359089 
L 110.026453 -81.359089 
L 110.202197 -81.359089 
L 110.377941 -81.359089 
L 110.553685 -81.359089 
L 110.729429 -81.359089 
L 110.905174 -81.359089 
L 111.080918 -81.359089 
L 111.256662 -81.359089 
L 111.432406 -81.359089 
L 111.608151 -81.359089 
L 111.783895 -81.359089 
L 111.959639 -81.359089 
L 112.135383 -81.359089 
L 112.311127 -81.359089 
L 112.486872 -81.359089 
L 112.662616 -81.359089 
L 112.83836 -81.359089 
L 113.014104 -70.38606 
L 113.189849 -70.38606 
L 113.365593 -70.38606 
L 113.541337 -70.38606 
L 113.717081 -70.38606 
L 113.892825 -70.38606 
L 114.06857 -70.38606 
L 114.244314 -70.38606 
L 114.420058 -70.38606 
L 114.595802 -70.38606 
L 114.771547 -70.38606 
L 114.947291 -70.38606 
L 115.123035 -70.38606 
L 115.298779 -70.38606 
L 115.474523 -70.38606 
L 115.650268 -70.38606 
L 115.826012 -70.38606 
L 116.001756 -70.38606 
L 116.1775 -70.38606 
L 116.353244 -70.38606 
L 116.528989 -70.38606 
L 116.704733 -70.38606 
L 116.880477 -70.38606 
L 117.056221 -70.38606 
L 117.231966 -70.38606 
L 117.40771 -70.38606 
L 117.583454 -70.38606 
L 117.759198 -70.38606 
L 117.934942 -70.38606 
L 118.110687 -70.38606 
L 118.286431 -70.38606 
L 118.462175 -70.38606 
L 118.637919 -70.38606 
L 118.813664 -70.38606 
L 118.989408 -70.38606 
L 119.165152 -70.38606 
L 119.340896 -70.38606 
L 119.51664 -70.38606 
L 119.692385 -70.38606 
L 119.868129 -70.38606 
L 120.043873 -70.38606 
L 120.219617 -70.38606 
L 120.395362 -70.38606 
L 120.571106 -70.38606 
L 120.74685 -70.38606 
L 120.922594 -70.38606 
L 121.098338 -70.38606 
L 121.274083 -70.38606 
L 121.449827 -70.38606 
L 121.625571 -70.38606 
L 121.801315 -70.38606 
L 121.97706 -70.38606 
L 122.152804 -70.38606 
L 122.328548 -70.38606 
L 122.504292 -70.38606 
L 122.680036 -70.38606 
L 122.855781 -70.38606 
L 123.031525 -70.38606 
L 123.207269 -70.38606 
L 123.383013 -70.38606 
L 123.558758 -70.38606 
L 123.734502 -70.38606 
L 123.910246 -70.38606 
L 124.08599 -70.38606 
L 124.261734 -70.38606 
L 124.437479 -70.38606 
L 124.613223 -70.38606 
L 124.788967 -70.38606 
L 124.964711 -70.38606 
L 125.140456 -70.38606 
L 125.3162 -70.38606 
L 125.491944 -70.38606 
L 125.667688 -70.38606 
L 125.843432 -70.38606 
L 126.019177 -70.38606 
L 126.194921 -70.38606 
L 126.370665 -70.38606 
L 126.546409 -70.38606 
L 126.722153 -70.38606 
L 126.897898 -70.38606 
L 127.073642 -70.38606 
L 127.249386 -70.38606 
L 127.42513 -70.38606 
L 127.600875 -70.38606 
L 127.776619 -70.38606 
L 127.952363 -70.38606 
L 128.128107 -70.38606 
L 128.303851 -70.38606 
L 128.479596 -70.38606 
L 128.65534 -70.38606 
L 128.831084 -70.38606 
L 129.006828 -70.38606 
L 129.182573 -70.38606 
L 129.358317 -70.38606 
L 129.534061 -70.38606 
L 129.709805 -70.38606 
L 129.885549 -70.38606 
L 130.061294 -70.38606 
L 130.237038 -70.38606 
L 130.412782 -70.38606 
L 130.588526 -70.38606 
L 130.764271 -70.38606 
L 130.940015 -70.38606 
L 131.115759 -70.38606 
L 131.291503 -70.38606 
L 131.467247 -70.38606 
L 131.642992 -70.38606 
L 131.818736 -70.38606 
L 131.99448 -70.38606 
L 132.170224 -70.38606 
L 132.345969 -70.38606 
L 132.521713 -70.38606 
L 132.697457 -70.38606 
L 132.873201 -70.38606 
L 133.048945 -70.38606 
L 133.22469 -70.38606 
L 133.400434 -70.38606 
L 133.576178 -70.38606 
L 133.751922 -70.38606 
L 133.927667 -70.38606 
L 134.103411 -70.38606 
L 134.279155 -70.38606 
L 134.454899 -70.38606 
L 134.630643 -70.38606 
L 134.806388 -70.38606 
L 134.982132 -70.38606 
L 135.157876 -70.38606 
L 135.33362 -70.38606 
L 135.509365 -70.38606 
L 135.685109 -70.38606 
L 135.860853 -70.38606 
L 136.036597 -70.38606 
L 136.212341 -70.38606 
L 136.388086 -70.38606 
L 136.56383 -70.38606 
L 136.739574 -70.38606 
L 136.915318 -70.38606 
L 137.091063 -70.38606 
L 137.266807 -70.38606 
L 137.442551 -70.38606 
L 137.618295 -70.38606 
L 137.794039 -70.38606 
L 137.969784 -70.38606 
L 138.145528 -70.38606 
L 138.321272 -70.38606 
L 138.497016 -70.38606 
L 138.67276 -70.38606 
L 138.848505 -70.38606 
L 139.024249 -70.38606 
L 139.199993 -70.38606 
L 139.375737 -70.38606 
L 139.551482 -70.38606 
L 139.727226 -70.38606 
L 139.90297 -70.38606 
L 140.078714 -70.38606 
L 140.254458 -70.38606 
L 140.430203 -70.38606 
L 140.605947 -70.38606 
L 140.781691 -70.38606 
L 140.957435 -70.38606 
L 141.13318 -70.38606 
L 141.308924 -70.38606 
L 141.484668 -70.38606 
L 141.660412 -70.38606 
L 141.836156 -70.38606 
L 142.011901 -70.38606 
L 142.187645 -70.38606 
L 142.363389 -70.38606 
L 142.539133 -70.38606 
L 142.714878 -70.38606 
L 142.890622 -70.38606 
L 143.066366 -70.38606 
L 143.24211 -70.38606 
L 143.417854 -70.38606 
L 143.593599 -70.38606 
L 143.769343 -70.38606 
L 143.945087 -70.38606 
L 144.120831 -70.38606 
L 144.296576 -70.38606 
L 144.47232 -70.38606 
L 144.648064 -70.38606 
L 144.823808 -70.38606 
L 144.999552 -70.38606 
L 145.175297 -70.38606 
L 145.351041 -70.38606 
L 145.526785 -70.38606 
L 145.702529 -70.38606 
L 145.878274 -70.38606 
L 146.054018 -70.38606 
L 146.229762 -70.38606 
L 146.405506 -70.38606 
L 146.58125 -70.38606 
L 146.756995 -70.38606 
L 146.932739 -70.38606 
L 147.108483 -70.38606 
L 147.284227 -70.38606 
L 147.459972 -70.38606 
L 147.635716 -70.38606 
L 147.81146 -70.38606 
L 147.987204 -70.38606 
L 148.162948 -70.38606 
L 148.338693 -70.38606 
L 148.514437 -70.38606 
L 148.690181 -70.38606 
L 148.865925 -70.38606 
L 149.041669 -70.38606 
L 149.217414 -70.38606 
L 149.393158 -70.38606 
L 149.568902 -70.38606 
L 149.744646 -70.38606 
L 149.920391 -70.38606 
L 150.096135 -70.38606 
L 150.271879 -70.38606 
L 150.447623 -70.38606 
L 150.623367 -70.38606 
L 150.799112 -70.38606 
L 150.974856 -70.38606 
L 151.1506 -70.38606 
L 151.326344 -70.38606 
L 151.502089 -70.38606 
L 151.677833 -70.38606 
L 151.853577 -70.38606 
L 152.029321 -70.38606 
L 152.205065 -70.38606 
L 152.38081 -70.38606 
L 152.556554 -70.38606 
L 152.732298 -70.38606 
L 152.908042 -70.38606 
L 153.083787 -70.38606 
L 153.259531 -70.38606 
L 153.435275 -70.38606 
L 153.611019 -70.38606 
L 153.786763 -70.38606 
L 153.962508 -70.38606 
L 154.138252 -70.38606 
L 154.313996 -70.38606 
L 154.48974 -70.38606 
L 154.665485 -70.38606 
L 154.841229 -70.38606 
L 155.016973 -70.38606 
L 155.192717 -70.38606 
L 155.368461 -70.38606 
L 155.544206 -70.38606 
L 155.71995 -70.38606 
L 155.895694 -70.38606 
L 156.071438 -70.38606 
L 156.247183 -70.38606 
L 156.422927 -70.38606 
L 156.598671 -70.38606 
L 156.774415 -70.38606 
L 156.950159 -70.38606 
L 157.125904 -70.38606 
L 157.301648 -70.38606 
L 157.477392 -70.38606 
L 157.653136 -70.38606 
L 157.828881 -70.38606 
L 158.004625 -70.38606 
L 158.180369 -70.38606 
L 158.356113 -70.38606 
L 158.531857 -70.38606 
L 158.707602 -70.38606 
L 158.883346 -70.38606 
L 159.05909 -70.38606 
L 159.234834 -70.38606 
L 159.410578 -70.38606 
L 159.586323 -70.38606 
L 159.762067 -70.38606 
L 159.937811 -70.38606 
L 160.113555 -70.38606 
L 160.2893 -70.38606 
L 160.465044 -70.38606 
L 160.640788 -70.38606 
L 160.816532 -70.38606 
L 160.992276 -70.38606 
L 161.168021 -70.38606 
L 161.343765 -70.38606 
L 161.519509 -70.38606 
L 161.695253 -70.38606 
L 161.870998 -70.38606 
L 162.046742 -70.38606 
L 162.222486 -70.38606 
L 162.39823 -70.38606 
L 162.573974 -70.38606 
L 162.749719 -70.38606 
L 162.925463 -70.38606 
L 163.101207 -70.38606 
L 163.276951 -70.38606 
L 163.452696 -70.38606 
L 163.62844 -70.38606 
L 163.804184 -70.38606 
L 163.979928 -70.38606 
L 164.155672 -70.38606 
L 164.331417 -70.38606 
L 164.507161 -70.38606 
L 164.682905 -70.38606 
L 164.858649 -70.38606 
L 165.034394 -70.38606 
L 165.210138 -70.38606 
L 165.385882 -70.38606 
L 165.561626 -70.38606 
L 165.73737 -70.38606 
L 165.913115 -70.38606 
L 166.088859 -70.38606 
L 166.264603 -70.38606 
L 166.440347 -70.38606 
L 166.616092 -70.38606 
L 166.791836 -70.38606 
L 166.96758 -70.38606 
L 167.143324 -70.38606 
L 167.319068 -70.38606 
L 167.494813 -70.38606 
L 167.670557 -70.38606 
L 167.846301 -70.38606 
L 168.022045 -70.38606 
L 168.19779 -70.38606 
L 168.373534 -70.38606 
L 168.549278 -70.38606 
L 168.725022 -70.38606 
L 168.900766 -70.38606 
L 169.076511 -70.38606 
L 169.252255 -70.38606 
L 169.427999 -70.38606 
L 169.603743 -70.38606 
L 169.779488 -70.38606 
L 169.955232 -70.38606 
L 170.130976 -70.38606 
L 170.30672 -70.38606 
L 170.482464 -70.38606 
L 170.658209 -70.38606 
L 170.833953 -70.38606 
L 171.009697 -70.38606 
L 171.185441 -70.38606 
L 171.361185 -70.38606 
L 171.53693 -70.38606 
L 171.712674 -70.38606 
L 171.888418 -70.38606 
L 172.064162 -70.38606 
L 172.239907 -70.38606 
L 172.415651 -70.38606 
L 172.591395 -70.38606 
L 172.767139 -70.38606 
L 172.942883 -70.38606 
L 173.118628 -70.38606 
L 173.294372 -70.38606 
L 173.470116 -70.38606 
L 173.64586 -70.38606 
L 173.821605 -70.38606 
L 173.997349 -70.38606 
L 174.173093 -70.38606 
L 174.348837 -70.38606 
L 174.524581 -70.38606 
L 174.700326 -70.38606 
L 174.87607 -70.38606 
L 175.051814 -70.38606 
L 175.227558 -70.38606 
L 175.403303 -70.38606 
L 175.579047 -70.38606 
L 175.754791 -70.38606 
L 175.930535 -70.38606 
L 176.106279 -70.38606 
L 176.282024 -70.38606 
L 176.457768 -70.38606 
L 176.633512 -70.38606 
L 176.809256 -70.38606 
L 176.985001 -70.38606 
L 177.160745 -70.38606 
L 177.336489 -70.38606 
L 177.512233 -70.38606 
L 177.687977 -70.38606 
L 177.863722 -70.38606 
L 178.039466 -70.38606 
L 178.21521 -70.38606 
L 178.390954 -70.38606 
L 178.566699 -70.38606 
L 178.742443 -70.38606 
L 178.918187 -70.38606 
L 179.093931 -59.41303 
L 179.269675 -59.41303 
L 179.44542 -59.41303 
L 179.621164 -59.41303 
L 179.796908 -59.41303 
L 179.972652 -59.41303 
L 180.148397 -59.41303 
L 180.324141 -59.41303 
L 180.499885 -59.41303 
L 180.675629 -59.41303 
L 180.851373 -59.41303 
L 181.027118 -59.41303 
L 181.202862 -59.41303 
L 181.378606 -59.41303 
L 181.55435 -59.41303 
L 181.730094 -59.41303 
L 181.905839 -59.41303 
L 182.081583 -59.41303 
L 182.257327 -59.41303 
L 182.433071 -59.41303 
L 182.608816 -59.41303 
L 182.78456 -59.41303 
L 182.960304 -59.41303 
L 183.136048 -59.41303 
L 183.311792 -59.41303 
L 183.487537 -59.41303 
L 183.663281 -59.41303 
L 183.839025 -59.41303 
L 184.014769 -59.41303 
L 184.190514 -59.41303 
L 184.366258 -59.41303 
L 184.542002 -59.41303 
L 184.717746 -59.41303 
L 184.89349 -59.41303 
L 185.069235 -59.41303 
L 185.244979 -59.41303 
L 185.420723 -59.41303 
L 185.596467 -59.41303 
L 185.772212 -59.41303 
L 185.947956 -59.41303 
L 186.1237 -59.41303 
L 186.299444 -59.41303 
L 186.475188 -59.41303 
L 186.650933 -59.41303 
L 186.826677 -59.41303 
L 187.002421 -59.41303 
L 187.178165 -59.41303 
L 187.35391 -59.41303 
L 187.529654 -59.41303 
L 187.705398 -59.41303 
L 187.881142 -59.41303 
L 188.056886 -59.41303 
L 188.232631 -59.41303 
L 188.408375 -59.41303 
L 188.584119 -59.41303 
L 188.759863 -59.41303 
L 188.935608 -59.41303 
L 189.111352 -59.41303 
L 189.287096 -59.41303 
L 189.46284 -59.41303 
L 189.638584 -59.41303 
L 189.814329 -59.41303 
L 189.990073 -59.41303 
L 190.165817 -59.41303 
L 190.341561 -59.41303 
L 190.517306 -59.41303 
L 190.69305 -59.41303 
L 190.868794 -59.41303 
L 191.044538 -59.41303 
L 191.220282 -59.41303 
L 191.396027 -59.41303 
L 191.571771 -59.41303 
L 191.747515 -59.41303 
L 191.923259 -59.41303 
L 192.099004 -59.41303 
L 192.274748 -59.41303 
L 192.450492 -59.41303 
L 192.626236 -59.41303 
L 192.80198 -59.41303 
L 192.977725 -59.41303 
L 193.153469 -59.41303 
L 193.329213 -59.41303 
L 193.504957 -59.41303 
L 193.680701 -59.41303 
L 193.856446 -59.41303 
L 194.03219 -59.41303 
L 194.207934 -59.41303 
L 194.383678 -59.41303 
L 194.559423 -59.41303 
L 194.735167 -59.41303 
L 194.910911 -59.41303 
L 195.086655 -59.41303 
L 195.262399 -59.41303 
L 195.438144 -59.41303 
L 195.613888 -59.41303 
L 195.789632 -59.41303 
L 195.965376 -59.41303 
L 196.141121 -59.41303 
L 196.316865 -59.41303 
L 196.492609 -59.41303 
L 196.668353 -59.41303 
L 196.844097 -59.41303 
L 197.019842 -59.41303 
L 197.195586 -59.41303 
L 197.37133 -59.41303 
L 197.547074 -59.41303 
L 197.722819 -59.41303 
L 197.898563 -59.41303 
L 198.074307 -59.41303 
L 198.250051 -59.41303 
L 198.425795 -59.41303 
L 198.60154 -59.41303 
L 198.777284 -59.41303 
L 198.953028 -59.41303 
L 199.128772 -59.41303 
L 199.304517 -59.41303 
L 199.480261 -59.41303 
L 199.656005 -59.41303 
L 199.831749 -59.41303 
L 200.007493 -59.41303 
L 200.183238 -59.41303 
L 200.358982 -59.41303 
L 200.534726 -59.41303 
L 200.71047 -59.41303 
L 200.886215 -59.41303 
L 201.061959 -59.41303 
L 201.237703 -59.41303 
L 201.413447 -59.41303 
L 201.589191 -59.41303 
L 201.764936 -59.41303 
L 201.94068 -59.41303 
L 202.116424 -59.41303 
L 202.292168 -59.41303 
L 202.467913 -59.41303 
L 202.643657 -59.41303 
L 202.819401 -59.41303 
L 202.995145 -59.41303 
L 203.170889 -59.41303 
L 203.346634 -59.41303 
L 203.522378 -59.41303 
L 203.698122 -59.41303 
L 203.873866 -59.41303 
L 204.04961 -59.41303 
L 204.225355 -59.41303 
L 204.401099 -59.41303 
L 204.576843 -59.41303 
L 204.752587 -59.41303 
L 204.928332 -59.41303 
L 205.104076 -59.41303 
L 205.27982 -59.41303 
L 205.455564 -59.41303 
L 205.631308 -59.41303 
L 205.807053 -59.41303 
L 205.982797 -59.41303 
L 206.158541 -59.41303 
L 206.334285 -59.41303 
L 206.51003 -59.41303 
L 206.685774 -59.41303 
L 206.861518 -59.41303 
L 207.037262 -59.41303 
L 207.213006 -59.41303 
L 207.388751 -59.41303 
L 207.564495 -59.41303 
L 207.740239 -59.41303 
L 207.915983 -59.41303 
L 208.091728 -59.41303 
L 208.267472 -59.41303 
L 208.443216 -59.41303 
L 208.61896 -59.41303 
L 208.794704 -59.41303 
L 208.970449 -59.41303 
L 209.146193 -59.41303 
L 209.321937 -59.41303 
L 209.497681 -59.41303 
L 209.673426 -59.41303 
L 209.84917 -59.41303 
L 210.024914 -59.41303 
L 210.200658 -59.41303 
L 210.376402 -59.41303 
L 210.552147 -70.38606 
L 210.727891 -70.38606 
L 210.903635 -70.38606 
L 211.079379 -70.38606 
L 211.255124 -70.38606 
L 211.430868 -70.38606 
L 211.606612 -70.38606 
L 211.782356 -70.38606 
L 211.9581 -70.38606 
L 212.133845 -70.38606 
L 212.309589 -70.38606 
L 212.485333 -70.38606 
L 212.661077 -70.38606 
L 212.836822 -70.38606 
L 213.012566 -70.38606 
L 213.18831 -70.38606 
L 213.364054 -70.38606 
L 213.539798 -70.38606 
L 213.715543 -70.38606 
L 213.891287 -70.38606 
L 214.067031 -70.38606 
L 214.242775 -70.38606 
L 214.418519 -70.38606 
L 214.594264 -70.38606 
L 214.770008 -70.38606 
L 214.945752 -70.38606 
L 215.121496 -70.38606 
L 215.297241 -70.38606 
L 215.472985 -70.38606 
L 215.648729 -70.38606 
L 215.824473 -70.38606 
L 216.000217 -70.38606 
L 216.175962 -70.38606 
L 216.351706 -70.38606 
L 216.52745 -70.38606 
L 216.703194 -70.38606 
L 216.878939 -70.38606 
L 217.054683 -70.38606 
L 217.230427 -70.38606 
L 217.406171 -70.38606 
L 217.581915 -70.38606 
L 217.75766 -70.38606 
L 217.933404 -70.38606 
L 218.109148 -70.38606 
L 218.284892 -70.38606 
L 218.460637 -70.38606 
L 218.636381 -70.38606 
L 218.812125 -70.38606 
L 218.987869 -70.38606 
L 219.163613 -70.38606 
L 219.339358 -70.38606 
L 219.515102 -70.38606 
L 219.690846 -70.38606 
L 219.86659 -70.38606 
L 220.042335 -70.38606 
L 220.218079 -70.38606 
L 220.393823 -70.38606 
L 220.569567 -70.38606 
L 220.745311 -70.38606 
L 220.921056 -70.38606 
L 221.0968 -70.38606 
L 221.272544 -70.38606 
L 221.448288 -70.38606 
L 221.624033 -70.38606 
L 221.799777 -70.38606 
L 221.975521 -70.38606 
L 222.151265 -70.38606 
L 222.327009 -70.38606 
L 222.502754 -70.38606 
L 222.678498 -70.38606 
L 222.854242 -70.38606 
L 223.029986 -70.38606 
L 223.205731 -70.38606 
L 223.381475 -70.38606 
L 223.557219 -70.38606 
L 223.732963 -70.38606 
L 223.908707 -70.38606 
L 224.084452 -70.38606 
L 224.260196 -70.38606 
L 224.43594 -70.38606 
L 224.611684 -70.38606 
L 224.787429 -70.38606 
L 224.963173 -70.38606 
L 225.138917 -70.38606 
L 225.314661 -70.38606 
L 225.490405 -70.38606 
L 225.66615 -70.38606 
L 225.841894 -70.38606 
L 226.017638 -70.38606 
L 226.193382 -70.38606 
L 226.369126 -70.38606 
L 226.544871 -70.38606 
L 226.720615 -70.38606 
L 226.896359 -70.38606 
L 227.072103 -70.38606 
L 227.247848 -70.38606 
L 227.423592 -70.38606 
L 227.599336 -70.38606 
L 227.77508 -70.38606 
L 227.950824 -70.38606 
L 228.126569 -70.38606 
L 228.302313 -70.38606 
L 228.478057 -70.38606 
L 228.653801 -70.38606 
L 228.829546 -70.38606 
L 229.00529 -70.38606 
L 229.181034 -70.38606 
L 229.356778 -70.38606 
L 229.532522 -70.38606 
L 229.708267 -70.38606 
L 229.884011 -70.38606 
L 230.059755 -70.38606 
L 230.235499 -70.38606 
L 230.411244 -70.38606 
L 230.586988 -70.38606 
L 230.762732 -70.38606 
L 230.938476 -70.38606 
L 230.938476 -26.49394 
L 230.938476 -26.49394 
L 230.762732 -26.49394 
L 230.586988 -26.49394 
L 230.411244 -26.49394 
L 230.235499 -26.49394 
L 230.059755 -26.49394 
L 229.884011 -26.49394 
L 229.708267 -26.49394 
L 229.532522 -26.49394 
L 229.356778 -26.49394 
L 229.181034 -26.49394 
L 229.00529 -26.49394 
L 228.829546 -26.49394 
L 228.653801 -26.49394 
L 228.478057 -26.49394 
L 228.302313 -26.49394 
L 228.126569 -26.49394 
L 227.950824 -26.49394 
L 227.77508 -26.49394 
L 227.599336 -26.49394 
L 227.423592 -26.49394 
L 227.247848 -26.49394 
L 227.072103 -26.49394 
L 226.896359 -26.49394 
L 226.720615 -26.49394 
L 226.544871 -26.49394 
L 226.369126 -26.49394 
L 226.193382 -26.49394 
L 226.017638 -26.49394 
L 225.841894 -26.49394 
L 225.66615 -26.49394 
L 225.490405 -26.49394 
L 225.314661 -26.49394 
L 225.138917 -26.49394 
L 224.963173 -26.49394 
L 224.787429 -26.49394 
L 224.611684 -26.49394 
L 224.43594 -26.49394 
L 224.260196 -26.49394 
L 224.084452 -26.49394 
L 223.908707 -26.49394 
L 223.732963 -26.49394 
L 223.557219 -26.49394 
L 223.381475 -26.49394 
L 223.205731 -26.49394 
L 223.029986 -26.49394 
L 222.854242 -26.49394 
L 222.678498 -26.49394 
L 222.502754 -26.49394 
L 222.327009 -26.49394 
L 222.151265 -26.49394 
L 221.975521 -26.49394 
L 221.799777 -26.49394 
L 221.624033 -26.49394 
L 221.448288 -26.49394 
L 221.272544 -26.49394 
L 221.0968 -26.49394 
L 220.921056 -26.49394 
L 220.745311 -26.49394 
L 220.569567 -26.49394 
L 220.393823 -26.49394 
L 220.218079 -26.49394 
L 220.042335 -26.49394 
L 219.86659 -26.49394 
L 219.690846 -26.49394 
L 219.515102 -26.49394 
L 219.339358 -26.49394 
L 219.163613 -26.49394 
L 218.987869 -26.49394 
L 218.812125 -26.49394 
L 218.636381 -26.49394 
L 218.460637 -26.49394 
L 218.284892 -26.49394 
L 218.109148 -26.49394 
L 217.933404 -26.49394 
L 217.75766 -26.49394 
L 217.581915 -26.49394 
L 217.406171 -26.49394 
L 217.230427 -26.49394 
L 217.054683 -26.49394 
L 216.878939 -26.49394 
L 216.703194 -26.49394 
L 216.52745 -26.49394 
L 216.351706 -26.49394 
L 216.175962 -26.49394 
L 216.000217 -26.49394 
L 215.824473 -26.49394 
L 215.648729 -26.49394 
L 215.472985 -26.49394 
L 215.297241 -26.49394 
L 215.121496 -26.49394 
L 214.945752 -26.49394 
L 214.770008 -26.49394 
L 214.594264 -26.49394 
L 214.418519 -26.49394 
L 214.242775 -26.49394 
L 214.067031 -26.49394 
L 213.891287 -26.49394 
L 213.715543 -26.49394 
L 213.539798 -26.49394 
L 213.364054 -26.49394 
L 213.18831 -26.49394 
L 213.012566 -26.49394 
L 212.836822 -26.49394 
L 212.661077 -26.49394 
L 212.485333 -26.49394 
L 212.309589 -26.49394 
L 212.133845 -26.49394 
L 211.9581 -26.49394 
L 211.782356 -26.49394 
L 211.606612 -26.49394 
L 211.430868 -26.49394 
L 211.255124 -26.49394 
L 211.079379 -26.49394 
L 210.903635 -26.49394 
L 210.727891 -26.49394 
L 210.552147 -26.49394 
L 210.376402 -26.49394 
L 210.200658 -26.49394 
L 210.024914 -26.49394 
L 209.84917 -26.49394 
L 209.673426 -26.49394 
L 209.497681 -26.49394 
L 209.321937 -26.49394 
L 209.146193 -26.49394 
L 208.970449 -26.49394 
L 208.794704 -26.49394 
L 208.61896 -26.49394 
L 208.443216 -26.49394 
L 208.267472 -26.49394 
L 208.091728 -26.49394 
L 207.915983 -26.49394 
L 207.740239 -26.49394 
L 207.564495 -26.49394 
L 207.388751 -26.49394 
L 207.213006 -26.49394 
L 207.037262 -26.49394 
L 206.861518 -26.49394 
L 206.685774 -26.49394 
L 206.51003 -26.49394 
L 206.334285 -26.49394 
L 206.158541 -26.49394 
L 205.982797 -26.49394 
L 205.807053 -26.49394 
L 205.631308 -26.49394 
L 205.455564 -26.49394 
L 205.27982 -26.49394 
L 205.104076 -26.49394 
L 204.928332 -26.49394 
L 204.752587 -26.49394 
L 204.576843 -26.49394 
L 204.401099 -26.49394 
L 204.225355 -26.49394 
L 204.04961 -26.49394 
L 203.873866 -26.49394 
L 203.698122 -26.49394 
L 203.522378 -26.49394 
L 203.346634 -26.49394 
L 203.170889 -26.49394 
L 202.995145 -26.49394 
L 202.819401 -26.49394 
L 202.643657 -26.49394 
L 202.467913 -26.49394 
L 202.292168 -26.49394 
L 202.116424 -26.49394 
L 201.94068 -26.49394 
L 201.764936 -26.49394 
L 201.589191 -26.49394 
L 201.413447 -26.49394 
L 201.237703 -26.49394 
L 201.061959 -26.49394 
L 200.886215 -26.49394 
L 200.71047 -26.49394 
L 200.534726 -26.49394 
L 200.358982 -26.49394 
L 200.183238 -26.49394 
L 200.007493 -26.49394 
L 199.831749 -26.49394 
L 199.656005 -26.49394 
L 199.480261 -26.49394 
L 199.304517 -26.49394 
L 199.128772 -26.49394 
L 198.953028 -26.49394 
L 198.777284 -26.49394 
L 198.60154 -26.49394 
L 198.425795 -26.49394 
L 198.250051 -26.49394 
L 198.074307 -26.49394 
L 197.898563 -26.49394 
L 197.722819 -26.49394 
L 197.547074 -26.49394 
L 197.37133 -26.49394 
L 197.195586 -26.49394 
L 197.019842 -26.49394 
L 196.844097 -26.49394 
L 196.668353 -26.49394 
L 196.492609 -26.49394 
L 196.316865 -26.49394 
L 196.141121 -26.49394 
L 195.965376 -26.49394 
L 195.789632 -26.49394 
L 195.613888 -26.49394 
L 195.438144 -26.49394 
L 195.262399 -26.49394 
L 195.086655 -26.49394 
L 194.910911 -26.49394 
L 194.735167 -26.49394 
L 194.559423 -26.49394 
L 194.383678 -26.49394 
L 194.207934 -26.49394 
L 194.03219 -26.49394 
L 193.856446 -26.49394 
L 193.680701 -26.49394 
L 193.504957 -26.49394 
L 193.329213 -26.49394 
L 193.153469 -26.49394 
L 192.977725 -26.49394 
L 192.80198 -26.49394 
L 192.626236 -26.49394 
L 192.450492 -26.49394 
L 192.274748 -26.49394 
L 192.099004 -26.49394 
L 191.923259 -26.49394 
L 191.747515 -26.49394 
L 191.571771 -26.49394 
L 191.396027 -26.49394 
L 191.220282 -26.49394 
L 191.044538 -26.49394 
L 190.868794 -26.49394 
L 190.69305 -26.49394 
L 190.517306 -26.49394 
L 190.341561 -26.49394 
L 190.165817 -26.49394 
L 189.990073 -26.49394 
L 189.814329 -26.49394 
L 189.638584 -26.49394 
L 189.46284 -26.49394 
L 189.287096 -26.49394 
L 189.111352 -26.49394 
L 188.935608 -26.49394 
L 188.759863 -26.49394 
L 188.584119 -26.49394 
L 188.408375 -26.49394 
L 188.232631 -26.49394 
L 188.056886 -26.49394 
L 187.881142 -26.49394 
L 187.705398 -26.49394 
L 187.529654 -26.49394 
L 187.35391 -26.49394 
L 187.178165 -26.49394 
L 187.002421 -26.49394 
L 186.826677 -26.49394 
L 186.650933 -26.49394 
L 186.475188 -26.49394 
L 186.299444 -26.49394 
L 186.1237 -26.49394 
L 185.947956 -26.49394 
L 185.772212 -26.49394 
L 185.596467 -26.49394 
L 185.420723 -26.49394 
L 185.244979 -26.49394 
L 185.069235 -26.49394 
L 184.89349 -26.49394 
L 184.717746 -26.49394 
L 184.542002 -26.49394 
L 184.366258 -26.49394 
L 184.190514 -26.49394 
L 184.014769 -26.49394 
L 183.839025 -26.49394 
L 183.663281 -26.49394 
L 183.487537 -26.49394 
L 183.311792 -26.49394 
L 183.136048 -26.49394 
L 182.960304 -26.49394 
L 182.78456 -26.49394 
L 182.608816 -26.49394 
L 182.433071 -26.49394 
L 182.257327 -26.49394 
L 182.081583 -26.49394 
L 181.905839 -26.49394 
L 181.730094 -26.49394 
L 181.55435 -26.49394 
L 181.378606 -26.49394 
L 181.202862 -26.49394 
L 181.027118 -26.49394 
L 180.851373 -26.49394 
L 180.675629 -26.49394 
L 180.499885 -26.49394 
L 180.324141 -26.49394 
L 180.148397 -26.49394 
L 179.972652 -26.49394 
L 179.796908 -26.49394 
L 179.621164 -26.49394 
L 179.44542 -26.49394 
L 179.269675 -26.49394 
L 179.093931 -26.49394 
L 178.918187 -26.49394 
L 178.742443 -26.49394 
L 178.566699 -26.49394 
L 178.390954 -26.49394 
L 178.21521 -26.49394 
L 178.039466 -26.49394 
L 177.863722 -26.49394 
L 177.687977 -26.49394 
L 177.512233 -26.49394 
L 177.336489 -26.49394 
L 177.160745 -26.49394 
L 176.985001 -26.49394 
L 176.809256 -26.49394 
L 176.633512 -26.49394 
L 176.457768 -26.49394 
L 176.282024 -26.49394 
L 176.106279 -26.49394 
L 175.930535 -26.49394 
L 175.754791 -26.49394 
L 175.579047 -26.49394 
L 175.403303 -26.49394 
L 175.227558 -26.49394 
L 175.051814 -26.49394 
L 174.87607 -26.49394 
L 174.700326 -26.49394 
L 174.524581 -26.49394 
L 174.348837 -26.49394 
L 174.173093 -26.49394 
L 173.997349 -26.49394 
L 173.821605 -26.49394 
L 173.64586 -26.49394 
L 173.470116 -26.49394 
L 173.294372 -26.49394 
L 173.118628 -26.49394 
L 172.942883 -26.49394 
L 172.767139 -26.49394 
L 172.591395 -26.49394 
L 172.415651 -26.49394 
L 172.239907 -26.49394 
L 172.064162 -26.49394 
L 171.888418 -26.49394 
L 171.712674 -26.49394 
L 171.53693 -26.49394 
L 171.361185 -26.49394 
L 171.185441 -26.49394 
L 171.009697 -26.49394 
L 170.833953 -26.49394 
L 170.658209 -26.49394 
L 170.482464 -26.49394 
L 170.30672 -26.49394 
L 170.130976 -26.49394 
L 169.955232 -26.49394 
L 169.779488 -26.49394 
L 169.603743 -26.49394 
L 169.427999 -26.49394 
L 169.252255 -26.49394 
L 169.076511 -26.49394 
L 168.900766 -26.49394 
L 168.725022 -26.49394 
L 168.549278 -26.49394 
L 168.373534 -26.49394 
L 168.19779 -26.49394 
L 168.022045 -26.49394 
L 167.846301 -26.49394 
L 167.670557 -26.49394 
L 167.494813 -26.49394 
L 167.319068 -26.49394 
L 167.143324 -26.49394 
L 166.96758 -26.49394 
L 166.791836 -26.49394 
L 166.616092 -26.49394 
L 166.440347 -26.49394 
L 166.264603 -26.49394 
L 166.088859 -26.49394 
L 165.913115 -26.49394 
L 165.73737 -26.49394 
L 165.561626 -26.49394 
L 165.385882 -26.49394 
L 165.210138 -26.49394 
L 165.034394 -26.49394 
L 164.858649 -26.49394 
L 164.682905 -26.49394 
L 164.507161 -26.49394 
L 164.331417 -26.49394 
L 164.155672 -26.49394 
L 163.979928 -26.49394 
L 163.804184 -26.49394 
L 163.62844 -26.49394 
L 163.452696 -26.49394 
L 163.276951 -26.49394 
L 163.101207 -26.49394 
L 162.925463 -26.49394 
L 162.749719 -26.49394 
L 162.573974 -26.49394 
L 162.39823 -26.49394 
L 162.222486 -26.49394 
L 162.046742 -26.49394 
L 161.870998 -26.49394 
L 161.695253 -26.49394 
L 161.519509 -26.49394 
L 161.343765 -26.49394 
L 161.168021 -26.49394 
L 160.992276 -26.49394 
L 160.816532 -26.49394 
L 160.640788 -26.49394 
L 160.465044 -26.49394 
L 160.2893 -26.49394 
L 160.113555 -26.49394 
L 159.937811 -26.49394 
L 159.762067 -26.49394 
L 159.586323 -26.49394 
L 159.410578 -26.49394 
L 159.234834 -26.49394 
L 159.05909 -26.49394 
L 158.883346 -26.49394 
L 158.707602 -26.49394 
L 158.531857 -26.49394 
L 158.356113 -26.49394 
L 158.180369 -26.49394 
L 158.004625 -26.49394 
L 157.828881 -26.49394 
L 157.653136 -26.49394 
L 157.477392 -26.49394 
L 157.301648 -26.49394 
L 157.125904 -26.49394 
L 156.950159 -26.49394 
L 156.774415 -26.49394 
L 156.598671 -26.49394 
L 156.422927 -26.49394 
L 156.247183 -26.49394 
L 156.071438 -26.49394 
L 155.895694 -26.49394 
L 155.71995 -26.49394 
L 155.544206 -26.49394 
L 155.368461 -26.49394 
L 155.192717 -26.49394 
L 155.016973 -26.49394 
L 154.841229 -26.49394 
L 154.665485 -26.49394 
L 154.48974 -26.49394 
L 154.313996 -26.49394 
L 154.138252 -26.49394 
L 153.962508 -26.49394 
L 153.786763 -26.49394 
L 153.611019 -26.49394 
L 153.435275 -26.49394 
L 153.259531 -26.49394 
L 153.083787 -26.49394 
L 152.908042 -26.49394 
L 152.732298 -26.49394 
L 152.556554 -26.49394 
L 152.38081 -26.49394 
L 152.205065 -26.49394 
L 152.029321 -26.49394 
L 151.853577 -26.49394 
L 151.677833 -26.49394 
L 151.502089 -26.49394 
L 151.326344 -26.49394 
L 151.1506 -26.49394 
L 150.974856 -26.49394 
L 150.799112 -26.49394 
L 150.623367 -26.49394 
L 150.447623 -26.49394 
L 150.271879 -26.49394 
L 150.096135 -26.49394 
L 149.920391 -26.49394 
L 149.744646 -26.49394 
L 149.568902 -26.49394 
L 149.393158 -26.49394 
L 149.217414 -26.49394 
L 149.041669 -26.49394 
L 148.865925 -26.49394 
L 148.690181 -26.49394 
L 148.514437 -26.49394 
L 148.338693 -26.49394 
L 148.162948 -26.49394 
L 147.987204 -26.49394 
L 147.81146 -26.49394 
L 147.635716 -26.49394 
L 147.459972 -26.49394 
L 147.284227 -26.49394 
L 147.108483 -26.49394 
L 146.932739 -26.49394 
L 146.756995 -26.49394 
L 146.58125 -26.49394 
L 146.405506 -26.49394 
L 146.229762 -26.49394 
L 146.054018 -26.49394 
L 145.878274 -26.49394 
L 145.702529 -26.49394 
L 145.526785 -26.49394 
L 145.351041 -26.49394 
L 145.175297 -26.49394 
L 144.999552 -26.49394 
L 144.823808 -26.49394 
L 144.648064 -26.49394 
L 144.47232 -26.49394 
L 144.296576 -26.49394 
L 144.120831 -26.49394 
L 143.945087 -26.49394 
L 143.769343 -26.49394 
L 143.593599 -26.49394 
L 143.417854 -26.49394 
L 143.24211 -26.49394 
L 143.066366 -26.49394 
L 142.890622 -26.49394 
L 142.714878 -26.49394 
L 142.539133 -26.49394 
L 142.363389 -26.49394 
L 142.187645 -26.49394 
L 142.011901 -26.49394 
L 141.836156 -26.49394 
L 141.660412 -26.49394 
L 141.484668 -26.49394 
L 141.308924 -26.49394 
L 141.13318 -26.49394 
L 140.957435 -26.49394 
L 140.781691 -26.49394 
L 140.605947 -26.49394 
L 140.430203 -26.49394 
L 140.254458 -26.49394 
L 140.078714 -26.49394 
L 139.90297 -26.49394 
L 139.727226 -26.49394 
L 139.551482 -26.49394 
L 139.375737 -26.49394 
L 139.199993 -26.49394 
L 139.024249 -26.49394 
L 138.848505 -26.49394 
L 138.67276 -26.49394 
L 138.497016 -26.49394 
L 138.321272 -26.49394 
L 138.145528 -26.49394 
L 137.969784 -26.49394 
L 137.794039 -26.49394 
L 137.618295 -26.49394 
L 137.442551 -26.49394 
L 137.266807 -26.49394 
L 137.091063 -26.49394 
L 136.915318 -26.49394 
L 136.739574 -26.49394 
L 136.56383 -26.49394 
L 136.388086 -26.49394 
L 136.212341 -26.49394 
L 136.036597 -26.49394 
L 135.860853 -26.49394 
L 135.685109 -26.49394 
L 135.509365 -26.49394 
L 135.33362 -26.49394 
L 135.157876 -26.49394 
L 134.982132 -26.49394 
L 134.806388 -26.49394 
L 134.630643 -26.49394 
L 134.454899 -26.49394 
L 134.279155 -26.49394 
L 134.103411 -26.49394 
L 133.927667 -26.49394 
L 133.751922 -26.49394 
L 133.576178 -26.49394 
L 133.400434 -26.49394 
L 133.22469 -26.49394 
L 133.048945 -26.49394 
L 132.873201 -26.49394 
L 132.697457 -26.49394 
L 132.521713 -26.49394 
L 132.345969 -26.49394 
L 132.170224 -26.49394 
L 131.99448 -26.49394 
L 131.818736 -26.49394 
L 131.642992 -26.49394 
L 131.467247 -26.49394 
L 131.291503 -26.49394 
L 131.115759 -26.49394 
L 130.940015 -26.49394 
L 130.764271 -26.49394 
L 130.588526 -26.49394 
L 130.412782 -26.49394 
L 130.237038 -26.49394 
L 130.061294 -26.49394 
L 129.885549 -26.49394 
L 129.709805 -26.49394 
L 129.534061 -26.49394 
L 129.358317 -26.49394 
L 129.182573 -26.49394 
L 129.006828 -26.49394 
L 128.831084 -26.49394 
L 128.65534 -26.49394 
L 128.479596 -26.49394 
L 128.303851 -26.49394 
L 128.128107 -26.49394 
L 127.952363 -26.49394 
L 127.776619 -26.49394 
L 127.600875 -26.49394 
L 127.42513 -26.49394 
L 127.249386 -26.49394 
L 127.073642 -26.49394 
L 126.897898 -26.49394 
L 126.722153 -26.49394 
L 126.546409 -26.49394 
L 126.370665 -26.49394 
L 126.194921 -26.49394 
L 126.019177 -26.49394 
L 125.843432 -26.49394 
L 125.667688 -26.49394 
L 125.491944 -26.49394 
L 125.3162 -26.49394 
L 125.140456 -26.49394 
L 124.964711 -26.49394 
L 124.788967 -26.49394 
L 124.613223 -26.49394 
L 124.437479 -26.49394 
L 124.261734 -26.49394 
L 124.08599 -26.49394 
L 123.910246 -26.49394 
L 123.734502 -26.49394 
L 123.558758 -26.49394 
L 123.383013 -26.49394 
L 123.207269 -26.49394 
L 123.031525 -26.49394 
L 122.855781 -26.49394 
L 122.680036 -26.49394 
L 122.504292 -26.49394 
L 122.328548 -26.49394 
L 122.152804 -26.49394 
L 121.97706 -26.49394 
L 121.801315 -26.49394 
L 121.625571 -26.49394 
L 121.449827 -26.49394 
L 121.274083 -26.49394 
L 121.098338 -26.49394 
L 120.922594 -26.49394 
L 120.74685 -26.49394 
L 120.571106 -26.49394 
L 120.395362 -26.49394 
L 120.219617 -26.49394 
L 120.043873 -26.49394 
L 119.868129 -26.49394 
L 119.692385 -26.49394 
L 119.51664 -26.49394 
L 119.340896 -26.49394 
L 119.165152 -26.49394 
L 118.989408 -26.49394 
L 118.813664 -26.49394 
L 118.637919 -26.49394 
L 118.462175 -26.49394 
L 118.286431 -26.49394 
L 118.110687 -26.49394 
L 117.934942 -26.49394 
L 117.759198 -26.49394 
L 117.583454 -26.49394 
L 117.40771 -26.49394 
L 117.231966 -26.49394 
L 117.056221 -26.49394 
L 116.880477 -26.49394 
L 116.704733 -26.49394 
L 116.528989 -26.49394 
L 116.353244 -26.49394 
L 116.1775 -26.49394 
L 116.001756 -26.49394 
L 115.826012 -26.49394 
L 115.650268 -26.49394 
L 115.474523 -26.49394 
L 115.298779 -26.49394 
L 115.123035 -26.49394 
L 114.947291 -26.49394 
L 114.771547 -26.49394 
L 114.595802 -26.49394 
L 114.420058 -26.49394 
L 114.244314 -26.49394 
L 114.06857 -26.49394 
L 113.892825 -26.49394 
L 113.717081 -26.49394 
L 113.541337 -26.49394 
L 113.365593 -26.49394 
L 113.189849 -26.49394 
L 113.014104 -26.49394 
L 112.83836 -26.49394 
L 112.662616 -26.49394 
L 112.486872 -26.49394 
L 112.311127 -26.49394 
L 112.135383 -26.49394 
L 111.959639 -26.49394 
L 111.783895 -26.49394 
L 111.608151 -26.49394 
L 111.432406 -26.49394 
L 111.256662 -26.49394 
L 111.080918 -26.49394 
L 110.905174 -26.49394 
L 110.729429 -26.49394 
L 110.553685 -26.49394 
L 110.377941 -26.49394 
L 110.202197 -26.49394 
L 110.026453 -26.49394 
L 109.850708 -26.49394 
L 109.674964 -26.49394 
L 109.49922 -26.49394 
L 109.323476 -26.49394 
L 109.147731 -26.49394 
L 108.971987 -26.49394 
L 108.796243 -26.49394 
L 108.620499 -26.49394 
L 108.444755 -26.49394 
L 108.26901 -26.49394 
L 108.093266 -26.49394 
L 107.917522 -26.49394 
L 107.741778 -26.49394 
L 107.566033 -26.49394 
L 107.390289 -26.49394 
L 107.214545 -26.49394 
L 107.038801 -26.49394 
L 106.863057 -26.49394 
L 106.687312 -26.49394 
L 106.511568 -26.49394 
L 106.335824 -26.49394 
L 106.16008 -26.49394 
L 105.984335 -26.49394 
L 105.808591 -26.49394 
L 105.632847 -26.49394 
L 105.457103 -26.49394 
L 105.281359 -26.49394 
L 105.105614 -26.49394 
L 104.92987 -26.49394 
L 104.754126 -26.49394 
L 104.578382 -26.49394 
L 104.402638 -26.49394 
L 104.226893 -26.49394 
L 104.051149 -26.49394 
L 103.875405 -26.49394 
L 103.699661 -26.49394 
L 103.523916 -26.49394 
L 103.348172 -26.49394 
L 103.172428 -26.49394 
L 102.996684 -26.49394 
L 102.82094 -26.49394 
L 102.645195 -26.49394 
L 102.469451 -26.49394 
L 102.293707 -26.49394 
L 102.117963 -26.49394 
L 101.942218 -26.49394 
L 101.766474 -26.49394 
L 101.59073 -26.49394 
L 101.414986 -26.49394 
L 101.239242 -26.49394 
L 101.063497 -26.49394 
L 100.887753 -26.49394 
L 100.712009 -26.49394 
L 100.536265 -26.49394 
L 100.36052 -26.49394 
L 100.184776 -26.49394 
L 100.009032 -26.49394 
L 99.833288 -26.49394 
L 99.657544 -26.49394 
L 99.481799 -26.49394 
L 99.306055 -26.49394 
L 99.130311 -26.49394 
L 98.954567 -26.49394 
L 98.778822 -26.49394 
L 98.603078 -26.49394 
L 98.427334 -26.49394 
L 98.25159 -26.49394 
L 98.075846 -26.49394 
L 97.900101 -26.49394 
L 97.724357 -26.49394 
L 97.548613 -26.49394 
L 97.372869 -26.49394 
L 97.197124 -26.49394 
L 97.02138 -26.49394 
L 96.845636 -26.49394 
L 96.669892 -26.49394 
L 96.494148 -26.49394 
L 96.318403 -26.49394 
L 96.142659 -26.49394 
L 95.966915 -26.49394 
L 95.791171 -26.49394 
L 95.615426 -26.49394 
L 95.439682 -26.49394 
L 95.263938 -26.49394 
L 95.088194 -26.49394 
L 94.91245 -26.49394 
L 94.736705 -26.49394 
L 94.560961 -26.49394 
L 94.385217 -26.49394 
L 94.209473 -26.49394 
L 94.033728 -26.49394 
L 93.857984 -26.49394 
L 93.68224 -26.49394 
L 93.506496 -26.49394 
L 93.330752 -26.49394 
L 93.155007 -26.49394 
L 92.979263 -26.49394 
L 92.803519 -26.49394 
L 92.627775 -26.49394 
L 92.452031 -26.49394 
L 92.276286 -26.49394 
L 92.100542 -26.49394 
L 91.924798 -26.49394 
L 91.749054 -26.49394 
L 91.573309 -26.49394 
L 91.397565 -26.49394 
L 91.221821 -26.49394 
L 91.046077 -26.49394 
L 90.870333 -26.49394 
L 90.694588 -26.49394 
L 90.518844 -26.49394 
L 90.3431 -26.49394 
L 90.167356 -26.49394 
L 89.991611 -26.49394 
L 89.815867 -26.49394 
L 89.640123 -26.49394 
L 89.464379 -26.49394 
L 89.288635 -26.49394 
L 89.11289 -26.49394 
L 88.937146 -26.49394 
L 88.761402 -26.49394 
L 88.585658 -26.49394 
L 88.409913 -26.49394 
L 88.234169 -26.49394 
L 88.058425 -26.49394 
L 87.882681 -26.49394 
L 87.706937 -26.49394 
L 87.531192 -26.49394 
L 87.355448 -26.49394 
L 87.179704 -26.49394 
L 87.00396 -26.49394 
L 86.828215 -26.49394 
L 86.652471 -26.49394 
L 86.476727 -26.49394 
L 86.300983 -26.49394 
L 86.125239 -26.49394 
L 85.949494 -26.49394 
L 85.77375 -26.49394 
L 85.598006 -26.49394 
L 85.422262 -26.49394 
L 85.246517 -26.49394 
L 85.070773 -26.49394 
L 84.895029 -26.49394 
L 84.719285 -26.49394 
L 84.543541 -26.49394 
L 84.367796 -26.49394 
L 84.192052 -26.49394 
L 84.016308 -26.49394 
L 83.840564 -26.49394 
L 83.664819 -26.49394 
L 83.489075 -26.49394 
L 83.313331 -26.49394 
L 83.137587 -26.49394 
L 82.961843 -26.49394 
L 82.786098 -26.49394 
L 82.610354 -26.49394 
L 82.43461 -26.49394 
L 82.258866 -26.49394 
L 82.083122 -26.49394 
L 81.907377 -26.49394 
L 81.731633 -26.49394 
L 81.555889 -26.49394 
L 81.380145 -26.49394 
L 81.2044 -26.49394 
L 81.028656 -26.49394 
L 80.852912 -26.49394 
L 80.677168 -26.49394 
L 80.501424 -26.49394 
L 80.325679 -26.49394 
L 80.149935 -26.49394 
L 79.974191 -26.49394 
L 79.798447 -26.49394 
L 79.622702 -26.49394 
L 79.446958 -26.49394 
L 79.271214 -26.49394 
L 79.09547 -26.49394 
L 78.919726 -26.49394 
L 78.743981 -26.49394 
L 78.568237 -26.49394 
L 78.392493 -26.49394 
L 78.216749 -26.49394 
L 78.041004 -26.49394 
L 77.86526 -26.49394 
L 77.689516 -26.49394 
L 77.513772 -26.49394 
L 77.338028 -26.49394 
L 77.162283 -26.49394 
L 76.986539 -26.49394 
L 76.810795 -26.49394 
L 76.635051 -26.49394 
L 76.459306 -26.49394 
L 76.283562 -26.49394 
L 76.107818 -26.49394 
L 75.932074 -26.49394 
L 75.75633 -26.49394 
L 75.580585 -26.49394 
L 75.404841 -26.49394 
L 75.229097 -26.49394 
L 75.053353 -26.49394 
L 74.877608 -26.49394 
L 74.701864 -26.49394 
L 74.52612 -26.49394 
L 74.350376 -26.49394 
L 74.174632 -26.49394 
L 73.998887 -26.49394 
L 73.823143 -26.49394 
L 73.647399 -26.49394 
L 73.471655 -26.49394 
L 73.29591 -26.49394 
L 73.120166 -26.49394 
L 72.944422 -26.49394 
L 72.768678 -26.49394 
L 72.592934 -26.49394 
L 72.417189 -26.49394 
L 72.241445 -26.49394 
L 72.065701 -26.49394 
L 71.889957 -26.49394 
L 71.714213 -26.49394 
L 71.538468 -26.49394 
L 71.362724 -26.49394 
L 71.18698 -26.49394 
L 71.011236 -26.49394 
L 70.835491 -26.49394 
L 70.659747 -26.49394 
L 70.484003 -26.49394 
L 70.308259 -26.49394 
L 70.132515 -26.49394 
L 69.95677 -26.49394 
L 69.781026 -26.49394 
L 69.605282 -26.49394 
L 69.429538 -26.49394 
L 69.253793 -26.49394 
L 69.078049 -26.49394 
L 68.902305 -26.49394 
L 68.726561 -26.49394 
L 68.550817 -26.49394 
L 68.375072 -26.49394 
L 68.199328 -26.49394 
L 68.023584 -26.49394 
L 67.84784 -26.49394 
L 67.672095 -26.49394 
L 67.496351 -26.49394 
L 67.320607 -26.49394 
L 67.144863 -26.49394 
L 66.969119 -26.49394 
L 66.793374 -26.49394 
L 66.61763 -26.49394 
L 66.441886 -26.49394 
L 66.266142 -26.49394 
L 66.090397 -26.49394 
L 65.914653 -26.49394 
L 65.738909 -26.49394 
L 65.563165 -26.49394 
L 65.387421 -26.49394 
L 65.211676 -26.49394 
L 65.035932 -26.49394 
L 64.860188 -26.49394 
L 64.684444 -26.49394 
L 64.508699 -26.49394 
L 64.332955 -26.49394 
L 64.157211 -26.49394 
L 63.981467 -26.49394 
L 63.805723 -26.49394 
L 63.629978 -26.49394 
L 63.454234 -26.49394 
L 63.27849 -26.49394 
L 63.102746 -26.49394 
L 62.927001 -26.49394 
L 62.751257 -26.49394 
L 62.575513 -26.49394 
L 62.399769 -26.49394 
L 62.224025 -26.49394 
L 62.04828 -26.49394 
L 61.872536 -26.49394 
L 61.696792 -26.49394 
L 61.521048 -26.49394 
L 61.345303 -26.49394 
L 61.169559 -26.49394 
L 60.993815 -26.49394 
L 60.818071 -26.49394 
L 60.642327 -26.49394 
L 60.466582 -26.49394 
L 60.290838 -26.49394 
L 60.115094 -26.49394 
L 59.93935 -26.49394 
L 59.763606 -26.49394 
L 59.587861 -26.49394 
L 59.412117 -26.49394 
L 59.236373 -26.49394 
L 59.060629 -26.49394 
L 58.884884 -26.49394 
L 58.70914 -26.49394 
L 58.533396 -26.49394 
L 58.357652 -26.49394 
L 58.181908 -26.49394 
L 58.006163 -26.49394 
L 57.830419 -26.49394 
L 57.654675 -26.49394 
L 57.478931 -26.49394 
L 57.303186 -26.49394 
L 57.127442 -26.49394 
L 56.951698 -26.49394 
L 56.775954 -26.49394 
L 56.60021 -26.49394 
L 56.424465 -26.49394 
L 56.248721 -26.49394 
L 56.072977 -26.49394 
L 55.897233 -26.49394 
L 55.721488 -26.49394 
L 55.545744 -26.49394 
L 55.37 -26.49394 
z
" id="mac151a6a1b" style="stroke:#000000;stroke-opacity:0.4;"/>
    </defs>
    <g clip-path="url(#p146d7e6f36)">
     <use style="fill:#30a2da;fill-opacity:0.4;stroke:#000000;stroke-opacity:0.4;" x="0" xlink:href="#mac151a6a1b" y="355.35469"/>
    </g>
   </g>
   <g id="line2d_8">
    <path clip-path="url(#p146d7e6f36)" d="M 55.37 273.995601 
L 112.83836 273.995601 
L 113.014104 284.968631 
L 178.918187 284.968631 
L 179.093931 295.94166 
L 210.376402 295.94166 
L 210.552147 284.968631 
L 230.938476 284.968631 
L 230.938476 284.968631 
" style="fill:none;stroke:#000000;stroke-linecap:square;stroke-width:2;"/>
   </g>
   <g id="matplotlib.axis_3">
    <g id="xtick_4">
     <g id="line2d_9">
      <g>
       <use style="stroke:#000000;stroke-width:0.8;" x="55.37" xlink:href="#m91da8e6e63" y="306.91469"/>
      </g>
     </g>
     <g id="text_9">
      <!-- 0.0 -->
      <g transform="translate(44.237812 324.552503)scale(0.14 -0.14)">
       <use xlink:href="#DejaVuSans-48"/>
       <use x="63.623047" xlink:href="#DejaVuSans-46"/>
       <use x="95.410156" xlink:href="#DejaVuSans-48"/>
      </g>
     </g>
    </g>
    <g id="xtick_5">
     <g id="line2d_10">
      <g>
       <use style="stroke:#000000;stroke-width:0.8;" x="143.154238" xlink:href="#m91da8e6e63" y="306.91469"/>
      </g>
     </g>
     <g id="text_10">
      <!-- 0.5 -->
      <g transform="translate(132.022051 324.552503)scale(0.14 -0.14)">
       <use xlink:href="#DejaVuSans-48"/>
       <use x="63.623047" xlink:href="#DejaVuSans-46"/>
       <use x="95.410156" xlink:href="#DejaVuSans-53"/>
      </g>
     </g>
    </g>
    <g id="xtick_6">
     <g id="line2d_11">
      <g>
       <use style="stroke:#000000;stroke-width:0.8;" x="230.938476" xlink:href="#m91da8e6e63" y="306.91469"/>
      </g>
     </g>
     <g id="text_11">
      <!-- 1.0 -->
      <g transform="translate(219.806289 324.552503)scale(0.14 -0.14)">
       <use xlink:href="#DejaVuSans-49"/>
       <use x="63.623047" xlink:href="#DejaVuSans-46"/>
       <use x="95.410156" xlink:href="#DejaVuSans-48"/>
      </g>
     </g>
    </g>
    <g id="text_12">
     <!-- $\alpha$ -->
     <g transform="translate(137.610238 344.22944)scale(0.168 -0.168)">
      <use transform="translate(0 0.84375)" xlink:href="#DejaVuSans-Oblique-945"/>
     </g>
    </g>
   </g>
   <g id="matplotlib.axis_4">
    <g id="ytick_4">
     <g id="line2d_12">
      <g>
       <use style="stroke:#000000;stroke-width:0.8;" x="55.37" xlink:href="#mb7d0daa70e" y="306.91469"/>
      </g>
     </g>
     <g id="text_13">
      <!-- 2 -->
      <g transform="translate(39.4625 312.233596)scale(0.14 -0.14)">
       <defs>
        <path d="M 19.1875 8.296875 
L 53.609375 8.296875 
L 53.609375 0 
L 7.328125 0 
L 7.328125 8.296875 
Q 12.9375 14.109375 22.625 23.890625 
Q 32.328125 33.6875 34.8125 36.53125 
Q 39.546875 41.84375 41.421875 45.53125 
Q 43.3125 49.21875 43.3125 52.78125 
Q 43.3125 58.59375 39.234375 62.25 
Q 35.15625 65.921875 28.609375 65.921875 
Q 23.96875 65.921875 18.8125 64.3125 
Q 13.671875 62.703125 7.8125 59.421875 
L 7.8125 69.390625 
Q 13.765625 71.78125 18.9375 73 
Q 24.125 74.21875 28.421875 74.21875 
Q 39.75 74.21875 46.484375 68.546875 
Q 53.21875 62.890625 53.21875 53.421875 
Q 53.21875 48.921875 51.53125 44.890625 
Q 49.859375 40.875 45.40625 35.40625 
Q 44.1875 33.984375 37.640625 27.21875 
Q 31.109375 20.453125 19.1875 8.296875 
z
" id="DejaVuSans-50"/>
       </defs>
       <use xlink:href="#DejaVuSans-50"/>
      </g>
     </g>
    </g>
    <g id="ytick_5">
     <g id="line2d_13">
      <g>
       <use style="stroke:#000000;stroke-width:0.8;" x="55.37" xlink:href="#mb7d0daa70e" y="284.968631"/>
      </g>
     </g>
     <g id="text_14">
      <!-- 4 -->
      <g transform="translate(39.4625 290.287537)scale(0.14 -0.14)">
       <use xlink:href="#DejaVuSans-52"/>
      </g>
     </g>
    </g>
    <g id="ytick_6">
     <g id="line2d_14">
      <g>
       <use style="stroke:#000000;stroke-width:0.8;" x="55.37" xlink:href="#mb7d0daa70e" y="263.022571"/>
      </g>
     </g>
     <g id="text_15">
      <!-- 6 -->
      <g transform="translate(39.4625 268.341477)scale(0.14 -0.14)">
       <defs>
        <path d="M 33.015625 40.375 
Q 26.375 40.375 22.484375 35.828125 
Q 18.609375 31.296875 18.609375 23.390625 
Q 18.609375 15.53125 22.484375 10.953125 
Q 26.375 6.390625 33.015625 6.390625 
Q 39.65625 6.390625 43.53125 10.953125 
Q 47.40625 15.53125 47.40625 23.390625 
Q 47.40625 31.296875 43.53125 35.828125 
Q 39.65625 40.375 33.015625 40.375 
z
M 52.59375 71.296875 
L 52.59375 62.3125 
Q 48.875 64.0625 45.09375 64.984375 
Q 41.3125 65.921875 37.59375 65.921875 
Q 27.828125 65.921875 22.671875 59.328125 
Q 17.53125 52.734375 16.796875 39.40625 
Q 19.671875 43.65625 24.015625 45.921875 
Q 28.375 48.1875 33.59375 48.1875 
Q 44.578125 48.1875 50.953125 41.515625 
Q 57.328125 34.859375 57.328125 23.390625 
Q 57.328125 12.15625 50.6875 5.359375 
Q 44.046875 -1.421875 33.015625 -1.421875 
Q 20.359375 -1.421875 13.671875 8.265625 
Q 6.984375 17.96875 6.984375 36.375 
Q 6.984375 53.65625 15.1875 63.9375 
Q 23.390625 74.21875 37.203125 74.21875 
Q 40.921875 74.21875 44.703125 73.484375 
Q 48.484375 72.75 52.59375 71.296875 
z
" id="DejaVuSans-54"/>
       </defs>
       <use xlink:href="#DejaVuSans-54"/>
      </g>
     </g>
    </g>
    <g id="text_16">
     <!-- $Q$ -->
     <g transform="translate(31.968625 291.604631)rotate(-90)scale(0.168 -0.168)">
      <defs>
       <path d="M 36.078125 -1.3125 
Q 35.546875 -1.375 34.953125 -1.390625 
Q 34.375 -1.421875 33.203125 -1.421875 
Q 19.53125 -1.421875 11.8125 6.421875 
Q 4.109375 14.265625 4.109375 28.078125 
Q 4.109375 36.234375 7.0625 44.4375 
Q 10.015625 52.640625 15.28125 59.1875 
Q 21.390625 66.703125 29.03125 70.453125 
Q 36.671875 74.21875 45.90625 74.21875 
Q 59.28125 74.21875 66.984375 66.328125 
Q 74.703125 58.453125 74.703125 44.828125 
Q 74.703125 30.125 66.640625 17.921875 
Q 58.59375 5.71875 45.609375 0.6875 
L 55.515625 -12.890625 
L 44.484375 -12.890625 
z
M 45.609375 66.21875 
Q 37.5 66.21875 31.296875 62.28125 
Q 25.09375 58.34375 20.515625 50.296875 
Q 17.578125 45.171875 16.03125 39.40625 
Q 14.5 33.640625 14.5 27.78125 
Q 14.5 17.625 19.359375 12.109375 
Q 24.21875 6.59375 33.109375 6.59375 
Q 41.109375 6.59375 47.375 10.5625 
Q 53.65625 14.546875 58.109375 22.40625 
Q 61.078125 27.6875 62.640625 33.46875 
Q 64.203125 39.265625 64.203125 45.015625 
Q 64.203125 55.125 59.3125 60.671875 
Q 54.4375 66.21875 45.609375 66.21875 
z
" id="DejaVuSans-Oblique-81"/>
      </defs>
      <use transform="translate(0 0.78125)" xlink:href="#DejaVuSans-Oblique-81"/>
     </g>
    </g>
   </g>
   <g id="patch_6">
    <path d="M 55.37 306.91469 
L 55.37 263.022571 
" style="fill:none;stroke:#000000;stroke-linecap:square;stroke-linejoin:miter;stroke-width:0.8;"/>
   </g>
   <g id="patch_7">
    <path d="M 55.37 306.91469 
L 230.938476 306.91469 
" style="fill:none;stroke:#000000;stroke-linecap:square;stroke-linejoin:miter;stroke-width:0.8;"/>
   </g>
  </g>
 </g>
 <defs>
  <clipPath id="p7d6c21fb15">
   <rect height="175.568476" width="175.568476" x="55.37" y="12.6"/>
  </clipPath>
  <clipPath id="p146d7e6f36">
   <rect height="43.892119" width="175.568476" x="55.37" y="263.022571"/>
  </clipPath>
 </defs>
</svg>
